SplineFontDB: 3.2
FontName: LibertinusSans-Regular
FullName: Libertinus Sans Regular
FamilyName: Libertinus Sans
Weight: Regular
UComments: "2003-08-29: Created.+AAoA-2004-07-25: v(1.0) release candidate+AAoA-2005-12-28: v(1.1.0) stable+AAoA-2006-01-01: v(2.0.0) stable+AAoA-2006-09-05: v(2.2.0) stable+AAoA-2006-12-04: v(2.3.0) stable+AAoA-2007-03-11: v(2.4.0) stable+AAoA-2007-12-00: v(2.7.0) stable+AAoA-2008-06-00: v(2.8.14) stable+AAoA"
Version: 1.1.8
ItalicAngle: 0
UnderlinePosition: -98
UnderlineWidth: 40
Ascent: 754
Descent: 246
InvalidEm: 0
LayerCount: 2
Layer: 0 0 "Back" 1
Layer: 1 0 "Fore" 0
XUID: [1021 993 1524925707 2876416]
FSType: 0
OS2Version: 0
OS2_WeightWidthSlopeOnly: 0
OS2_UseTypoMetrics: 1
CreationTime: 1156455862
ModificationTime: 1647193906
PfmFamily: 33
TTFWeight: 400
TTFWidth: 5
LineGap: 0
VLineGap: 0
OS2TypoAscent: 894
OS2TypoAOffset: 0
OS2TypoDescent: -246
OS2TypoDOffset: 0
OS2TypoLinegap: 0
OS2WinAscent: 894
OS2WinAOffset: 0
OS2WinDescent: 246
OS2WinDOffset: 0
HheadAscent: 894
HheadAOffset: 0
HheadDescent: -246
HheadDOffset: 0
OS2CapHeight: 658
OS2XHeight: 460
OS2FamilyClass: 2050
OS2Vendor: 'QUE '
Lookup: 258 0 0 "'kern' Smallcap kerning" { "'kern' Small Caps" [150,15,4] } ['kern' ('DFLT' <'dflt' > 'grek' <'dflt' > 'latn' <'AZE ' 'CRT ' 'TRK ' 'dflt' > ) ]
Lookup: 258 0 0 "'kern' Cyrillic kerning" { "'kern' Cyrillic Kerning" [150,0,6] } ['kern' ('DFLT' <'dflt' > 'cyrl' <'dflt' > ) ]
Lookup: 258 0 0 "'kern' Greek kerning" { "'kern' Greek Kerning" [150,0,6] } ['kern' ('DFLT' <'dflt' > 'grek' <'dflt' > ) ]
Lookup: 257 0 0 "'cpsp' Versalabstaende" { "'cpsp' Versalabstaende 1"  } ['cpsp' ('DFLT' <'dflt' > 'cyrl' <'dflt' > 'grek' <'dflt' > 'latn' <'AZE ' 'CRT ' 'TRK ' 'dflt' > ) ]
Lookup: 260 0 0 "'mark' Mark positioning" { "'mark' komb OR"  "'mark' Middle"  "'mark' Ogonek"  "'mark' Cedilla"  "'mark' Below"  "'mark' Above"  } ['mark' ('DFLT' <'dflt' > 'cyrl' <'dflt' > 'grek' <'dflt' > 'latn' <'AZE ' 'CRT ' 'TRK ' 'dflt' > ) ]

StartChar: exclam
Encoding: 33 33 0
Width: 228
GlyphClass: 2
Flags: MW
LayerCount: 2
Fore
SplineSet
113 658 m 0
 140 658 169 635 169 585 c 0
 169 520 153 478 143 392 c 0
 130 284 129 224 127 210 c 0
 126 199 123 190 113 190 c 0
 102 190 100 197 99 203 c 0
 97 224 92 314 84 392 c 0
 75 480 59 515 59 585 c 0
 59 639 91 658 113 658 c 0
EndSplineSet
Refer: 254 46 N 1 0 0 1 3 0 2
Colour: ff80cc
EndChar

StartChar: numbersign
Encoding: 35 35 2
Width: 470
GlyphClass: 2
Flags: MW
LayerCount: 2
Fore
SplineSet
285 247 m 1
 303 364 l 1
 186 364 l 1
 167 247 l 1
 285 247 l 1
339 364 m 1
 319 247 l 1
 416 247 l 1
 408 195 l 1
 313 195 l 1
 283 14 l 1
 248 14 l 1
 276 195 l 1
 159 195 l 1
 129 14 l 1
 94 14 l 1
 123 195 l 1
 27 195 l 1
 34 247 l 1
 131 247 l 1
 150 364 l 1
 53 364 l 1
 62 417 l 1
 158 417 l 1
 187 598 l 1
 223 598 l 1
 193 417 l 1
 312 417 l 1
 340 598 l 1
 375 598 l 1
 346 417 l 1
 443 417 l 1
 435 364 l 1
 339 364 l 1
EndSplineSet
EndChar

StartChar: dollar
Encoding: 36 36 3
Width: 465
GlyphClass: 2
Flags: MW
LayerCount: 2
Fore
SplineSet
214 365.3 m 1
 225.4 572 l 1
 224 572 l 2
 163 572 125 530 125 474 c 0
 125 415.9 173.5 383.9 214 365.3 c 1
245.1 264 m 1
 232.4 31.5 l 1
 290.4 36.1 343 71.2 343 140 c 0
 343 217 297.1 242.9 245.1 264 c 1
230.1 -9.2 m 1
 225.5 -93.2 l 1
 218.2 -97.4 198.6 -98.3 188.6 -98.3 c 1
 193.4 -9.7 l 1
 91.7 -5.8 43 33 43 33 c 1
 41 36 l 1
 48 64 56 94 60 127 c 1
 69 128 l 1
 92.8 77.7 139.1 40.7 195.7 32.6 c 1
 209.2 278.5 l 1
 132.9 310.8 57 356.5 57 450 c 0
 57 545.8 147.7 607.1 227.4 609.9 c 1
 231.8 689.5 l 1
 241 693 256 694.5 268.8 694.5 c 1
 264 608.9 l 1
 353 602.2 384 568 384 568 c 1
 386 565 l 1
 377 537 371 510 368 477 c 1
 358 476 l 1
 337.3 521.4 307.1 555.3 261.8 567.3 c 1
 249.9 350.7 l 1
 327.7 322.7 422 279.6 422 173 c 0
 422 125.6 401.6 74.9 362 41 c 0
 327.2 11.2 277.5 -5.5 230.1 -9.2 c 1
EndSplineSet
EndChar

StartChar: percent
Encoding: 37 37 4
Width: 680
GlyphClass: 2
Flags: MW
LayerCount: 2
Fore
SplineSet
462 89 m 0
 462 33 490 18 510 18 c 0
 569 18 607 115 607 175 c 0
 607 231 574 240 559 240 c 0
 507 240 462 151 462 89 c 0
406 105 m 0
 406 185 468 273 547 273 c 0
 590 273 639 254 639 176 c 0
 639 104 592 -13 503 -13 c 0
 438 -13 406 48 406 105 c 0
389 557 m 0
 434 557 516 569 549 614 c 1
 583 597 l 1
 145 -13 l 1
 109 3 l 1
 492 537 l 1
 451 521 410 517 378 517 c 0
 353 517 313 527 293 539 c 1
 295 532 296 523 296 513 c 0
 296 445 249 324 159 324 c 0
 93 324 63 386 63 440 c 0
 63 522 126 610 203 610 c 0
 233 610 264 596 275 583 c 1
 333 556 370 557 389 557 c 0
118 425 m 0
 118 369 147 355 166 355 c 0
 225 355 263 450 263 512 c 0
 263 565 234 577 215 577 c 0
 163 577 118 487 118 425 c 0
EndSplineSet
EndChar

StartChar: parenleft
Encoding: 40 40 5
Width: 300
GlyphClass: 2
Flags: MW
LayerCount: 2
Fore
SplineSet
44 252 m 0
 44 438 137 605 256 707 c 1
 279 689 l 1
 247 653 127 515 127 252 c 0
 127 -11 246 -149 279 -187 c 1
 256 -204 l 1
 48 -24 44 207 44 252 c 0
EndSplineSet
EndChar

StartChar: parenright
Encoding: 41 41 6
Width: 300
GlyphClass: 2
Flags: MW
LayerCount: 2
Fore
SplineSet
256 252 m 0
 256 66 163 -101 44 -203 c 1
 21 -185 l 1
 53 -149 173 -11 173 252 c 0
 173 515 54 653 21 691 c 1
 44 708 l 1
 252 528 256 297 256 252 c 0
EndSplineSet
Colour: ff00ff
EndChar

StartChar: asterisk
Encoding: 42 42 7
Width: 433
GlyphClass: 2
Flags: MW
LayerCount: 2
Fore
SplineSet
198 567 m 1
 185 570 171 571 156 571 c 0
 107 571 75 578 75 608 c 0
 75 622 84 638 108 638 c 0
 142 638 160 605 204 587 c 1
 200 626 181 653 181 679 c 0
 181 700 193 718 211 718 c 0
 229 718 244 707 244 683 c 0
 244 656 227 616 225 586 c 1
 271 606 287 638 320 638 c 0
 347 638 354 618 354 608 c 0
 354 578 319 571 285 571 c 0
 266 571 248 570 230 567 c 1
 264 530 313 520 313 480 c 0
 313 462 298 451 284 451 c 0
 245 451 238 516 213 555 c 1
 188 510 181 451 143 451 c 0
 126 451 114 464 114 479 c 0
 114 522 165 530 198 567 c 1
EndSplineSet
EndChar

StartChar: plus
Encoding: 43 43 8
Width: 527
GlyphClass: 2
Flags: MW
LayerCount: 2
Fore
SplineSet
289 257 m 1
 461 257 l 1
 461 208 l 1
 289 208 l 1
 289 34 l 1
 238 34 l 1
 238 208 l 1
 66 208 l 1
 66 257 l 1
 238 257 l 1
 238 431 l 1
 289 431 l 1
 289 257 l 1
EndSplineSet
EndChar

StartChar: slash
Encoding: 47 47 9
Width: 323
GlyphClass: 2
Flags: MW
LayerCount: 2
Fore
SplineSet
293 646 m 1
 56 -59 l 1
 15 -59 l 1
 252 646 l 1
 293 646 l 1
EndSplineSet
EndChar

StartChar: one
Encoding: 49 49 10
Width: 465
GlyphClass: 2
Flags: MW
LayerCount: 2
Fore
SplineSet
286 189 m 2
 286 110 288 60 295 0 c 1
 293 -3 l 1
 293 -3 265 0 245 0 c 0
 227 0 199 -3 199 -3 c 1
 198 0 l 1
 205 57 206 111 206 189 c 2
 206 437 l 2
 206 473 206 513 188 513 c 0
 168 513 119 502 74 497 c 1
 68 526 l 1
 146 550 222 589 287 610 c 1
 291 610 294 610 294 605 c 0
 292 591 286 551 286 443 c 2
 286 189 l 2
EndSplineSet
EndChar

StartChar: two
Encoding: 50 50 11
Width: 465
GlyphClass: 2
Flags: MW
LayerCount: 2
Fore
SplineSet
222 553 m 0
 194 553 165 546 145 530 c 0
 119.6 509.7 114.7 489 100.9 459 c 1
 87.8 460 l 1
 66.1 529 l 1
 88.9 559 147.3 610 238.3 610 c 0
 349.9 610 413.7 543.6 413.7 448.5 c 0
 413.7 391.9 378 327.7 341.1 278 c 0
 275 189 228 144 179.4 97 c 0
 172 89.9 161.7 79.3 161.7 70 c 0
 161.7 68 162.1 66.6 162.9 65 c 1
 190.3 67 209.5 67 244.6 67 c 0
 340.6 67 371.2 70 427.5 75 c 1
 423.8 59.8 422.6 44.2 422.6 28 c 0
 422.6 17.1 424.2 5.4 425.7 -5 c 1
 354.3 -2 324 0 252 0 c 0
 179 0 136.5 -3 62.7 -5 c 1
 57.5 3.6 52.6 19.3 52.6 34.4 c 0
 52.6 39 53.2 43.3 54.4 47 c 1
 103.5 93.7 218 194 289.7 301 c 0
 315.8 340 327.8 393.2 327.8 434.9 c 0
 327.8 505 274.4 553 222 553 c 0
EndSplineSet
EndChar

StartChar: three
Encoding: 51 51 12
Width: 465
GlyphClass: 2
Flags: MW
LayerCount: 2
Fore
SplineSet
209 29 m 0
 245 29 340 51 340 172 c 0
 340 211 327 246 301 268 c 0
 273 291 235 300 203 300 c 0
 194 300 173 300 161 298 c 1
 161 342 l 1
 175 340 186 339 198 339 c 0
 232 339 261 348 281 367 c 0
 304 389 319 421 319 465 c 0
 319 530 275 571 236 571 c 0
 176 571 144 542 120 486 c 1
 105 487 l 1
 84 551 l 1
 87 554 l 1
 112 576 168 610 245 610 c 0
 344 610 406 552 406 480 c 0
 406 397 340 339 288 327 c 1
 288 322 l 1
 365 315 426 259 426 180 c 0
 426 48 292 -10 207 -10 c 0
 127 -10 84 16 58 38 c 1
 55 41 l 1
 77 116 l 1
 92 117 l 1
 119 59 130 29 209 29 c 0
EndSplineSet
EndChar

StartChar: four
Encoding: 52 52 13
Width: 465
GlyphClass: 2
Flags: MW
LayerCount: 2
Fore
SplineSet
286 148 m 1
 80 148 l 2
 44 148 21 153 21 168 c 0
 21 178 24 189 34 207 c 0
 86 296 230 516 291 600 c 0
 291 601 295 604 295 604 c 1
 295 604 313 600 329 600 c 0
 344 600 359 604 368 604 c 0
 369 604 370 602 370 600 c 0
 365 554 364 485 364 452 c 2
 364 198 l 1
 428 198 l 2
 438 198 443 191 443 182 c 0
 443 171 428 148 414 148 c 2
 414 148 400 148 364 148 c 1
 364 90 366 58 370 0 c 0
 370 -1 369 -3 368 -3 c 0
 359 -3 342 0 326 0 c 0
 310 0 279 -3 279 -3 c 1
 278 0 l 1
 284 51 286 71 286 148 c 1
286 512 m 1
 83 198 l 1
 286 198 l 1
 286 512 l 1
EndSplineSet
EndChar

StartChar: five
Encoding: 53 53 14
Width: 465
GlyphClass: 2
Flags: MW
LayerCount: 2
Fore
SplineSet
202 -10 m 0
 126 -10 76 24 51 46 c 1
 47 49 l 1
 69 129 l 1
 83 130 l 1
 116 70 129 30 204 30 c 0
 272 30 318 87 318 179 c 0
 318 288 268 340 203 340 c 0
 156.4 340 118.9 325 79 309 c 1
 72 311.5 l 1
 104 606 l 1
 138 603 181 600 218 600 c 0
 271 600 325 603 382 610 c 1
 389 607 l 1
 373 539 l 1
 332 534 298 533 268 533 c 0
 221 533 178 537 141 542 c 1
 120 365 l 1
 142 373 188 380 229 380 c 0
 341 380 406 293 406 196 c 0
 406 78 321 -10 202 -10 c 0
EndSplineSet
EndChar

StartChar: six
Encoding: 54 54 15
Width: 465
GlyphClass: 2
Flags: MW
LayerCount: 2
Fore
SplineSet
127 277 m 1
 126 267 126 250 126 240 c 0
 126 62 202 27 255 27 c 0
 303 27 344 63 344 173 c 0
 344 222 329 318 228 318 c 0
 206 318 166 317 127 277 c 1
400 583 m 1
 331 576 275 558 224 509 c 0
 176 462 140 391 129 306 c 1
 153 336 209 358 249 358 c 0
 405 358 432 228 432 180 c 0
 432 108 390 -9 244 -9 c 0
 167 -9 46 33 46 243 c 0
 46 340 80 435 153 508 c 0
 221 577 294 605 397 611 c 1
 400 583 l 1
EndSplineSet
EndChar

StartChar: seven
Encoding: 55 55 16
Width: 465
GlyphClass: 2
Flags: MW
LayerCount: 2
Fore
SplineSet
345 525 m 1
 279.5 527 136 526.5 63 516 c 1
 65 531 68 550 68 565 c 0
 68 580 65 592 63 607 c 1
 106 601 194 600 343 600 c 0
 374 600 392 605 407 610 c 1
 424 600 l 1
 312 327 257 161 200 -9 c 1
 127 -13 l 1
 124 -7 l 1
 191 143 267 332 345 525 c 1
EndSplineSet
EndChar

StartChar: nine
Encoding: 57 57 17
Width: 465
GlyphClass: 2
Flags: MW
LayerCount: 2
Fore
SplineSet
333 323 m 1
 334 333 334 350 334 360 c 0
 334 538 258 573 205 573 c 0
 157 573 116 537 116 427 c 0
 116 378 131 282 232 282 c 0
 254 282 294 283 333 323 c 1
60 17 m 1
 129 24 185 42 236 91 c 0
 284 138 320 209 331 294 c 1
 307 264 251 242 211 242 c 0
 55 242 28 372 28 420 c 0
 28 492 70 609 216 609 c 0
 293 609 414 567 414 357 c 0
 414 260 380 165 307 92 c 0
 239 23 166 -5 63 -11 c 1
 60 17 l 1
EndSplineSet
Colour: ff00ff
EndChar

StartChar: less
Encoding: 60 60 19
Width: 487
GlyphClass: 2
Flags: MW
LayerCount: 2
Fore
SplineSet
122 239 m 1
 439 123 l 1
 439 73 l 1
 49 215 l 1
 49 263 l 1
 439 404 l 1
 439 354 l 1
 122 239 l 1
EndSplineSet
EndChar

StartChar: greater
Encoding: 62 62 21
Width: 487
GlyphClass: 2
Flags: MW
LayerCount: 2
Fore
SplineSet
366 236 m 1
 49 352 l 1
 49 402 l 1
 439 260 l 1
 439 212 l 1
 49 71 l 1
 49 121 l 1
 366 236 l 1
EndSplineSet
Colour: ff00ff
EndChar

StartChar: question
Encoding: 63 63 22
Width: 405
GlyphClass: 2
Flags: MW
LayerCount: 2
Fore
SplineSet
195 619 m 0
 139 619 98 570 72 525 c 1
 59 526 l 1
 43 593 l 1
 46 597 l 1
 70.5 617.5 131.5 659 204 659 c 0
 306 659 369 599 369 508 c 0
 369 429 310 385 263 351 c 0
 240 334 230 318 221 301 c 0
 208 276 201 252 201 228 c 2
 201 184 l 2
 201 177 188 174 180 174 c 0
 172 174 159 177 159 184 c 2
 159 230 l 2
 159 273 169 332 234 391 c 0
 274 428 294 457 294 504 c 0
 294 569 252 619 195 619 c 0
EndSplineSet
Refer: 254 46 N 1 0 0 1 70 0 2
Colour: ff80cc
EndChar

StartChar: at
Encoding: 64 64 23
Width: 895
GlyphClass: 2
Flags: MW
LayerCount: 2
Fore
SplineSet
569 316 m 0
 569 354 540 379 504 379 c 0
 487 379 444 370 414 339 c 0
 363 288 346 224 346 162 c 0
 346 114 361 70 424 70 c 0
 459 70 508 127 539 200 c 0
 552 231 569 282 569 316 c 0
583 74 m 0
 583 64 592 62 594 62 c 0
 696 62 760 109 760 275 c 0
 760 481 584 581 459 581 c 0
 307 581 139 478 139 241 c 0
 139 91 215 -125 473 -125 c 0
 558 -125 620 -102 674 -59 c 1
 687 -77 l 1
 627 -123 567 -158 454 -158 c 0
 215 -158 59 10 59 223 c 0
 59 438 244 611 469 611 c 0
 684 611 839 469 839 282 c 0
 839 168 769 27 551 27 c 0
 522 27 515 52 515 68 c 0
 515 83 522 106 530 131 c 1
 528 132 l 1
 484 58 430 29 395 29 c 0
 295 29 273 113 273 153 c 0
 273 296 400 410 506 410 c 0
 539 410 573 393 583 367 c 1
 588 391 l 1
 641 404 l 1
 656 399 l 1
 596 141 l 2
 590 114 583 80.5 583 74 c 0
EndSplineSet
EndChar

StartChar: A
Encoding: 65 65 24
Width: 629
GlyphClass: 2
Flags: MW
AnchorPoint: "below" 270 -108 basechar 0
AnchorPoint: "cedilla" 58 8 basechar 0
AnchorPoint: "above" 322 798 basechar 0
AnchorPoint: "top_punkt" 322 700 basechar 0
LayerCount: 2
Fore
SplineSet
407.3 275.5 m 1
 380.4 345.2 347.1 427.4 306 521.8 c 1
 304 521.8 l 1
 198.6 275.9 l 1
 220.6 274.7 274.1 273 303 273 c 0
 332.7 273 374.3 274 407.3 275.5 c 1
179 228.3 m 1
 143.3 140.8 112.4 58.3 96 -3 c 1
 84 0 62 0 51 0 c 0
 40 0 28 0 16 -3 c 1
 117 218 215 436 311 658 c 1
 339 658 l 1
 431 439 563 98 613 -3 c 1
 596 0 570 0 553 0 c 0
 536 0 520 0 503 -3 c 1
 496.9 19.2 474.3 97.2 425.3 228.3 c 1
 401 230 346 231 308 231 c 0
 273.5 231 204 230 179 228.3 c 1
EndSplineSet
Position2: "'cpsp' Versalabstaende 1" dx=5 dy=0 dh=10 dv=0
EndChar

StartChar: B
Encoding: 66 66 25
Width: 616
GlyphClass: 2
Flags: MW
AnchorPoint: "below" 275 -108 basechar 0
AnchorPoint: "cedilla" 257 0 basechar 0
AnchorPoint: "top_punkt" 289 700 basechar 0
AnchorPoint: "above" 282 798 basechar 0
LayerCount: 2
Fore
SplineSet
190 559 m 2
 190 371 l 1
 268 371 l 2
 351 371 408 396 408 481 c 0
 408 583 337 605 281 605 c 0
 200 605 190 592.3 190 559 c 2
190 328 m 1
 190 88 l 2
 190 55 217 40 287 40 c 0
 431.2 40 455 95.9 455 165 c 0
 455 255 400 328 283 328 c 2
 190 328 l 1
147 645 m 0
 197 645 239 648 274 648 c 0
 460 648 495 560 495 493 c 0
 495 438 453 385 402 360 c 1
 489 335 554 280 554 184 c 0
 554 98 505 -3 306 -3 c 0
 217 -3 209 0 147 0 c 0
 112 0 95 -3 95 -3 c 1
 94 0 l 1
 102 54 104 125 104 200 c 2
 104 445 l 2
 104 520 102 588 94 645 c 1
 96 648 l 1
 96 648 113 645 147 645 c 0
EndSplineSet
Position2: "'cpsp' Versalabstaende 1" dx=5 dy=0 dh=10 dv=0
EndChar

StartChar: C
Encoding: 67 67 26
Width: 677
GlyphClass: 2
Flags: MW
AnchorPoint: "below" 385 -110 basechar 0
AnchorPoint: "cedilla" 377 -7 basechar 0
AnchorPoint: "top_punkt" 371 700 basechar 0
AnchorPoint: "above" 371 798 basechar 0
LayerCount: 2
Fore
SplineSet
380 658 m 0
 502 658 598 608 598 608 c 1
 600 605 l 1
 589 562.5 585.6 545 582 494 c 1
 570 493 l 1
 529 575 456 611 366 611 c 0
 284 611 155 537 155 334 c 0
 155 178 248.2 41 375 41 c 0
 468 41 528 67 599 145 c 1
 606 142 l 1
 609.5 133 611.5 111 612.1 99.5 c 1
 545.3 18.7 458.4 -10 366 -10 c 0
 151 -10 52 142 52 315 c 0
 52 512 211 658 380 658 c 0
EndSplineSet
Position2: "'cpsp' Versalabstaende 1" dx=5 dy=0 dh=10 dv=0
EndChar

StartChar: D
Encoding: 68 68 27
Width: 710
GlyphClass: 2
Flags: MW
AnchorPoint: "below" 282 -107 basechar 0
AnchorPoint: "cedilla" 282 4 basechar 0
AnchorPoint: "top_punkt" 309 700 basechar 0
AnchorPoint: "above" 309 798 basechar 0
LayerCount: 2
Fore
SplineSet
190 82 m 2
 190 50 201 42 299 42 c 0
 440 42 555 82 555 284 c 0
 555 438 490 604 274 604 c 0
 225 604 190 599 190 564 c 2
 190 82 l 2
147 645 m 0
 211 645 248 648 312 648 c 0
 504 648 658 494 658 308 c 0
 658 62 471 -2 330 -2 c 0
 227 -2 218 0 147 0 c 0
 112 0 95 -3 95 -3 c 1
 94 0 l 1
 102 54 104 125 104 200 c 2
 104 445 l 2
 104 520 102 588 94 645 c 1
 96 648 l 1
 96 648 113 645 147 645 c 0
EndSplineSet
Position2: "'cpsp' Versalabstaende 1" dx=5 dy=0 dh=10 dv=0
EndChar

StartChar: E
Encoding: 69 69 28
Width: 538
GlyphClass: 2
Flags: MW
AnchorPoint: "cedilla" 283 4 basechar 0
AnchorPoint: "below" 283 -107 basechar 0
AnchorPoint: "top_punkt" 284 700 basechar 0
AnchorPoint: "above" 287 805 basechar 0
LayerCount: 2
Fore
SplineSet
190 200 m 2
 190 183 191 80 198 56 c 1
 332 56 480 68 480 68 c 1
 482 64 l 1
 481 56 480 41 480 31 c 0
 480 21 481 14 482 0 c 1
 480 -3 l 1
 464 -1 441 0 420 0 c 2
 147 0 l 2
 112 0 95 -3 95 -3 c 1
 94 0 l 1
 102 54 104 125 104 200 c 2
 104 445 l 2
 104 520 102 588 94 645 c 1
 96 648 l 1
 96 648 113 645 147 645 c 2
 410 645 l 2
 431 645 454 646 470 648 c 1
 472 645 l 1
 471 631 470 615 470 607 c 0
 470 598 471 589 472 581 c 1
 470 577 l 1
 470 577 332 589 198 589 c 1
 191 565 190 462 190 445 c 2
 190 367 l 1
 308 367 354 372 413 377 c 1
 416 374 l 1
 414 365 413 351 413 342 c 0
 413 333 414 319 416 310 c 1
 413 307 l 1
 344 314 238 317 190 317 c 1
 190 200 l 2
EndSplineSet
Position2: "'cpsp' Versalabstaende 1" dx=5 dy=0 dh=10 dv=0
EndChar

StartChar: F
Encoding: 70 70 29
Width: 504
GlyphClass: 2
Flags: MW
AnchorPoint: "cedilla" 151 -1 basechar 0
AnchorPoint: "below" 207 -111 basechar 0
AnchorPoint: "top_punkt" 293 700 basechar 0
AnchorPoint: "above" 292 798 basechar 0
LayerCount: 2
Fore
SplineSet
407 645 m 2
 431 645 454 646 470 648 c 1
 472 645 l 1
 471 631 470 619 470 611 c 0
 470 602 471 589 472 581 c 1
 470 577 l 1
 470 577 332 589 198 589 c 1
 191 565 190 462 190 445 c 2
 190 367 l 1
 308 367 354 372 413 377 c 1
 416 374 l 1
 414 365 413 351 413 342 c 0
 413 333 414 319 416 310 c 1
 413 307 l 1
 344 314 238 317 190 317 c 1
 190 200 l 2
 190 125 192 57 200 0 c 1
 198 -3 l 1
 198 -3 181 0 147 0 c 0
 112 0 95 -3 95 -3 c 1
 94 0 l 1
 102 54 104 125 104 200 c 2
 104 445 l 2
 104 520 102 588 94 645 c 1
 96 648 l 1
 96 648 113 645 147 645 c 2
 407 645 l 2
EndSplineSet
Position2: "'cpsp' Versalabstaende 1" dx=5 dy=0 dh=10 dv=0
EndChar

StartChar: G
Encoding: 71 71 30
Width: 717
GlyphClass: 2
Flags: MW
AnchorPoint: "cedilla" 371 2 basechar 0
AnchorPoint: "below" 381 -111 basechar 0
AnchorPoint: "top_punkt" 394 750 basechar 0
AnchorPoint: "above" 379 798 basechar 0
LayerCount: 2
Fore
SplineSet
546 117 m 2
 546 192 544 250 536 307 c 1
 538 310 l 1
 538 310 555 307 589 307 c 0
 624 307 641 310 641 310 c 1
 642 307 l 1
 634 254 632 212 632 137 c 2
 632 131 l 2
 632 120 633.3 93.7 642 83 c 1
 642 80 l 1
 574.5 23.4 492.5 -10 376 -10 c 0
 175 -10 52 144 52 317 c 0
 52 537 229 658 401 658 c 0
 523 658 629 608 629 608 c 1
 631 605 l 1
 620.3 567 614.6 540 611 489 c 1
 599 488 l 1
 554 564 477 614 387 614 c 0
 252 614 155 502 155 327 c 0
 155 195 221 34 399 34 c 0
 453 34 512 40 546 72 c 1
 546 117 l 2
EndSplineSet
Position2: "'cpsp' Versalabstaende 1" dx=5 dy=0 dh=10 dv=0
EndChar

StartChar: divide
Encoding: 247 247 37
Width: 527
GlyphClass: 2
Flags: MW
LayerCount: 2
Fore
SplineSet
218.3 366.9 m 1
 218.3 370.2 l 1
 226.1 392.4 238.1 405.2 263.5 415.5 c 1
 266.9 415.5 l 1
 291.2 406.7 304.4 393.9 312.2 370.2 c 1
 312.2 366.9 l 1
 303.6 339.9 290.6 327.5 266.9 321.6 c 1
 263.5 321.6 l 1
 237.3 327.5 225.6 338.8 218.3 366.9 c 1
218.3 98.9 m 1
 218.3 102.2 l 1
 226.1 124.4 238.1 137.2 263.5 147.5 c 1
 266.9 147.5 l 1
 291.2 138.7 304.4 125.9 312.2 102.2 c 1
 312.2 98.9 l 1
 303.6 71.9 290.6 59.5 266.9 53.6 c 1
 263.5 53.6 l 1
 237.3 59.5 225.6 70.8 218.3 98.9 c 1
EndSplineSet
Refer: 1188 8722 N 1 0 0 1 0 0 2
Colour: ff00ff
EndChar

StartChar: Eogonek
Encoding: 280 280 44
Width: 538
GlyphClass: 2
Flags: MW
LayerCount: 2
Fore
SplineSet
344 -224 m 0
 291 -224 251 -193 251 -139 c 0
 251 -91.5 291 -33.4 351.2 0 c 1
 147 0 l 2
 112 0 95 -3 95 -3 c 1
 94 0 l 1
 102 54 104 125 104 200 c 2
 104 445 l 2
 104 520 102 588 94 645 c 1
 96 648 l 1
 96 648 113 645 147 645 c 2
 410 645 l 2
 431 645 454 646 470 648 c 1
 472 645 l 1
 471 631 470 615 470 607 c 0
 470 598 471 589 472 581 c 1
 470 577 l 1
 470 577 332 589 198 589 c 1
 191 565 190 462 190 445 c 2
 190 367 l 1
 308 367 354 372 413 377 c 1
 416 374 l 1
 414 365 413 351 413 342 c 0
 413 333 414 319 416 310 c 1
 413 307 l 1
 344 314 238 317 190 317 c 1
 190 200 l 2
 190 183 191 80 198 56 c 1
 332 56 480 68 480 68 c 1
 482 64 l 1
 481 56 480 41 480 31 c 0
 480 21 481 14 482 0 c 1
 480 -3 l 1
 468.5 -1.6 453.5 -0.6 438.2 -0.2 c 1
 362.5 -4.9 311 -76.7 311 -126 c 0
 311 -158 333 -185 369 -185 c 0
 399 -185 419 -170 439 -149 c 1
 454 -157 l 1
 430 -204 380 -224 344 -224 c 0
EndSplineSet
Position2: "'cpsp' Versalabstaende 1" dx=5 dy=0 dh=10 dv=0
Colour: ff80cc
EndChar

StartChar: eogonek
Encoding: 281 281 45
Width: 453
GlyphClass: 2
Flags: MW
LayerCount: 2
Fore
SplineSet
125 273 m 1
 309 273 l 2
 319 273 323 278 323 287 c 0
 323 362 278.5 399 239 399 c 0
 207.5 399 142 377 125 273 c 1
392 104 m 1
 412 79 l 1
 401.1 64 388 50.4 373.2 38.4 c 1
 375 37 l 1
 320 -17 289 -53 289 -106 c 0
 289 -127 305 -149 331 -149 c 0
 348 -149 370 -134 384 -119 c 1
 387 -120 l 1
 401 -137 l 1
 374 -170 336 -193 302 -193 c 0
 253 -193 223 -164 223 -117 c 0
 223 -75.6 247.1 -38 279.6 -5.8 c 1
 266.1 -8.5 252.2 -10 238 -10 c 0
 170.6 -10 113.4 14.7 79 56 c 0
 45.5 96.2 34 152.3 34 209 c 0
 34 356 136 439 239 439 c 0
 371 439 412 334 412 250 c 0
 412 239 405 233 394 233 c 2
 122 233 l 1
 122 174.9 128.4 134.1 146 106 c 0
 173.5 62 220.8 49 255 49 c 0
 310 49 357 66 392 104 c 1
EndSplineSet
Colour: ff00ff
EndChar

StartChar: Hbar
Encoding: 294 294 58
Width: 726
GlyphClass: 2
Flags: MW
LayerCount: 2
Fore
SplineSet
191.7 546 m 1
 534.2 546 l 1
 532.7 581.7 530.2 614.9 526 645 c 1
 528 648 l 1
 540 646 567 645 579 645 c 0
 591 645 619 646 631 648 c 1
 632 645 l 1
 627.7 616.6 625.2 582.8 623.7 546 c 1
 677 546 l 1
 677 512 l 1
 622.7 512 l 1
 622.2 490.2 622 467.8 622 445 c 2
 622 200 l 2
 622 125 624 57 632 0 c 1
 630 -3 l 1
 618 -1 591 0 579 0 c 0
 567 0 539 -1 527 -3 c 1
 526 0 l 1
 534 54 536 125 536 200 c 2
 536 321 l 1
 190 321 l 1
 190 200 l 2
 190 125 192 57 200 0 c 1
 198 -3 l 1
 186 -1 159 0 147 0 c 0
 135 0 107 -1 95 -3 c 1
 94 0 l 1
 102 54 104 125 104 200 c 2
 104 445 l 2
 104 468 103.8 490.4 103.3 512 c 1
 41 512 l 1
 41 546 l 1
 102.2 546 l 1
 100.7 581.7 98.2 614.9 94 645 c 1
 96 648 l 1
 108 646 135 645 147 645 c 0
 159 645 187 646 199 648 c 1
 200 645 l 1
 195.7 616.6 193.2 582.8 191.7 546 c 1
190.7 512 m 1
 190.2 490.2 190 467.8 190 445 c 2
 190 365 l 1
 536 365 l 1
 536 445 l 2
 536 468 535.8 490.4 535.3 512 c 1
 190.7 512 l 1
EndSplineSet
Position2: "'cpsp' Versalabstaende 1" dx=5 dy=0 dh=10 dv=0
Colour: ff80cc
EndChar

StartChar: hbar
Encoding: 295 295 59
Width: 549
GlyphClass: 2
Flags: MW
LayerCount: 2
Fore
SplineSet
170 352 m 1
 172 349 l 1
 236 424 307 439 345 439 c 0
 435 439 469 385 469 281 c 0
 469 249 467 212 467 180 c 0
 467 104 468 57.2 476 0 c 1
 474 -3 l 1
 462 -1 439 0 427 0 c 0
 415 0 392 -1 380 -3 c 1
 378 0 l 1
 386 53.8 387 105 387 180 c 2
 387 278 l 2
 387 359 366 379 315 379 c 0
 279.5 379 221 357 170 297 c 1
 170 180 l 2
 170 104 171.5 57.2 179 0 c 1
 177 -3 l 1
 165 -1 142 0 130 0 c 0
 118 0 95 -1 83 -3 c 1
 81 0 l 1
 88.8 56 90 105.5 90 180 c 2
 90 481 l 2
 90 497.5 90 513.9 89.8 530 c 1
 26 530 l 1
 26 569 l 1
 89.1 569 l 1
 88 611.5 85.6 649.2 81 675 c 1
 83 678 l 1
 123.5 681 144.9 688 170 698 c 1
 176.3 698 179 695 179 688 c 0
 175.8 647.1 172.9 610.6 171.3 569 c 1
 341 569 l 1
 341 530 l 1
 170.2 530 l 1
 170.1 520.7 170 511.1 170 501 c 2
 170 352 l 1
EndSplineSet
Colour: ff80cc
EndChar

StartChar: itilde
Encoding: 297 297 61
Width: 260
GlyphClass: 2
Flags: MW
LayerCount: 2
Fore
SplineSet
195.1 570 m 0
 214.9 570 227.5 580 240.1 622 c 1
 261.7 616 l 1
 250.9 556 224.8 526 183.4 526 c 0
 163.6 526 144.7 538 125.8 552 c 0
 109.6 563 92.5 574 77.2 574 c 0
 53.8 574 42.1 559 33.1 526 c 1
 11.5 531 l 1
 24.1 590 44.8 620 83.5 620 c 0
 110.5 620 130.3 606 148.3 592 c 0
 162.7 580 178 570 195.1 570 c 0
EndSplineSet
Refer: 416 305 N 1 0 0 1 0 0 2
Colour: ff00ff
EndChar

StartChar: imacron
Encoding: 299 299 63
Width: 260
GlyphClass: 2
Flags: MW
LayerCount: 2
Fore
SplineSet
239.9 538 m 2
 20.3 538 l 2
 12.2 538 8.6 546 8.6 553 c 0
 8.6 565 18.5 582 28.4 582 c 2
 248.9 582 l 2
 257.9 582 261.5 574 261.5 568 c 0
 261.5 556 251.6 538 239.9 538 c 2
EndSplineSet
Refer: 416 305 N 1 0 0 1 0 0 2
Colour: ff00ff
EndChar

StartChar: ibreve
Encoding: 301 301 65
Width: 260
GlyphClass: 2
Flags: MW
LayerCount: 2
Fore
SplineSet
39.2 650 m 1
 49.1 597 87.8 560 136.4 560 c 0
 183.2 560 224.6 592 233.6 650 c 1
 257.9 638 l 1
 247.1 552 189.5 503 136.4 503 c 0
 73.4 503 27.5 553 14.9 638 c 1
 39.2 650 l 1
EndSplineSet
Refer: 416 305 N 1 0 0 1 0 0 2
Colour: ff00ff
EndChar

StartChar: Iogonek
Encoding: 302 302 66
Width: 294
GlyphClass: 2
Flags: MW
LayerCount: 2
Fore
SplineSet
92 -225 m 0
 39 -225 -1 -194 -1 -140 c 0
 -1 -93.4 37.6 -36.5 95.9 -2.9 c 1
 94 0 l 1
 102 54 104 125 104 200 c 2
 104 445 l 2
 104 520 102 588 94 645 c 1
 96 648 l 1
 108 646 135 645 147 645 c 0
 159 645 186 646 198 648 c 1
 200 645 l 1
 192 592 190 520 190 445 c 2
 190 200 l 2
 190 125 192 57 200 0 c 1
 198 -3 l 1
 194.3 -2.4 189.2 -1.8 183.5 -1.4 c 0
 109.2 -7.6 59 -78.3 59 -127 c 0
 59 -159 81 -186 117 -186 c 0
 147 -186 168 -171 187 -150 c 1
 202 -158 l 1
 178 -205 128 -225 92 -225 c 0
EndSplineSet
Position2: "'cpsp' Versalabstaende 1" dx=5 dy=0 dh=10 dv=0
Colour: ff80cc
EndChar

StartChar: iogonek
Encoding: 303 303 67
Width: 260
GlyphClass: 2
Flags: MW
LayerCount: 2
Fore
SplineSet
70 -225 m 0
 16 -225 -23 -194 -23 -140 c 0
 -23 -91.4 18.4 -31.5 81.2 1.4 c 1
 88.2 54.9 90 105.6 90 180 c 2
 90 235 l 2
 90 310 87.3 386.2 81 429 c 1
 83 432 l 1
 104.2 430.3 147.3 430.7 170 433 c 0
 177.8 433 179 432 179 423 c 0
 172.5 362 170 326 170 251 c 2
 170 180 l 2
 170 104 171.8 56.8 179 0 c 1
 177 -3 l 1
 173 -2.3 167.7 -1.7 162 -1.3 c 0
 87 -6.7 37 -77.9 37 -127 c 0
 37 -159 59 -186 95 -186 c 0
 124 -186 145 -171 164 -150 c 1
 180 -158 l 1
 156 -205 105 -225 70 -225 c 0
EndSplineSet
Refer: 670 775 N 1 0 0 1 311 22 2
Colour: ff80cc
EndChar

StartChar: uni0408
Encoding: 1032 1032 69
Width: 385
GlyphClass: 2
Flags: MW
AnchorPoint: "above" 252 806 basechar 0
AnchorPoint: "top_punkt" 251 723 basechar 0
LayerCount: 2
Fore
SplineSet
210 258 m 2
 210 445 l 2
 210 520 208 588 200 645 c 1
 202 648 l 1
 202 648 219 645 253 645 c 0
 288 645 305 648 305 648 c 1
 306 645 l 1
 298 592 296 520 296 445 c 2
 296 280 l 2
 296 165.5 286 135 233 66 c 0
 192 12 138 -10 75 -10 c 0
 56 -10 38 -6 30 -1 c 1
 29 2 l 1
 40 21 50 57 57 84 c 1
 68 85 l 1
 79 65 97 50 126 50 c 0
 205 50 210 170 210 258 c 2
EndSplineSet
EndChar

StartChar: uni0414
Encoding: 1044 1044 74
Width: 708
GlyphClass: 2
Flags: MW
LayerCount: 2
Fore
SplineSet
425 44 m 2
 443 44 450 50 453 59 c 0
 460 83 461 183 461 200 c 2
 461 445 l 2
 461 462 460 564 453 588 c 1
 446 597 442 601 427 601 c 2
 313 601 l 2
 286 601 276 591 274 566 c 0
 266 465 251 361 239 293 c 0
 217 176 192 77 192 56 c 0
 192 44 205 44 219 44 c 2
 425 44 l 2
178 0 m 2
 98 0 86 -65 75 -138 c 1
 73 -141 l 1
 41 -141 l 1
 39 -138 l 1
 27 11 l 2
 27 21 32 29 57 32 c 0
 77.1 34.4 98 32 112 47 c 0
 138 73 156 145 188 301 c 1
 210 415 222 518 222 581 c 0
 222 603 219 625 216 645 c 1
 217 648 l 1
 217 648 244 645 278 645 c 2
 504 645 l 2
 538 645 556 648 556 648 c 1
 557 645 l 1
 549 591 547 520 547 445 c 2
 547 200 l 2
 547 90 554 35 588 32 c 0
 613 30 618 21 618 11 c 2
 606 -138 l 1
 604 -141 l 1
 572 -141 l 1
 570 -138 l 1
 559 -65 547 0 467 0 c 2
 178 0 l 2
EndSplineSet
EndChar

StartChar: uni0416
Encoding: 1046 1046 75
Width: 924
GlyphClass: 2
Flags: MW
LayerCount: 2
Fore
SplineSet
249 169 m 0
 223 117 204 73 158 -4 c 1
 136 -2 136 0 111 0 c 0
 88 0 51 -2 38 -4 c 1
 35 0 l 1
 115 89 113 140 194 237 c 0
 244 297 262 325 331 337 c 1
 331 340 l 1
 290 360 275 443 233 502 c 0
 199 550 165 569 143 569 c 0
 116 569 100 562 81 548 c 1
 70 551 l 1
 42 642 l 1
 47 648 l 1
 72 655 75 658 101 658 c 0
 175 658 231 593 272 531 c 0
 329.4 444.4 334.7 361.6 417 357.2 c 1
 417 445 l 2
 417 520 415 588 407 645 c 1
 409 648 l 1
 421 646 448 645 460 645 c 0
 472 645 499 646 511 648 c 1
 513 645 l 1
 505 592 503 520 503 445 c 2
 503 357 l 1
 589.1 358.9 593.7 443 652 531 c 0
 693 593 749 658 823 658 c 0
 849 658 852 655 877 648 c 1
 882 642 l 1
 854 551 l 1
 843 548 l 1
 824 562 808 569 781 569 c 0
 759 569 725 550 691 502 c 0
 649 443 634 360 593 340 c 1
 593 337 l 1
 662 325 680 297 730 237 c 0
 811 140 809 89 889 0 c 1
 886 -4 l 1
 873 -2 836 0 813 0 c 0
 788 0 788 -2 766 -4 c 1
 720 73 701 117 675 169 c 0
 635.4 246.3 606.6 303.9 503 311.8 c 1
 503 200 l 2
 503 125 505 57 513 0 c 1
 511 -3 l 1
 499 -1 472 0 460 0 c 0
 448 0 421 -1 409 -3 c 1
 407 0 l 1
 415 54 417 125 417 200 c 2
 417 311.5 l 1
 316.7 302.4 288.1 245.3 249 169 c 0
EndSplineSet
Colour: ff80cc
EndChar

StartChar: uni0417
Encoding: 1047 1047 76
Width: 542
GlyphClass: 2
Flags: MW
LayerCount: 2
Fore
SplineSet
248 25 m 0
 318 25 405 68 405 176 c 0
 405 227 366 336 249 336 c 2
 176 336 l 2
 165 336 158 343 158 354 c 0
 158 365 165 373 176 373 c 2
 223 373 l 2
 342 373 375 451 375 506 c 0
 375 573 311 624 249 624 c 0
 126 624 103 550 79 469 c 1
 49 471 l 1
 69 646 l 1
 156 646 191 658 251 658 c 0
 344 658 455 611 455 516 c 0
 455 437 412 387 340 360 c 1
 411 340 497 299 497 192 c 0
 497 41 363 -12 245 -12 c 0
 164 -12 115 19 84 43 c 0
 57 64 36 91 36 118 c 0
 36 144 47 165 70 165 c 0
 98 165 108 152 119 120 c 0
 140 59 172 25 248 25 c 0
EndSplineSet
EndChar

StartChar: uni0418
Encoding: 1048 1048 77
Width: 728
GlyphClass: 2
Flags: MW
LayerCount: 2
Fore
SplineSet
104 445 m 2
 104 520 102 588 94 645 c 1
 96 648 l 1
 108 646 135 645 147 645 c 0
 159 645 186 646 198 648 c 1
 200 645 l 1
 192 592 190 520 190 445 c 2
 190 200 l 2
 190 155.4 190.7 113.2 193 74.4 c 1
 528.1 644.2 l 2
 528.1 644.5 528 644.7 528 645 c 2
 530 648 l 1
 542 646 569 645 581 645 c 0
 593 645 620 646 632 648 c 1
 634 645 l 1
 626 592 624 520 624 445 c 2
 624 200 l 2
 624 125 626 57 634 0 c 1
 632 -3 l 1
 620 -1 593 0 581 0 c 0
 569 0 542 -1 530 -3 c 1
 528 0 l 1
 536 54 538 125 538 200 c 2
 538 445 l 2
 538 489.3 537.3 531.2 535.1 569.8 c 1
 200 0 l 1
 198 -3 l 1
 186 -1 159 0 147 0 c 0
 135 0 108 -1 96 -3 c 1
 94 0 l 1
 102 54 104 125 104 200 c 2
 104 445 l 2
EndSplineSet
EndChar

StartChar: uni0423
Encoding: 1059 1059 83
Width: 580
GlyphClass: 2
Flags: MW
LayerCount: 2
Fore
SplineSet
120.7 115.1 m 1
 126.3 85 152.7 47 195 47 c 0
 237.7 47 253.9 81.1 278.6 138.3 c 1
 192.3 339.9 85.7 567.8 46 648 c 1
 63 645 89 645 106 645 c 0
 123 645 144 645 161 648 c 1
 169.6 618 224.1 470.1 323.2 242.5 c 1
 384.4 386.9 448.8 546.4 476 648 c 1
 488 645 515 645 526 645 c 0
 537 645 549 645 561 648 c 1
 342 161 l 2
 293.9 54.1 244 -22 154 -22 c 0
 110 -22 59.1 -3.2 39.8 20 c 1
 39.8 24.2 l 1
 60.9 44.2 87.5 86.3 106.8 118 c 1
 120.7 115.1 l 1
EndSplineSet
EndChar

StartChar: uni0426
Encoding: 1062 1062 85
Width: 702
GlyphClass: 2
Flags: MW
LayerCount: 2
Fore
SplineSet
607 200 m 2
 607 90 613.2 35 647 32 c 0
 671.9 29.8 677 20.7 677 11 c 2
 665 -138 l 1
 663 -141 l 1
 631 -141 l 1
 629 -138 l 1
 618.1 -65.4 605.7 0 526 0 c 2
 144 0 l 2
 110 0 92 -3 92 -3 c 1
 91 0 l 1
 99 54 101 125 101 200 c 2
 101 445 l 2
 101 520 98 588 90 645 c 1
 92 648 l 1
 92 648 110 645 144 645 c 0
 179 645 196 648 196 648 c 1
 197 645 l 1
 189 592 187 520 187 445 c 2
 187 200 l 2
 187 183 188 83 195 59 c 0
 198 50 205 44 223 44 c 2
 485 44 l 2
 503 44 510 50 513 59 c 0
 520 83 521 183 521 200 c 2
 521 445 l 2
 521 520 519 592 511 645 c 1
 512 648 l 1
 512 648 529 645 564 645 c 0
 598 645 616 648 616 648 c 1
 618 645 l 1
 610 588 607 520 607 445 c 2
 607 200 l 2
EndSplineSet
EndChar

StartChar: uni0427
Encoding: 1063 1063 86
Width: 633
GlyphClass: 2
Flags: MW
LayerCount: 2
Fore
SplineSet
180 445 m 2
 180 417 l 2
 180 335 220 308 292 308 c 0
 320.2 308 381.7 311.8 444 351.7 c 1
 444 445 l 2
 444 520 442 588 434 645 c 1
 436 648 l 1
 448 646 475 645 487 645 c 0
 499 645 526 646 538 648 c 1
 540 645 l 1
 532 592 530 520 530 445 c 2
 530 200 l 2
 530 125 532 57 540 0 c 1
 538 -3 l 1
 526 -1 499 0 487 0 c 0
 475 0 448 -1 436 -3 c 1
 434 0 l 1
 442 54 444 125 444 200 c 2
 444 307.6 l 1
 372.9 259.3 306.7 244 250 244 c 0
 136 244 94 323 94 422 c 2
 94 445 l 2
 94 520 92 588 84 645 c 1
 86 648 l 1
 86 648 103 645 137 645 c 0
 172 645 189 648 189 648 c 1
 190 645 l 1
 182 592 180 520 180 445 c 2
EndSplineSet
EndChar

StartChar: uni0428
Encoding: 1064 1064 87
Width: 960
GlyphClass: 2
Flags: MW
LayerCount: 2
Fore
SplineSet
859 200 m 2
 859.3 125 861 57 869 0 c 1
 867 -3 l 1
 867 -3 850 0 816 0 c 2
 147 0 l 2
 112 0 94 -3 94 -3 c 1
 93 0 l 1
 101 54 103 125 103 200 c 2
 103 445 l 2
 103 520 100 588 92 645 c 1
 94 648 l 1
 94 648 112 645 146 645 c 0
 181 645 198 648 198 648 c 1
 199 645 l 1
 191 592 189 520 189 445 c 2
 189 200 l 2
 189 183 190 83 197 59 c 0
 200 50 207 44 225 44 c 2
 401 44 l 2
 419 44 426 50 429 59 c 0
 436 83 437 183 437 200 c 2
 437 445 l 2
 437 520 434 588 426 645 c 1
 428 648 l 1
 428 648 446 645 480 645 c 0
 515 645 532 648 532 648 c 1
 533 645 l 1
 525 592 523 520 523 445 c 2
 523 200 l 2
 523 183 524 83 531 59 c 0
 534 50 541 44 559 44 c 2
 737 44 l 2
 755 44 762 50 765 59 c 0
 772 83 773 183 773 200 c 2
 773 445 l 2
 773 520 771 592 763 645 c 1
 764 648 l 1
 764 648 781 645 816 645 c 0
 850 645 868 648 868 648 c 1
 870 645 l 1
 862 588 859 520 859 445 c 2
 859 200 l 2
EndSplineSet
EndChar

StartChar: uni0429
Encoding: 1065 1065 88
Width: 948
GlyphClass: 2
Flags: MW
LayerCount: 2
Fore
SplineSet
147 0 m 2
 112 0 94 -3 94 -3 c 1
 93 0 l 1
 101 54 103 125 103 200 c 2
 103 445 l 2
 103 520 100 588 92 645 c 1
 94 648 l 1
 94 648 112 645 146 645 c 0
 181 645 198 648 198 648 c 1
 199 645 l 1
 191 592 189 520 189 445 c 2
 189 200 l 2
 189 183 190 83 197 59 c 0
 200 50 207 44 225 44 c 2
 401 44 l 2
 419 44 426 50 429 59 c 0
 436 83 437 183 437 200 c 2
 437 445 l 2
 437 520 434 588 426 645 c 1
 428 648 l 1
 428 648 446 645 480 645 c 0
 515 645 532 648 532 648 c 1
 533 645 l 1
 525 592 523 520 523 445 c 2
 523 200 l 2
 523 183 524 83 531 59 c 0
 534 50 541 44 559 44 c 2
 737 44 l 2
 755 44 762 50 765 59 c 0
 772 83 773 183 773 200 c 2
 773 445 l 2
 773 520 771 592 763 645 c 1
 764 648 l 1
 764 648 781 645 816 645 c 0
 850 645 868 648 868 648 c 1
 870 645 l 1
 862 588 859 520 859 445 c 2
 859 200 l 2
 859 90 865.2 35 899 32 c 0
 923.9 29.8 929 20.7 929 11 c 2
 917 -138 l 1
 915 -141 l 1
 883 -141 l 1
 881 -138 l 1
 870.1 -65.4 857.7 0 778 0 c 2
 147 0 l 2
EndSplineSet
EndChar

StartChar: uni042A
Encoding: 1066 1066 89
Width: 723
GlyphClass: 2
Flags: MW
LayerCount: 2
Fore
SplineSet
348 329 m 1
 348 84 l 2
 348 51 350 33 405 33 c 0
 557 33 587 109 587 183 c 0
 587 254 561 329 433 329 c 2
 348 329 l 1
302 645 m 2
 340 645 357 648 357 648 c 1
 358 645 l 1
 350 592 350.1 520 348 445 c 1
 348 373 l 1
 426 373 l 2
 642 373 688 303 687 183 c 0
 685.6 16 550 -2 429 -2 c 0
 393 -2 336 0 307 0 c 0
 273 0 253 -3 253 -3 c 1
 252 0 l 1
 260 54 262 125 262 200 c 2
 262 445 l 2
 261.8 462 261 557 254 581 c 1
 120 581 52 569 52 569 c 1
 50 573 l 1
 52 588 52 617 50 645 c 1
 52 648 l 1
 68 646 91 645 112 645 c 2
 302 645 l 2
EndSplineSet
EndChar

StartChar: uni042C
Encoding: 1068 1068 91
Width: 558
GlyphClass: 2
Flags: MW
LayerCount: 2
Fore
SplineSet
148 0 m 0
 114 0 94 -3 94 -3 c 1
 93 0 l 1
 101 54 103 125 103 200 c 2
 103 445 l 2
 103 520 100 588 92 645 c 1
 94 648 l 1
 94 648 112 645 146 645 c 0
 181 645 198 648 198 648 c 1
 199 645 l 1
 191 592 189 520 189 445 c 2
 189 373 l 1
 267 373 l 2
 513 373 528 272 528 183 c 0
 528 14 394 0 250 -2 c 0
 214 -2.5 177 0 148 0 c 0
189 329 m 1
 189 84 l 2
 189 51 191 33 246 33 c 0
 398 33 428 111 428 183 c 0
 428 250 402 329 274 329 c 2
 189 329 l 1
EndSplineSet
EndChar

StartChar: uni042D
Encoding: 1069 1069 92
Width: 604
GlyphClass: 2
Flags: MW
LayerCount: 2
Fore
SplineSet
472 307 m 1
 417 273 373 273 360 273 c 0
 298 273 255 311 196 311 c 0
 158 311 142 295 134 295 c 0
 130 295 125 298 125 307 c 0
 125 332 188 360 247 360 c 0
 313 360 342 329 400 329 c 0
 429 329 452 335 471 344 c 1
 461 550 352 621 271 621 c 0
 176 621 98 540 72 454 c 1
 42 458 l 1
 53 511 61 558 63 613 c 1
 121 616 174 658 279 658 c 0
 444 658 561 550 561 333 c 0
 561 113 445 -12 275 -12 c 0
 189 -12 133 19 102 43 c 0
 75 64 54 95 54 122 c 0
 54 148 66 165 84 165 c 0
 113 165 125 152 135 120 c 0
 159 48 214 21 286 21 c 0
 413 21 471 169 472 307 c 1
EndSplineSet
EndChar

StartChar: uni042E
Encoding: 1070 1070 93
Width: 905
GlyphClass: 2
Flags: MW
LayerCount: 2
Fore
SplineSet
572 614 m 0
 488 614 381 537 381 327 c 0
 381 135 474 32 582 32 c 0
 685 32 770 131 770 310 c 0
 770 518 697 614 572 614 c 0
104 445 m 2
 104 520 102 588 94 645 c 1
 96 648 l 1
 108 646 135 645 147 645 c 0
 159 645 186 646 198 648 c 1
 200 645 l 1
 192 592 190 520 190 445 c 2
 190 346 l 1
 286 346 l 1
 299 525 417 658 573 658 c 0
 756 658 866 527 866 329 c 0
 866 129 766 -10 574 -12 c 0
 416 -13.6 287 108 285 302 c 1
 190 302 l 1
 190 200 l 2
 190 125 192 57 200 0 c 1
 198 -3 l 1
 186 -1 159 0 147 0 c 0
 135 0 108 -1 96 -3 c 1
 94 0 l 1
 102 54 104 125 104 200 c 2
 104 445 l 2
EndSplineSet
EndChar

StartChar: uni042F
Encoding: 1071 1071 94
Width: 561
GlyphClass: 2
Flags: MW
LayerCount: 2
Fore
SplineSet
297 613 m 0
 236 613 168 596 168 478 c 0
 168 353 235 330 332 330 c 2
 380 330 l 1
 380 569 l 2
 380 598 368 613 297 613 c 0
219.2 300 m 1
 199 305.1 184.1 311.3 171 318 c 0
 117 345 71 397 71 479 c 0
 71 529 88 570 124 604 c 0
 172 649 235 652 298 652 c 0
 323 652 393 645 423 645 c 0
 457 645 474 648 474 648 c 1
 476 645 l 1
 468 588 466 520 466 445 c 2
 466 200 l 2
 466 125 468 54 476 0 c 1
 475 -3 l 1
 475 -3 458 0 423 0 c 0
 389 0 372 -3 372 -3 c 1
 370 0 l 1
 378 57 380 125 380 200 c 2
 380 286 l 1
 355.1 286 333.2 286.6 313.9 287.6 c 1
 285.4 254.7 256.4 214.9 229 176 c 0
 178 104 133 31 122 -3 c 1
 103 0 73 0 54 0 c 0
 34 0 22 0 2 -3 c 1
 0 0 l 1
 50.1 56.7 155.4 215.9 219.2 300 c 1
EndSplineSet
EndChar

StartChar: uni0447
Encoding: 1095 1095 95
Width: 510
GlyphClass: 2
Flags: MW
LayerCount: 2
Fore
SplineSet
68 291 m 0
 68 366.5 65 376 57 429 c 1
 58 432 l 1
 58 432 72 429 107 429 c 0
 141 429 155 432 155 432 c 1
 157 429 l 1
 149 372 148 368 148 293 c 0
 148 215 155 181 217 181 c 0
 265 181 301.5 192.5 333 223 c 1
 333 250 l 2
 333 321 332 375 323 429 c 1
 325 432 l 1
 337 430 361 429 373 429 c 0
 385 429 409 430 421 432 c 1
 423 429 l 1
 414 372 414 325 413 250 c 1
 413 179 l 2
 413 104 414 57 423 0 c 1
 421 -3 l 1
 409 -1 385 0 373 0 c 0
 361 0 337 -1 325 -3 c 1
 323 0 l 1
 332 53.9 333 104.8 333 178.5 c 1
 294.9 150.5 263 137 204 137 c 0
 106 137 68 185 68 291 c 0
EndSplineSet
EndChar

StartChar: uni0448
Encoding: 1096 1096 96
Width: 807
GlyphClass: 2
Flags: MW
LayerCount: 2
Fore
SplineSet
709 200 m 2
 709 125.5 711 54 719 0 c 1
 718 -3 l 1
 718 -3 700 0 666 0 c 2
 140 0 l 2
 106 0 88 -3 88 -3 c 1
 87 0 l 1
 95 54 97 125 97 200 c 2
 97 250 l 2
 97 325 96 372 87 429 c 1
 89 432 l 1
 89 432 103 429 137 429 c 0
 172 429 186 432 186 432 c 1
 187 429 l 1
 178 375 177 324 177 250 c 2
 177 200 l 2
 177 183 178 78 185 54 c 1
 192 45 196 41 211 41 c 2
 329 41 l 2
 344 41 348 45 355 54 c 1
 362 78 363 183 363 200 c 2
 363 250 l 2
 363 325 362 372 353 429 c 1
 355 432 l 1
 355 432 369 429 403 429 c 0
 438 429 452 432 452 432 c 1
 453 429 l 1
 444 375 443 324 443 250 c 2
 443 200 l 2
 443 183 444 78 451 54 c 1
 458 45 462 41 477 41 c 2
 609 41 l 2
 624 41 614 45 621 54 c 1
 628 78 629 183 629 200 c 2
 629 249 l 2
 629 325 627.5 372 619 429 c 1
 621 432 l 1
 621 432 635.7 429 670 429 c 0
 705 429 719 432 719 432 c 1
 720 429 l 1
 711.5 375.5 709 324.1 709 249 c 2
 709 200 l 2
EndSplineSet
EndChar

StartChar: uni0449
Encoding: 1097 1097 97
Width: 813
GlyphClass: 2
Flags: MW
LayerCount: 2
Fore
SplineSet
140 0 m 2
 106 0 88 -3 88 -3 c 1
 87 0 l 1
 95 54 97 125 97 200 c 2
 97 250 l 2
 97 325 96 372 87 429 c 1
 89 432 l 1
 89 432 103 429 137 429 c 0
 172 429 186 432 186 432 c 1
 187 429 l 1
 178 375 177 324 177 250 c 2
 177 200 l 2
 177 183 178 78 185 54 c 1
 192 45 196 41 211 41 c 2
 329 41 l 2
 344 41 348 45 355 54 c 1
 362 78 363 183 363 200 c 2
 363 250 l 2
 363 325 362 372 353 429 c 1
 355 432 l 1
 355 432 369 429 403 429 c 0
 438 429 452 432 452 432 c 1
 453 429 l 1
 444 375 443 324 443 250 c 2
 443 200 l 2
 443 183 444 78 451 54 c 1
 458 45 462 41 477 41 c 2
 609 41 l 2
 624 41 614 45 621 54 c 1
 628 78 629 183 629 200 c 2
 629 249 l 2
 629 325 627.5 372 619 429 c 1
 621 432 l 1
 621 432 635.7 429 670 429 c 0
 705 429 719 432 719 432 c 1
 720 429 l 1
 711.5 375.5 709 324.1 709 249 c 2
 709 200 l 2
 709 90 715.2 35 749 32 c 0
 773.9 29.8 779 20.7 779 11 c 2
 767 -125 l 1
 765 -128 l 1
 733 -128 l 1
 731 -125 l 1
 720.1 -52.4 707.7 0 628 0 c 2
 140 0 l 2
EndSplineSet
EndChar

StartChar: uni044A
Encoding: 1098 1098 98
Width: 545
GlyphClass: 2
Flags: MW
LayerCount: 2
Fore
SplineSet
428 126 m 0
 428 179 411 219 340 219 c 2
 273 219 l 1
 273 79 l 2
 273 44 290 34 336 34 c 0
 386 34 428 44 428 126 c 0
193 250 m 2
 193 321 190 374 190 374 c 1
 65 374 34 363 34 363 c 1
 32 366 l 1
 34 380 34 403 32 429 c 1
 34 431 l 1
 49 430 70 429 89 429 c 2
 233 429 l 2
 267 429 281 432 281 432 c 1
 283 429 l 1
 274 372 273 334 273 259 c 2
 273 256 l 1
 350 256 l 2
 446 256 514 230 514 136 c 0
 514 52 452 -2 341 -2 c 0
 298.9 -2 275.1 0 233 0 c 0
 198 0 184 -3 184 -3 c 1
 183 0 l 1
 192 54 193 105 193 179 c 2
 193 250 l 2
EndSplineSet
EndChar

StartChar: uni044C
Encoding: 1100 1100 100
Width: 453
GlyphClass: 2
Flags: MW
LayerCount: 2
Fore
SplineSet
336 126 m 0
 336 179 319 219 248 219 c 2
 181 219 l 1
 181 79 l 2
 181 44 198 34 244 34 c 0
 294 34 336 44 336 126 c 0
181 259 m 2
 181 256 l 1
 258 256 l 2
 354 256 422 230 422 136 c 0
 422 52 360 -2 249 -2 c 0
 206.9 -2 183.1 0 141 0 c 0
 106 0 92 -3 92 -3 c 1
 91 0 l 1
 100 54 101 105 101 179 c 2
 101 250 l 2
 101 321 100 375 91 429 c 1
 92 432 l 1
 92 432 106 429 141 429 c 0
 175 429 189 432 189 432 c 1
 191 429 l 1
 182 372 181 334 181 259 c 2
EndSplineSet
EndChar

StartChar: uni044D
Encoding: 1101 1101 101
Width: 434
GlyphClass: 2
Flags: MW
LayerCount: 2
Fore
SplineSet
300.5 245 m 1
 291.5 337.5 243.4 399 184 399 c 0
 139.9 399 99 370 78 325 c 1
 65 326 l 1
 42 408 l 1
 44 411 l 1
 75 427 133 439 183 439 c 0
 312 439 390 354 390 218 c 0
 390 78.9 290 -10 189 -10 c 0
 139 -10 75 2 44 18 c 1
 42 21 l 1
 65 103 l 1
 78 104 l 1
 99 59 135.9 30 180 30 c 0
 250.5 30 298.5 91.5 301.8 201 c 1
 135 201 l 2
 132 201 131 202 131 205 c 2
 138 241 l 2
 138.7 244.8 140 245 142 245 c 2
 300.5 245 l 1
EndSplineSet
EndChar

StartChar: uni044E
Encoding: 1102 1102 102
Width: 686
GlyphClass: 2
Flags: MW
LayerCount: 2
Fore
SplineSet
454 399 m 0
 380 399 353 313 353 226 c 0
 353 149 371 30 465 30 c 0
 506 30 564 63 564 195 c 0
 564 341 532 399 454 399 c 0
93 250 m 2
 93 321 92 375 83 429 c 1
 85 432 l 1
 97 430 121 429 133 429 c 0
 145 429 169 430 181 432 c 1
 183 429 l 1
 174 372 174 325 173 250 c 1
 173 237 l 1
 269 237 l 1
 279 356 344 439 459 439 c 0
 603 439 649 321 649 217 c 0
 649 117 604 -10 465 -10 c 0
 337 -10 270 97 268 198 c 1
 173 198 l 1
 173 179 l 2
 173 104 174 57 183 0 c 1
 181 -3 l 1
 169 -1 145 0 133 0 c 0
 121 0 97 -1 85 -3 c 1
 83 0 l 1
 92 54 93 105 93 179 c 2
 93 250 l 2
EndSplineSet
EndChar

StartChar: uni044F
Encoding: 1103 1103 103
Width: 444
GlyphClass: 2
Flags: MW
LayerCount: 2
Fore
SplineSet
283 230 m 1
 283 362 l 2
 283 394 253 398 214 398 c 0
 140 398 123 368 123 321 c 0
 123 271 146 230 203 230 c 2
 283 230 l 1
163.7 194.1 m 1
 158.9 194.1 154 194 149 194 c 0
 84 194 38 244 38 310 c 0
 38 367 59 432 201 432 c 0
 238 432 275.4 429 323 429 c 0
 358 429 371 432 371 432 c 1
 373 429 l 1
 364 375 363 324 363 251 c 2
 363 178 l 2
 363 108 364 54 373 0 c 1
 372 -3 l 1
 372 -3 358 0 323 0 c 0
 289 0 275 -3 275 -3 c 1
 273 0 l 1
 282 57 283 95 283 169 c 2
 283 194.6 l 1
 224.1 187.2 211.2 161.4 187 113 c 0
 169 78 156 49 126 -3 c 1
 112 -1 79 0 63 0 c 0
 47 0 22 -1 14 -3 c 1
 12 0 l 1
 65 59 77 94 131 158 c 0
 143.1 172.7 153.4 184.6 163.7 194.1 c 1
EndSplineSet
EndChar

StartChar: uni04AE
Encoding: 1198 1198 104
Width: 582
GlyphClass: 2
Flags: W
LayerCount: 2
Fore
SplineSet
333 285 m 1
 334 186 336 45 340 -3 c 1
 328 -1 302 0 290 0 c 0
 278 0 252 -1 240 -3 c 1
 245 52 247 177 247 275 c 1
 209 340 56 588 16 648 c 1
 33 646 56 645 73 645 c 0
 90 645 113 646 130 648 c 1
 184 543 242 449 305 340 c 1
 363 431 430 543 480 648 c 1
 492 646 509 645 522 645 c 0
 534 645 551 646 564 648 c 1
 443 463 374 365 333 285 c 1
EndSplineSet
Colour: ff00ff
EndChar

StartChar: uni04D8
Encoding: 1240 1240 113
Width: 644
GlyphClass: 2
Flags: MW
LayerCount: 2
Fore
SplineSet
515 314 m 0
 515 470 421.9 607 295.1 607 c 0
 202.1 607 142.1 581 71.1 503 c 1
 64.1 506 l 1
 60.6 515 58.6 537 58 548.5 c 1
 124.8 629.3 211.7 658 304.1 658 c 0
 519.1 658 618 506 618 333 c 0
 618 138 509 -10 316 -10 c 0
 124 -10 46 128 35 270 c 1
 514 270 l 1
 515 281 515 300 515 314 c 0
127 226 m 1
 158 96 225 30 323 30 c 0
 429 30 487 126 505 226 c 1
 127 226 l 1
EndSplineSet
Colour: ff00ff
EndChar

StartChar: uni04D9
Encoding: 1241 1241 114
Width: 453
GlyphClass: 2
Flags: MW
LayerCount: 2
Fore
SplineSet
303 155 m 1
 119 155 l 2
 109 155 105 150 105 141 c 0
 105 66 149.5 29 189 29 c 0
 220.5 29 286 51 303 155 c 1
36 324 m 1
 16 349 l 1
 54 401 118 438 190 438 c 0
 257.4 438 314.6 413.3 349 372 c 0
 382.5 331.8 394 275.7 394 219 c 0
 394 72 292 -11 189 -11 c 0
 57 -11 16 94 16 178 c 0
 16 189 23 195 34 195 c 2
 306 195 l 1
 306 253.1 299.6 293.9 282 322 c 0
 254.5 366 207.2 379 173 379 c 0
 118 379 71 362 36 324 c 1
EndSplineSet
Colour: ff00ff
EndChar

StartChar: uni04E0
Encoding: 1248 1248 117
Width: 608
GlyphClass: 2
Flags: MW
LayerCount: 2
Fore
SplineSet
291 -170 m 0
 406 -170 465 -58 465 42 c 0
 465 189 329 250 260 250 c 0
 244 250 233 250 219 247 c 1
 432 579 l 2
 436.9 586.7 434 591 429 591 c 0
 328.5 591 210.5 581.5 74 570 c 1
 72 573 l 1
 73 581 74 596 74 606 c 0
 74 616 73 631 72 645 c 1
 74 648 l 1
 90 646 113 645 135 645 c 2
 439 645 l 2
 470 645 548.5 648.8 565 651 c 0
 569.5 651 571 649 571 645 c 0
 571 634 559.9 619.7 541 591 c 2
 342 289 l 1
 487 277 568 184 568 45 c 0
 568 -83.5 484 -217 286 -217 c 0
 164 -217 57 -180 57 -180 c 1
 55 -177 l 1
 66 -134.5 69.4 -105 73 -54 c 1
 102.5 -50 l 1
 143.5 -132 224.5 -170 291 -170 c 0
EndSplineSet
Colour: ff00ff
EndChar

StartChar: uni04E1
Encoding: 1249 1249 118
Width: 409
GlyphClass: 2
Flags: MW
LayerCount: 2
Fore
SplineSet
76 100 m 1
 68 111 l 1
 267 379 l 1
 166 376 l 2
 142 375 118 374 93 373 c 2
 22 368 l 1
 20 371 l 1
 21 382 22 392 22 402 c 2
 20 429 l 1
 22 432 l 1
 37 430 56 429 78 429 c 2
 302 429 l 2
 329 429 361 432 376 432 c 0
 379 432 383 430 383 428 c 0
 383 424 378.6 414.3 358 387 c 2
 184.8 158 l 1
 194.8 159 207 160 218 160 c 0
 317 160 382 96 382 -10 c 0
 382 -123 312 -222 175 -222 c 0
 111 -222 67 -205 28 -176 c 1
 38 -156 45 -130 49 -100 c 1
 62 -99 l 1
 88 -147 124 -184 177 -184 c 0
 249 -184 302 -111 302 -16 c 0
 302 67 264 114 186 114 c 0
 139 114 110 110 76 100 c 1
EndSplineSet
Colour: ff00ff
EndChar

StartChar: uni04E8
Encoding: 1256 1256 121
Width: 741
GlyphClass: 2
Flags: MW
LayerCount: 2
Fore
SplineSet
689 329 m 0
 689 129 560 -10 369 -10 c 0
 197 -10 52 113 52 310 c 0
 52 506 189 658 368 658 c 0
 548 658 689 527 689 329 c 0
585.8 326 m 1
 542 279.4 486.9 266 446 266 c 0
 354 266 330 312 255 312 c 0
 230.5 312 189.3 308.5 156.2 293.9 c 1
 168.5 123.4 276.1 34 389 34 c 0
 503 34 586 131 586 310 c 0
 586 315.4 585.9 320.7 585.8 326 c 1
583.6 366 m 1
 568.5 535.3 482.7 614 355 614 c 0
 260.7 614 158.7 539.7 155.1 338.1 c 1
 193.1 359.9 241.6 370 273 370 c 0
 371 370 401 323 464 323 c 0
 498.8 323 551.2 338.1 583.6 366 c 1
EndSplineSet
Colour: ff00ff
EndChar

StartChar: uni04E9
Encoding: 1257 1257 122
Width: 500
GlyphClass: 2
Flags: MW
AnchorPoint: "below" 246 -107 basechar 0
AnchorPoint: "top_punkt" 245 550 basechar 0
AnchorPoint: "above" 236 645 basechar 0
LayerCount: 2
Fore
SplineSet
38 205 m 0
 38 347 123 439 254 439 c 0
 389 439 462 350 462 214 c 0
 462 83 382 -10 250 -10 c 0
 117 -10 38 85 38 205 c 0
373.8 214.9 m 1
 352.2 201.1 311.1 179 274 179 c 0
 231 179 197 207 162 207 c 0
 154.3 207 138.6 204.1 126.6 202 c 1
 131.1 126.6 161.8 30 259 30 c 0
 326 30 374 100.9 374 196 c 0
 374 202.4 373.9 208.7 373.8 214.9 c 1
372.7 242.1 m 1
 366.9 337.4 338.9 399 247 399 c 0
 156.1 399 127.8 314.8 126.1 230.5 c 1
 149.2 240.5 185.7 249 213 249 c 0
 258 249 280 229 318 229 c 0
 338 229 358 235.6 372.7 242.1 c 1
EndSplineSet
Colour: ff80cc
EndChar

StartChar: uni1E14
Encoding: 7700 7700 148
Width: 538
GlyphClass: 2
Flags: MW
LayerCount: 2
Fore
SplineSet
20.9 831.1 m 1
 114.1 757.2 l 2
 122.6 750.2 125.6 744.9 125.6 738.7 c 0
 125.6 731.7 120.3 725.5 114.1 725.5 c 0
 107.9 725.5 97.2 728.1 81 736 c 2
 -37.6 791.5 l 1
 -23.5 807.1 -5.4 820.9 20.9 831.1 c 1
EndSplineSet
Refer: 1401 772 N 1 0 0 1 515 195 2
Refer: 28 69 N 1 0 0 1 0 0 2
Colour: ff00ff
EndChar

StartChar: uni1E15
Encoding: 7701 7701 149
Width: 453
GlyphClass: 2
Flags: MW
LayerCount: 2
Fore
SplineSet
212.2 765.2 m 1
 268.2 651.8 l 2
 272.2 642.8 273 636.5 273 630.2 c 0
 273 625.7 267.4 620.3 261 620.3 c 0
 256.2 620.3 250.6 624.8 237.8 638.3 c 2
 146.6 736.4 l 1
 148.2 746.3 l 1
 154.6 751.7 173 767 200.2 767 c 0
 204.2 767 209 766.1 212.2 765.2 c 1
EndSplineSet
Refer: 414 275 N 1 0 0 1 0 0 2
Colour: ff00ff
EndChar

StartChar: uni1E16
Encoding: 7702 7702 150
Width: 538
GlyphClass: 2
Flags: MW
LayerCount: 2
Fore
SplineSet
535.1 831.9 m 1
 557.2 820.2 573.1 804.9 582.9 786.1 c 1
 472 735 l 2
 455.8 727.1 446.5 724.5 439.6 724.5 c 0
 432.7 724.5 428.1 730.7 428.1 737.7 c 0
 428.1 743.9 429.6 748.3 439.6 756.2 c 2
 535.1 831.9 l 1
EndSplineSet
Refer: 1401 772 N 1 0 0 1 458 195 2
Refer: 28 69 N 1 0 0 1 0 0 2
Colour: ff00ff
EndChar

StartChar: uni1E17
Encoding: 7703 7703 151
Width: 453
GlyphClass: 2
Flags: MW
LayerCount: 2
Fore
SplineSet
264.4 759.2 m 1
 266.8 760.1 271.6 761 275.6 761 c 0
 280.7 761 301.2 760.1 319.6 740.3 c 1
 322 730.4 l 1
 230 632.3 l 2
 218 618.8 211.6 615.2 206 615.2 c 0
 200.4 615.2 194.8 620.6 194.8 626.9 c 0
 194.8 637 197.5 640.6 204 652.1 c 2
 264.4 759.2 l 1
EndSplineSet
Refer: 414 275 N 1 0 0 1 0 0 2
Colour: ff00ff
EndChar

StartChar: uni1E27
Encoding: 7719 7719 167
Width: 549
GlyphClass: 2
Flags: MW
LayerCount: 2
Fore
SplineSet
345 572 m 0
 345 597 365 618 390 618 c 0
 415 618 436 597 436 572 c 0
 436 547 415 527 390 527 c 0
 365 527 345 547 345 572 c 0
208 572 m 0
 208 597 228 618 253 618 c 0
 278 618 298 597 298 572 c 0
 298 547 278 527 253 527 c 0
 228 527 208 547 208 572 c 0
EndSplineSet
Refer: 286 104 N 1 0 0 1 0 0 2
Colour: ff80cc
EndChar

StartChar: uni1E28
Encoding: 7720 7720 168
Width: 726
GlyphClass: 2
Flags: MW
LayerCount: 2
Fore
SplineSet
536 445 m 2
 536 520 534 588 526 645 c 1
 528 648 l 1
 540 646 567 645 579 645 c 0
 591 645 619 646 631 648 c 1
 632 645 l 1
 624 592 622 520 622 445 c 2
 622 200 l 2
 622 125 624 57 632 0 c 1
 630 -3 l 1
 618 -1 591 0 579 0 c 0
 567 0 539 -1 527 -3 c 1
 526 0 l 1
 534 54 536 125 536 200 c 2
 536 321 l 1
 190 321 l 1
 190 200 l 2
 190 125 192 57 200 0 c 1
 198 -3 l 1
 194.6 -2.4 190 -1.9 184.9 -1.5 c 1
 162 -63 l 1
 170 -61 179 -60 188 -60 c 0
 228 -60 259 -84 259 -122 c 0
 259 -165 213 -196 152 -196 c 0
 120 -196 103 -190 78 -179 c 1
 78 -167 81 -160 88 -153 c 1
 115 -163 126 -167 146 -167 c 0
 176 -167 197 -153 197 -127 c 0
 197 -106 187 -92 164 -92 c 0
 145 -92 135 -93 119 -98 c 1
 113 -92 l 1
 151.3 -0 l 1
 149.7 0 148.3 0 147 0 c 0
 135 0 107 -1 95 -3 c 1
 94 0 l 1
 102 54 104 125 104 200 c 2
 104 445 l 2
 104 520 102 588 94 645 c 1
 96 648 l 1
 108 646 135 645 147 645 c 0
 159 645 187 646 199 648 c 1
 200 645 l 1
 192 592 190 520 190 445 c 2
 190 365 l 1
 536 365 l 1
 536 445 l 2
EndSplineSet
Colour: ff00ff
EndChar

StartChar: uni1E29
Encoding: 7721 7721 169
Width: 549
GlyphClass: 2
Flags: MW
LayerCount: 2
Fore
SplineSet
135 -90 m 0
 116 -90 106 -91 90 -96 c 1
 84 -90 l 1
 121.4 -0.1 l 1
 109 -0.4 92.5 -1.4 83 -3 c 1
 81 0 l 1
 88.8 56 90 105.5 90 180 c 2
 90 481 l 2
 90 557 88.7 632.3 81 675 c 1
 83 678 l 1
 123.5 681 144.9 688 170 698 c 1
 176.3 698 179 695 179 688 c 0
 174.2 626.5 170 575 170 501 c 2
 170 352 l 1
 172 349 l 1
 236 424 307 439 345 439 c 0
 435 439 469 385 469 281 c 0
 469 249 467 212 467 180 c 0
 467 104 468 57.2 476 0 c 1
 474 -3 l 1
 462 -1 439 0 427 0 c 0
 415 0 392 -1 380 -3 c 1
 378 0 l 1
 386 53.8 387 105 387 180 c 2
 387 278 l 2
 387 359 366 379 315 379 c 0
 279.5 379 221 357 170 297 c 1
 170 180 l 2
 170 104 171.5 57.2 179 0 c 1
 177 -3 l 1
 171.4 -2.1 163.5 -1.4 155.4 -0.9 c 1
 133 -61 l 1
 141 -59 150 -58 159 -58 c 0
 199 -58 230 -82 230 -120 c 0
 230 -163 184 -194 123 -194 c 0
 91 -194 74 -188 49 -177 c 1
 49 -165 52 -158 59 -151 c 1
 86 -161 97 -165 117 -165 c 0
 147 -165 168 -151 168 -125 c 0
 168 -104 158 -90 135 -90 c 0
EndSplineSet
Colour: ff00ff
EndChar

StartChar: uni1E2E
Encoding: 7726 7726 174
Width: 294
GlyphClass: 2
Flags: MW
LayerCount: 2
Fore
SplineSet
225.1 889.9 m 1
 247.2 878.2 263.1 862.9 272.9 844.1 c 1
 162 793 l 2
 145.8 785.1 136.5 782.5 129.6 782.5 c 0
 122.7 782.5 118.1 788.7 118.1 795.7 c 0
 118.1 801.9 119.6 806.3 129.6 814.2 c 2
 225.1 889.9 l 1
EndSplineSet
Refer: 355 207 N 1 0 0 1 0 0 2
Colour: ff00ff
EndChar

StartChar: uni1E2F
Encoding: 7727 7727 175
Width: 260
GlyphClass: 2
Flags: MW
LayerCount: 2
Fore
SplineSet
188 740 m 1
 190.3 740.9 194.8 741.8 198.7 741.8 c 0
 203.6 741.8 223.4 741 241.1 721.6 c 1
 243.4 711.9 l 1
 154.8 616 l 2
 143.3 602.8 137.2 599.2 131.8 599.2 c 0
 126.4 599.2 121 604.5 121 610.7 c 0
 121 620.6 123.5 624 129.8 635.3 c 2
 188 740 l 1
EndSplineSet
Refer: 387 239 N 1 0 0 1 0 0 2
Colour: ff00ff
EndChar

StartChar: uni1E4C
Encoding: 7756 7756 204
Width: 741
GlyphClass: 2
Flags: MW
LayerCount: 2
Fore
SplineSet
608.1 804.9 m 1
 630.2 793.2 646.1 777.9 655.9 759.1 c 1
 545 708 l 2
 528.8 700.1 519.5 697.5 512.6 697.5 c 0
 505.7 697.5 501.1 703.7 501.1 710.7 c 0
 501.1 716.9 502.6 721.3 512.6 729.2 c 2
 608.1 804.9 l 1
400.7 744.8 m 0
 419.4 744.8 431.3 755.8 443.2 802 c 1
 463.5 795.4 l 1
 453.3 729.4 428.7 696.4 389.6 696.4 c 0
 370.9 696.4 353 709.6 335.2 725 c 0
 319.9 737.1 303.8 749.2 289.3 749.2 c 0
 267.2 749.2 256.2 732.7 247.7 696.4 c 1
 227.2 701.9 l 1
 239.1 766.8 258.7 799.8 295.2 799.8 c 0
 320.7 799.8 339.5 784.4 356.5 769 c 0
 370.1 755.8 384.5 744.8 400.7 744.8 c 0
EndSplineSet
Refer: 262 79 N 1 0 0 1 0 0 2
Colour: ff00ff
EndChar

StartChar: uni1E4D
Encoding: 7757 7757 205
Width: 500
GlyphClass: 2
Flags: MW
LayerCount: 2
Fore
SplineSet
351 750 m 1
 353.3 750.9 357.8 751.8 361.7 751.8 c 0
 366.6 751.8 386.4 751 404.1 731.6 c 1
 406.4 721.9 l 1
 317.8 626 l 2
 306.3 612.8 300.2 609.2 294.8 609.2 c 0
 289.4 609.2 284 614.5 284 620.7 c 0
 284 630.6 286.5 634 292.8 645.3 c 2
 351 750 l 1
EndSplineSet
Refer: 669 771 N 1 0 0 1 398 -70 2
Refer: 293 111 N 1 0 0 1 0 0 2
Colour: ff00ff
EndChar

StartChar: uni1E4E
Encoding: 7758 7758 206
Width: 741
GlyphClass: 2
Flags: MW
LayerCount: 2
Fore
SplineSet
107 752 m 0
 107 777 128 798 152 798 c 0
 177 798 198 777 198 752 c 0
 198 728 177 707 152 707 c 0
 128 707 107 728 107 752 c 0
516 752 m 0
 516 777 537 798 562 798 c 0
 587 798 607 777 607 752 c 0
 607 728 587 707 562 707 c 0
 537 707 516 728 516 752 c 0
405.7 744.8 m 0
 424.4 744.8 436.3 755.8 448.2 802 c 1
 468.5 795.4 l 1
 458.3 729.4 433.7 696.4 394.6 696.4 c 0
 375.9 696.4 358 709.6 340.2 725 c 0
 324.9 737.1 308.8 749.2 294.3 749.2 c 0
 272.2 749.2 261.2 732.7 252.7 696.4 c 1
 232.2 701.9 l 1
 244.1 766.8 263.7 799.8 300.2 799.8 c 0
 325.7 799.8 344.5 784.4 361.5 769 c 0
 375.1 755.8 389.5 744.8 405.7 744.8 c 0
EndSplineSet
Refer: 262 79 N 1 0 0 1 0 0 2
Colour: ff80cc
EndChar

StartChar: uni1E50
Encoding: 7760 7760 208
Width: 741
GlyphClass: 2
Flags: MW
LayerCount: 2
Fore
SplineSet
95.9 805.1 m 1
 189.1 731.2 l 2
 197.6 724.2 200.6 718.9 200.6 712.7 c 0
 200.6 705.7 195.3 699.5 189.1 699.5 c 0
 182.9 699.5 172.2 702.1 156 710 c 2
 37.4 765.5 l 1
 51.5 781.1 69.6 794.9 95.9 805.1 c 1
450.8 733 m 2
 243.5 733 l 2
 235.8 733 232.4 741 232.4 748 c 0
 232.4 760 241.8 777 251.1 777 c 2
 459.3 777 l 2
 467.8 777 471.2 769 471.2 763 c 0
 471.2 751 461.9 733 450.8 733 c 2
EndSplineSet
Refer: 262 79 N 1 0 0 1 0 0 2
Colour: ff00ff
EndChar

StartChar: uni1E51
Encoding: 7761 7761 209
Width: 500
GlyphClass: 2
Flags: MW
LayerCount: 2
Fore
SplineSet
213.9 758 m 1
 267.8 647.2 l 2
 271.6 638.4 272.4 632.2 272.4 626 c 0
 272.4 621.6 267 616.4 260.8 616.4 c 0
 256.2 616.4 250.8 620.8 238.5 634 c 2
 150.7 729.9 l 1
 152.3 739.6 l 1
 158.5 744.9 176.1 759.8 202.3 759.8 c 0
 206.1 759.8 210.8 758.9 213.9 758 c 1
EndSplineSet
Refer: 444 333 N 1 0 0 1 0 0 2
Colour: ff00ff
EndChar

StartChar: uni1E52
Encoding: 7762 7762 210
Width: 741
GlyphClass: 2
Flags: MW
LayerCount: 2
Fore
SplineSet
603.1 804.9 m 1
 625.2 793.2 641.1 777.9 650.9 759.1 c 1
 540 708 l 2
 523.8 700.1 514.5 697.5 507.6 697.5 c 0
 500.7 697.5 496.1 703.7 496.1 710.7 c 0
 496.1 716.9 497.6 721.3 507.6 729.2 c 2
 603.1 804.9 l 1
428.8 733 m 2
 221.5 733 l 2
 213.8 733 210.4 741 210.4 748 c 0
 210.4 760 219.8 777 229.1 777 c 2
 437.3 777 l 2
 445.8 777 449.2 769 449.2 763 c 0
 449.2 751 439.9 733 428.8 733 c 2
EndSplineSet
Refer: 262 79 N 1 0 0 1 0 0 2
Colour: ff00ff
EndChar

StartChar: uni1E53
Encoding: 7763 7763 211
Width: 500
GlyphClass: 2
Flags: MW
LayerCount: 2
Fore
SplineSet
273 767 m 1
 275.3 767.9 279.8 768.8 283.7 768.8 c 0
 288.6 768.8 308.4 768 326.1 748.6 c 1
 328.4 738.9 l 1
 239.8 643 l 2
 228.3 629.8 222.2 626.2 216.8 626.2 c 0
 211.4 626.2 206 631.5 206 637.7 c 0
 206 647.6 208.5 651 214.8 662.3 c 2
 273 767 l 1
EndSplineSet
Refer: 444 333 N 1 0 0 1 0 0 2
Colour: ff00ff
EndChar

StartChar: uni1E65
Encoding: 7781 7781 229
Width: 396
GlyphClass: 2
Flags: MW
LayerCount: 2
Fore
SplineSet
51.5 637.3 m 0
 51.5 661.6 73.1 683.2 97.4 683.2 c 0
 121.7 683.2 143.3 661.6 143.3 637.3 c 0
 143.3 613 121.7 591.4 97.4 591.4 c 0
 73.1 591.4 51.5 613 51.5 637.3 c 0
EndSplineSet
Refer: 667 769 N 1 0 0 1 392 -37 2
Refer: 1994 115 N 1 0 0 1 0 0 2
Colour: ff00ff
EndChar

StartChar: uni1E67
Encoding: 7783 7783 231
Width: 396
GlyphClass: 2
Flags: MW
LayerCount: 2
Fore
SplineSet
149.5 646.3 m 0
 149.5 670.6 171.1 692.2 195.4 692.2 c 0
 219.7 692.2 241.3 670.6 241.3 646.3 c 0
 241.3 622 219.7 600.4 195.4 600.4 c 0
 171.1 600.4 149.5 622 149.5 646.3 c 0
EndSplineSet
Refer: 464 353 N 1 0 0 1 0 0 2
Colour: ff00ff
EndChar

StartChar: uni1E78
Encoding: 7800 7800 248
Width: 692
GlyphClass: 2
Flags: MW
LayerCount: 2
Fore
SplineSet
405.6 741.8 m 0
 424.3 741.8 436.2 752.8 448.1 799 c 1
 468.5 792.4 l 1
 458.3 726.4 433.6 693.4 394.5 693.4 c 0
 375.8 693.4 358 706.6 340.2 722 c 0
 324.9 734.1 308.7 746.2 294.2 746.2 c 0
 272.1 746.2 261.1 729.7 252.6 693.4 c 1
 232.2 698.9 l 1
 244.1 763.8 263.7 796.8 300.2 796.8 c 0
 325.7 796.8 344.4 781.4 361.4 766 c 0
 375 752.8 389.5 741.8 405.6 741.8 c 0
EndSplineSet
Refer: 2273 -1 N 1 0 0 1 794 137 2
Refer: 268 85 N 1 0 0 1 0 0 2
Colour: ff00ff
EndChar

StartChar: uni1E79
Encoding: 7801 7801 249
Width: 537
GlyphClass: 2
Flags: MW
LayerCount: 2
Fore
SplineSet
321 778 m 1
 323.3 778.9 327.8 779.8 331.7 779.8 c 0
 336.6 779.8 356.4 779 374.1 759.6 c 1
 376.4 749.9 l 1
 287.8 654 l 2
 276.3 640.8 270.2 637.2 264.8 637.2 c 0
 259.4 637.2 254 642.5 254 648.7 c 0
 254 658.6 256.5 662 262.8 673.3 c 2
 321 778 l 1
EndSplineSet
Refer: 472 361 N 1 0 0 1 0 0 2
Colour: ff00ff
EndChar

StartChar: ampersand
Encoding: 38 38 250
Width: 710
GlyphClass: 2
Flags: MW
LayerCount: 2
Fore
SplineSet
255 338 m 1
 152 281 133 227 133 156 c 0
 133 58 189 30 252 30 c 0
 323 30 348 66 397 133 c 1
 340 208 266 317 255 338 c 1
293 411 m 1
 357 453 396 508 396 544 c 0
 396 589 372 619 331 619 c 0
 305 619 255 590 255 524 c 0
 255 501 265 457 293 411 c 1
437 192 m 1
 508 297 533 366 541 432 c 1
 551 429 570 429 580 429 c 0
 590 429 613 429 623 432 c 1
 584 365 487.3 187 465 153 c 1
 499 107 l 1
 530 63 560 44 576 44 c 0
 609 44 632 59 652 98 c 1
 668 90 l 1
 645 20 605 -10 570 -10 c 0
 539 -10 502 -8 455 57 c 1
 426 94 l 1
 380 31 330 -10 245 -10 c 0
 138 -10 44 38 44 166 c 0
 44 238 101 301 233 375 c 1
 195 434 179 484 179 522 c 0
 179 581 236 658 336 658 c 0
 406 658 463 607 463 544 c 0
 463 489 398 419 315 371 c 1
 319 363 l 1
 337 332 391 254 437 192 c 1
EndSplineSet
EndChar

StartChar: quotesingle
Encoding: 39 39 251
Width: 190
GlyphClass: 2
Flags: MW
LayerCount: 2
Fore
SplineSet
79 426 m 1
 79 426 53 585 53 594 c 0
 53 616 74 644 104 644 c 0
 130 644 139 627 139 611 c 0
 139 595 106 430 106 430 c 1
 79 426 l 1
EndSplineSet
EndChar

StartChar: comma
Encoding: 44 44 252
Width: 220
GlyphClass: 2
Flags: MW
LayerCount: 2
Fore
SplineSet
102 101.900390625 m 0
 138 102 170 70.8 170 -3 c 0
 170 -85 120 -112.3 66 -144 c 1
 59.2 -138.1 53 -133 53 -123 c 1
 102 -90 131 -62 131 -29 c 0
 131 -4.5 114.5 -3 102 -3.099609375 c 0
 73.01953125 -3.099609375 49.5 20.419921875 49.5 49.400390625 c 0
 49.5 78.3798828125 73.01953125 101.900390625 102 101.900390625 c 0
EndSplineSet
EndChar

StartChar: hyphen
Encoding: 45 45 253
Width: 333
GlyphClass: 2
Flags: MW
LayerCount: 2
Fore
SplineSet
274 236 m 2
 48 236 l 2
 39 236 33 244 33 253 c 0
 33 269 46 290 58 290 c 2
 287 290 l 2
 297 290 301 281 301 272 c 0
 301 261 287 236 274 236 c 2
EndSplineSet
EndChar

StartChar: period
Encoding: 46 46 254
Width: 220
GlyphClass: 2
Flags: MW
LayerCount: 2
Fore
SplineSet
53.75 45.5 m 0
 53.75 76.5498046875 78.9501953125 101.75 110 101.75 c 0
 141.049804688 101.75 166.25 76.5498046875 166.25 45.5 c 0
 166.25 14.4501953125 141.049804688 -10.75 110 -10.75 c 0
 78.9501953125 -10.75 53.75 14.4501953125 53.75 45.5 c 0
EndSplineSet
EndChar

StartChar: zero
Encoding: 48 48 255
Width: 465
GlyphClass: 2
Flags: MW
LayerCount: 2
Fore
SplineSet
233 571 m 0
 187 571 125 534 125 287 c 0
 125 200 136 29 229 29 c 0
 247 29 296 39 318 122 c 0
 332 173 335 225 335 317 c 0
 335 451 308 529 277 555 c 0
 266 565 250 571 233 571 c 0
228 -10 m 0
 104 -10 39 127 39 289 c 0
 39 486 133 610 233 610 c 0
 269 610 301 600 328 575 c 0
 364 542 421 465 421 309 c 0
 421 75 305 -10 228 -10 c 0
EndSplineSet
EndChar

StartChar: I
Encoding: 73 73 256
Width: 294
GlyphClass: 2
Flags: MW
AnchorPoint: "cedilla" 125.1 0.9 basechar 0
AnchorPoint: "below" 125.1 -95.4 basechar 0
AnchorPoint: "top_punkt" 126 612.5 basechar 0
AnchorPoint: "above" 126 698.2 basechar 0
LayerCount: 2
Fore
SplineSet
104 445 m 2
 104 520 102 588 94 645 c 1
 96 648 l 1
 108 646 135 645 147 645 c 0
 159 645 186 646 198 648 c 1
 200 645 l 1
 192 592 190 520 190 445 c 2
 190 200 l 2
 190 125 192 57 200 0 c 1
 198 -3 l 1
 186 -1 159 0 147 0 c 0
 135 0 108 -1 96 -3 c 1
 94 0 l 1
 102 54 104 125 104 200 c 2
 104 445 l 2
EndSplineSet
Position2: "'cpsp' Versalabstaende 1" dx=5 dy=0 dh=10 dv=0
EndChar

StartChar: J
Encoding: 74 74 257
Width: 320
GlyphClass: 2
Flags: MW
AnchorPoint: "top_punkt" 181 723 basechar 0
AnchorPoint: "above" 182 806 basechar 0
LayerCount: 2
Fore
SplineSet
140 95 m 2
 140 445 l 2
 140 520 138 588 130 645 c 1
 132 648 l 1
 144 646 171 645 183 645 c 0
 195 645 223 646 235 648 c 1
 236 645 l 1
 228 592 226 520 226 445 c 2
 226 117 l 2
 226 2.5 216 -27 163 -96 c 0
 121 -150 68 -172 5 -172 c 0
 -14 -172 -32 -168 -40 -163 c 1
 -41 -160 l 1
 -30 -141 -20 -105 -13 -78 c 1
 -2 -77 l 1
 9 -97 27 -112 56 -112 c 0
 135 -112 140 7 140 95 c 2
EndSplineSet
Position2: "'cpsp' Versalabstaende 1" dx=5 dy=0 dh=10 dv=0
EndChar

StartChar: K
Encoding: 75 75 258
Width: 629
GlyphClass: 2
Flags: MW
AnchorPoint: "cedilla" 148 -1 basechar 0
AnchorPoint: "below" 342 -109 basechar 0
AnchorPoint: "top_punkt" 335 719 basechar 0
AnchorPoint: "above" 336 798 basechar 0
LayerCount: 2
Fore
SplineSet
104 445 m 2
 104 520 102 588 94 645 c 1
 96 648 l 1
 108 646 135 645 147 645 c 0
 159 645 186 646 198 648 c 1
 200 645 l 1
 192 592 190 520 190 445 c 2
 190 344.1 l 1
 195.1 344.6 205.1 346.9 212 353 c 0
 300 430 408 546 497 648 c 1
 510 645 533 645 546 645 c 0
 561 645 581 645 597 648 c 1
 509 571 361 433 293 354 c 1
 293 352 l 1
 607 -3 l 1
 588 0 564 0 545 0 c 0
 528 0 500 0 483 -3 c 1
 393 108 250 281 209 322 c 0
 204.2 326 195.1 328 190 328.7 c 1
 190 200 l 2
 190 125 192 57 200 0 c 1
 198 -3 l 1
 186 -1 159 0 147 0 c 0
 135 0 108 -1 96 -3 c 1
 94 0 l 1
 102 54 104 125 104 200 c 2
 104 445 l 2
EndSplineSet
Position2: "'cpsp' Versalabstaende 1" dx=5 dy=0 dh=10 dv=0
Colour: ff80cc
EndChar

StartChar: L
Encoding: 76 76 259
Width: 515
GlyphClass: 2
Flags: MW
AnchorPoint: "cedilla" 262 1 basechar 0
AnchorPoint: "below" 262 -110 basechar 0
AnchorPoint: "above" 151 804 basechar 0
AnchorPoint: "top_punkt" 150 721 basechar 0
LayerCount: 2
Fore
SplineSet
191 445 m 2
 191 200 l 2
 191 183 192 85 199 61 c 1
 333 61 481 83 481 83 c 1
 483 79 l 1
 482 71 481 54 481 44 c 0
 481 34 482 14 483 0 c 1
 481 -3 l 1
 465 -1 442 0 421 0 c 2
 148 0 l 2
 114 0 96 -3 96 -3 c 1
 95 0 l 1
 103 54 105 125 105 200 c 2
 105 445 l 2
 105 520 103 588 95 645 c 1
 97 648 l 1
 109 646 136 645 148 645 c 0
 160 645 188 646 200 648 c 1
 201 645 l 1
 193 592 191 520 191 445 c 2
EndSplineSet
Position2: "'cpsp' Versalabstaende 1" dx=5 dy=0 dh=10 dv=0
EndChar

StartChar: M
Encoding: 77 77 260
Width: 886
GlyphClass: 2
Flags: MW
AnchorPoint: "cedilla" 148 2 basechar 0
AnchorPoint: "below" 434 -110 basechar 0
AnchorPoint: "above" 458 804 basechar 0
AnchorPoint: "top_punkt" 457 721 basechar 0
LayerCount: 2
Fore
SplineSet
193 662 m 1
 226 662 l 1
 299.8 490.2 371.3 330 450 166.3 c 1
 458.4 166 l 1
 701 662 l 1
 726 662 l 1
 754 419 784 211 820 -3 c 1
 805 0 779 0 764 0 c 0
 749 0 730 0 715 -3 c 1
 700.3 162.8 680.7 315.2 659.5 472.9 c 1
 656 473 l 1
 577 316 506 164.2 434 0 c 1
 415 0 l 1
 351 155 280.8 317 205.2 476.2 c 1
 200.8 476.2 l 1
 176.3 325.1 142 102 127 -3 c 1
 116 0 108 0 97 0 c 0
 85 0 75 0 64 -3 c 1
 103 184 158 460 193 662 c 1
EndSplineSet
Position2: "'cpsp' Versalabstaende 1" dx=5 dy=0 dh=10 dv=0
EndChar

StartChar: N
Encoding: 78 78 261
Width: 718
GlyphClass: 2
Flags: MW
AnchorPoint: "cedilla" 117 -3 basechar 0
AnchorPoint: "below" 356 -109 basechar 0
AnchorPoint: "above" 354 804 basechar 0
AnchorPoint: "top_punkt" 353 721 basechar 0
LayerCount: 2
Fore
SplineSet
108 645 m 1
 110 648 l 1
 110 648 118 645 152 645 c 0
 156.5 645 166 647 166 647 c 1
 509 203 l 2
 552.3 146.9 566.6 123.6 568 178 c 1
 568 445 l 2
 568 520.3 566 588 558 645 c 1
 560 648 l 1
 572 646 583 645 595 645 c 0
 607 645 618 646 630 648 c 1
 632 645 l 1
 616 423 617 249 612 21 c 0
 611 2 607 -10 593 -10 c 0
 577 -10 561 -1 550 14 c 2
 201 455 l 2
 163.9 503 162 500 162 439 c 2
 162 200 l 2
 162 125 164 57 172 0 c 1
 170 -3 l 1
 158 -1 147 0 135 0 c 0
 123 0 112 -1 100 -3 c 1
 98 0 l 1
 114 159 117 455 108 645 c 1
EndSplineSet
Position2: "'cpsp' Versalabstaende 1" dx=5 dy=0 dh=10 dv=0
EndChar

StartChar: O
Encoding: 79 79 262
Width: 741
GlyphClass: 2
Flags: MW
AnchorPoint: "cedilla" 371 0 basechar 0
AnchorPoint: "below" 371 -113 basechar 0
AnchorPoint: "above" 376 804 basechar 0
AnchorPoint: "top_punkt" 375 721 basechar 0
LayerCount: 2
Fore
SplineSet
355 614 m 0
 259 614 155 537 155 327 c 0
 155 135 269 34 389 34 c 0
 503 34 586 131 586 310 c 0
 586 518 496 614 355 614 c 0
689 329 m 0
 689 129 560 -10 369 -10 c 0
 197 -10 52 113 52 310 c 0
 52 506 189 658 368 658 c 0
 548 658 689 527 689 329 c 0
EndSplineSet
Position2: "'cpsp' Versalabstaende 1" dx=5 dy=0 dh=10 dv=0
EndChar

StartChar: P
Encoding: 80 80 263
Width: 559
GlyphClass: 2
Flags: MW
AnchorPoint: "cedilla" 151 -3 basechar 0
AnchorPoint: "below" 241 -110 basechar 0
AnchorPoint: "above" 278 803 basechar 0
AnchorPoint: "top_punkt" 277 720 basechar 0
LayerCount: 2
Fore
SplineSet
190 565 m 2
 190 329 l 1
 203 322 244 319 269 319 c 0
 366 319 422 356 422 471 c 0
 422 590 349 609 280 609 c 0
 208 609 190 594 190 565 c 2
104 445 m 2
 104 520 102 588 94 645 c 1
 96 648 l 1
 108 646 135 645 147 645 c 0
 177 645 261 652 287 652 c 0
 472 652 519 550 519 476 c 0
 519 391 456 276 274 276 c 0
 239 276 212 279 190 286 c 1
 190 200 l 2
 190 125 192 57 200 0 c 1
 198 -3 l 1
 186 -1 159 0 147 0 c 0
 135 0 108 -1 96 -3 c 1
 94 0 l 1
 102 54 104 125 104 200 c 2
 104 445 l 2
EndSplineSet
Position2: "'cpsp' Versalabstaende 1" dx=5 dy=0 dh=10 dv=0
EndChar

StartChar: Q
Encoding: 81 81 264
Width: 741
GlyphClass: 2
Flags: MW
AnchorPoint: "above" 348 803 basechar 0
AnchorPoint: "top_punkt" 346 720 basechar 0
LayerCount: 2
Fore
SplineSet
355 614 m 0
 259 614 155 537 155 327 c 0
 155 135 269 34 389 34 c 0
 503 34 586 131 586 310 c 0
 586 518 496 614 355 614 c 0
560.7 49.2 m 1
 618.3 17.4 700.3 -39.7 810 -77 c 1
 810 -83 l 1
 774 -102 735 -125 716 -140 c 1
 605.3 -77.1 613.7 -59.7 483.8 8.8 c 1
 448.9 -3.5 410.4 -10 369 -10 c 0
 197 -10 52 113 52 310 c 0
 52 506 189 658 368 658 c 0
 548 658 689 527 689 329 c 0
 689 207.3 641.2 108.1 560.7 49.2 c 1
EndSplineSet
Position2: "'cpsp' Versalabstaende 1" dx=5 dy=0 dh=10 dv=0
Colour: ff80cc
EndChar

StartChar: R
Encoding: 82 82 265
Width: 600
GlyphClass: 2
Flags: MW
AnchorPoint: "cedilla" 149 -1 basechar 0
AnchorPoint: "below" 259 -111 basechar 0
AnchorPoint: "above" 270 808 basechar 0
AnchorPoint: "top_punkt" 269 725 basechar 0
LayerCount: 2
Fore
SplineSet
190 286 m 1
 190 200 l 2
 190 125 192 57 200 0 c 1
 198 -3 l 1
 186 -1 159 0 147 0 c 0
 135 0 108 -1 96 -3 c 1
 94 0 l 1
 102 54 104 125 104 200 c 2
 104 445 l 2
 104 520 102 588 94 645 c 1
 96 648 l 1
 108 646 135 645 147 645 c 0
 177 645 257 652 282 652 c 0
 345 652 421 649 469 604 c 0
 505 570 522 529 522 479 c 0
 522 397 476 345 422 318 c 0
 408 310.8 388.2 304.3 361.5 299 c 1
 424.8 214.7 525.1 56.5 575 0 c 1
 573 -3 l 1
 553 0 533 0 513 0 c 0
 494 0 472 0 453 -3 c 1
 442 31 394 118 358 176 c 0
 332.5 217.1 310.9 256.2 282.8 289.1 c 1
 255.8 287.1 225 286 190 286 c 1
283 609 m 0
 193 609 190 604 190 565 c 2
 190 326 l 1
 248 326 l 2
 345 326 426 356 426 478 c 0
 426 586 344 609 283 609 c 0
EndSplineSet
Position2: "'cpsp' Versalabstaende 1" dx=5 dy=0 dh=10 dv=0
EndChar

StartChar: S
Encoding: 83 83 266
Width: 506
GlyphClass: 2
Flags: MW
AnchorPoint: "cedilla" 225.8 2 basechar 0
AnchorPoint: "below" 245 -111 basechar 0
AnchorPoint: "above" 262.3 803 basechar 0
AnchorPoint: "top_punkt" 261.3 720 basechar 0
LayerCount: 2
Fore
SplineSet
242 34 m 0
 301 34 359 76 359 151 c 0
 359 236 307 269 242 296 c 0
 159 331 70 380 70 485 c 0
 70 558 121 616 180 641 c 0
 209 653 239 658 266 658 c 0
 383 658 425 613 425 613 c 1
 427 610 l 1
 418 580 408 546 404 510 c 1
 394 509 l 1
 367 571 313 614 258 614 c 0
 235 614 214 611 197 602 c 0
 171 588 151 548 151 512 c 0
 151 429 222 400 273 381 c 0
 353.9 350.8 452 297 452 181 c 0
 452 65 357 -10 234 -10 c 0
 117 -10 52 35 52 35 c 1
 50 38 l 1
 58 68 69 105 73 141 c 1
 83 142 l 1
 114 83 186 34 242 34 c 0
EndSplineSet
Position2: "'cpsp' Versalabstaende 1" dx=5 dy=0 dh=10 dv=0
EndChar

StartChar: T
Encoding: 84 84 267
Width: 540
GlyphClass: 2
Flags: MW
AnchorPoint: "cedilla" 266 1 basechar 0
AnchorPoint: "below" 273 -107 basechar 0
AnchorPoint: "above" 270 803 basechar 0
AnchorPoint: "top_punkt" 268 720 basechar 0
LayerCount: 2
Fore
SplineSet
227 445 m 2
 227 462 226 565 219 589 c 1
 85 589 17 575 17 575 c 1
 15 579 l 1
 17 594 17 617 15 645 c 1
 17 648 l 1
 33 646 56 645 77 645 c 2
 463 645 l 2
 484 645 507 646 523 648 c 1
 525 645 l 1
 523 617 523 594 525 579 c 1
 523 575 l 1
 523 575 455 589 321 589 c 1
 314 565 313 462 313 445 c 2
 313 200 l 2
 313 125 315 57 323 0 c 1
 321 -3 l 1
 309 -1 282 0 270 0 c 0
 258 0 231 -1 219 -3 c 1
 217 0 l 1
 225 54 227 125 227 200 c 2
 227 445 l 2
EndSplineSet
Position2: "'cpsp' Versalabstaende 1" dx=5 dy=0 dh=10 dv=0
EndChar

StartChar: U
Encoding: 85 85 268
Width: 692
GlyphClass: 2
Flags: MW
AnchorPoint: "cedilla" 344 4 basechar 0
AnchorPoint: "below" 344 -109 basechar 0
AnchorPoint: "above" 354 805 basechar 0
AnchorPoint: "top_punkt" 353 722 basechar 0
LayerCount: 2
Fore
SplineSet
544 445 m 2
 544 520 542 588 534 645 c 1
 536 648 l 1
 548 646 559 645 571 645 c 0
 583 645 594 646 606 648 c 1
 608 645 l 1
 600 592 598 520 598 445 c 2
 598 295 l 2
 598 117 542 -10 337 -10 c 0
 247 -10 104 32 104 236 c 2
 104 445 l 2
 104 520 102 588 94 645 c 1
 96 648 l 1
 108 646 135 645 147 645 c 0
 159 645 186 646 198 648 c 1
 200 645 l 1
 192 592 190 520 190 445 c 2
 190 269 l 2
 190 215 190 46 358 46 c 0
 527 46 544 165 544 277 c 2
 544 445 l 2
EndSplineSet
Position2: "'cpsp' Versalabstaende 1" dx=5 dy=0 dh=10 dv=0
EndChar

StartChar: V
Encoding: 86 86 269
Width: 631
GlyphClass: 2
Flags: MW
AnchorPoint: "cedilla" 303 3 basechar 0
AnchorPoint: "below" 303 -108 basechar 0
AnchorPoint: "above" 331 805 basechar 0
AnchorPoint: "top_punkt" 329 722 basechar 0
LayerCount: 2
Fore
SplineSet
324 132.3 m 1
 395.7 298.3 493.6 519.4 528 648 c 1
 539.4 646 562 645 573 645 c 0
 582 645 601 646 613 648 c 1
 512 427 414 212 318 -10 c 1
 290 -10 l 1
 198 209 66 547 16 648 c 1
 32.8 646.2 60 645 76 645 c 0
 91.4 645 114.4 646.2 131 648 c 1
 140.9 613.4 190.8 436.1 322 132.3 c 1
 324 132.3 l 1
EndSplineSet
Position2: "'cpsp' Versalabstaende 1" dx=5 dy=0 dh=10 dv=0
EndChar

StartChar: W
Encoding: 87 87 270
Width: 951
GlyphClass: 2
Flags: MW
AnchorPoint: "cedilla" 295 0 basechar 0
AnchorPoint: "below" 449 -107 basechar 0
AnchorPoint: "above" 430 805 basechar 0
AnchorPoint: "top_punkt" 429 722 basechar 0
LayerCount: 2
Fore
SplineSet
644 132 m 1
 716 298 814 519 848 648 c 1
 860 645 887 645 898 645 c 0
 909 645 921 645 933 648 c 1
 832 427 734 212 638 -10 c 1
 610 -10 l 1
 571.4 98.6 523 231.5 478.5 351.6 c 1
 318 -10 l 1
 290 -10 l 1
 198 209 66 547 16 648 c 1
 33 645 59 645 76 645 c 0
 93 645 109 645 126 648 c 1
 136 613 188 434 323 123 c 1
 325 123 l 1
 364 213.4 411.4 321.3 452.3 422.1 c 1
 415.4 520.9 383.7 604.3 366 648 c 1
 383 645 409 645 426 645 c 0
 443 645 464 645 481 648 c 1
 495 585 539 435 642 132 c 1
 644 132 l 1
EndSplineSet
Position2: "'cpsp' Versalabstaende 1" dx=5 dy=0 dh=10 dv=0
EndChar

StartChar: X
Encoding: 88 88 271
Width: 581
GlyphClass: 2
Flags: MW
AnchorPoint: "cedilla" 97 0 basechar 0
AnchorPoint: "below" 307 -107 basechar 0
AnchorPoint: "above" 332 805 basechar 0
AnchorPoint: "top_punkt" 331 722 basechar 0
LayerCount: 2
Fore
SplineSet
564 -3 m 1
 546 0 524 0 506 0 c 0
 488 0 466 0 448 -3 c 1
 395.7 97.4 338.3 178.3 274.4 274.9 c 1
 218.1 189.2 160.1 95.1 107 -3 c 1
 96 0 77 0 65 0 c 0
 54 0 34 0 23 -3 c 1
 244 321 l 1
 28 648 l 1
 45 645 67 645 84 645 c 0
 101 645 123 645 141 648 c 1
 169.8 588.2 236.5 491.2 302 390.8 c 1
 385.6 511.8 409.8 547.8 464 648 c 1
 475 645 495 645 506 645 c 0
 517 645 537 645 548 648 c 1
 504.8 587.2 422.9 479.6 331.5 345.4 c 1
 418.3 211.9 483 111.4 564 -3 c 1
EndSplineSet
Position2: "'cpsp' Versalabstaende 1" dx=5 dy=0 dh=10 dv=0
EndChar

StartChar: Y
Encoding: 89 89 272
Width: 582
GlyphClass: 2
Flags: MW
AnchorPoint: "cedilla" 295 1 basechar 0
AnchorPoint: "below" 295 -109 basechar 0
AnchorPoint: "above" 295 805 basechar 0
AnchorPoint: "top_punkt" 293 722 basechar 0
LayerCount: 2
Fore
SplineSet
333 285 m 1
 334 186 336 45 340 -3 c 1
 328 -1 302 0 290 0 c 0
 278 0 252 -1 240 -3 c 1
 245 52 247 177 247 275 c 1
 209 340 56 588 16 648 c 1
 33 646 56 645 73 645 c 0
 90 645 113 646 130 648 c 1
 184 543 242 449 305 340 c 1
 363 431 430 543 480 648 c 1
 492 646 509 645 522 645 c 0
 534 645 551 646 564 648 c 1
 443 463 374 365 333 285 c 1
EndSplineSet
Position2: "'cpsp' Versalabstaende 1" dx=5 dy=0 dh=10 dv=0
EndChar

StartChar: Z
Encoding: 90 90 273
Width: 622
GlyphClass: 2
Flags: MW
AnchorPoint: "cedilla" 307 4 basechar 0
AnchorPoint: "below" 307 -107 basechar 0
AnchorPoint: "above" 340 803 basechar 0
AnchorPoint: "top_punkt" 339 720 basechar 0
LayerCount: 2
Fore
SplineSet
187 54 m 1
 318 54 567 75 567 75 c 1
 569 72 l 1
 568 64 567 49 567 39 c 0
 567 29 568 14 569 0 c 1
 567 -3 l 1
 551 -1 531.8 0 496 0 c 2
 133 0 l 2
 103 0 46 -3 46 -3 c 1
 43 1 l 1
 54 15 63 30 69 38 c 2
 438 579 l 2
 443.2 586.6 440 591 435 591 c 0
 334.5 591 216.5 581.5 80 570 c 1
 78 573 l 1
 79 581 80 596 80 606 c 0
 80 616 79 631 78 645 c 1
 80 648 l 1
 96 646 119 645 141 645 c 2
 445 645 l 2
 476 645 554.5 648.8 571 651 c 0
 575.5 651 577 649 577 645 c 0
 577 634 567 619 547 591 c 2
 192 72 l 2
 187.3 65.1 187 59 187 54 c 1
EndSplineSet
Position2: "'cpsp' Versalabstaende 1" dx=5 dy=0 dh=10 dv=0
EndChar

StartChar: bracketleft
Encoding: 91 91 274
Width: 361
GlyphClass: 2
Flags: MW
LayerCount: 2
Fore
SplineSet
110 -192 m 1
 110 703 l 1
 325 703 l 1
 325 673 l 1
 188 663 178 648 178 561 c 2
 178 -50 l 2
 178 -137 187 -152 325 -163 c 1
 325 -192 l 1
 110 -192 l 1
EndSplineSet
EndChar

StartChar: backslash
Encoding: 92 92 275
Width: 292
GlyphClass: 2
Flags: MW
LayerCount: 2
Fore
SplineSet
60 698 m 1
 290 -48 l 1
 241 -48 l 1
 11 698 l 1
 60 698 l 1
EndSplineSet
EndChar

StartChar: bracketright
Encoding: 93 93 276
Width: 361
GlyphClass: 2
Flags: MW
LayerCount: 2
Fore
SplineSet
251 703 m 1
 251 -192 l 1
 36 -192 l 1
 36 -162 l 1
 173 -152 183 -137 183 -50 c 2
 183 561 l 2
 183 648 174 663 36 674 c 1
 36 703 l 1
 251 703 l 1
EndSplineSet
Colour: ff00ff
EndChar

StartChar: underscore
Encoding: 95 95 278
Width: 486
GlyphClass: 2
Flags: MW
LayerCount: 2
Fore
SplineSet
482 -110 m 1
 482 -154 l 1
 5 -154 l 1
 5 -110 l 1
 482 -110 l 1
EndSplineSet
EndChar

StartChar: a
Encoding: 97 97 279
Width: 481
GlyphClass: 2
Flags: MW
AnchorPoint: "ogonek" 434.6 16 basechar 0
AnchorPoint: "cedilla" 177 -5 basechar 0
AnchorPoint: "below" 207.8 -108 basechar 0
AnchorPoint: "top_punkt" 222.6 550 basechar 0
AnchorPoint: "above" 221.5 645 basechar 0
LayerCount: 2
Fore
SplineSet
310 225 m 1
 225 202 l 2
 147 181 126 147 126 102 c 0
 126 71 155 41 200 41 c 0
 230 41 264 59 292 80 c 0
 300 86 306 93 306 106 c 2
 310 225 l 1
310.1 48 m 1
 306 48 l 1
 253 3 225 -10 170 -10 c 0
 96 -10 45 24 45 98 c 0
 45 166 109 220 211 243 c 2
 304 264 l 2
 307 265 311 269 311 276 c 0
 311 389 251 394 215 394 c 0
 167 394 133 354 105 309 c 1
 92 310 l 1
 75 377 l 1
 78 381 l 1
 103 402 149 439 225 439 c 0
 301 439 390 412 390 277 c 0
 390 266 387.2 155 387.2 126 c 0
 387.2 81.5 393.7 57.3 403.9 48 c 0
 410 42.4 423.3 40.5 433.2 40.5 c 0
 440.8 40.5 449.3 41.9 460.2 45.7 c 1
 467.6 21 l 1
 444 -4 413.2 -10 388 -10 c 0
 351.4 -10 321.5 8.9 310.1 48 c 1
EndSplineSet
EndChar

StartChar: b
Encoding: 98 98 280
Width: 504
GlyphClass: 2
Flags: MW
AnchorPoint: "below" 241 -108 basechar 0
AnchorPoint: "top_punkt" 283 553 basechar 0
LayerCount: 2
Fore
SplineSet
162 81 m 1
 182 56 219 30 250 30 c 0
 345 30 382 100 382 224 c 0
 382 348.7 328.1 399 267 399 c 0
 226 399 201 380 162 340 c 1
 162 81 l 1
162 500 m 2
 162 389 l 1
 196 426 239 439 287 439 c 0
 384 439 471 354 471 232 c 0
 471 62 358 -10 256 -10 c 0
 213 -10 167 14 138 39 c 1
 127.5 19 116 2 105 -10 c 1
 94.5 -10 83 -8 77 -2 c 1
 81.2 19.8 82 34 82 73 c 2
 82 482 l 2
 82 558 77.7 632.3 70 675 c 1
 72 678 l 1
 112.5 681 133.9 688 159 698 c 1
 165.3 698 168 695 168 688 c 0
 163.3 626.7 162 574 162 500 c 2
EndSplineSet
EndChar

StartChar: c
Encoding: 99 99 281
Width: 429
GlyphClass: 2
Flags: MW
AnchorPoint: "ogonek" 328.7 37.3 basechar 0
AnchorPoint: "cedilla" 233.6 2.7 basechar 0
AnchorPoint: "below" 219.4 -100.4 basechar 0
AnchorPoint: "top_punkt" 227.4 488.6 basechar 0
AnchorPoint: "above" 224.8 573 basechar 0
LayerCount: 2
Fore
SplineSet
250 399 m 0
 184 399 126 333 126 223 c 0
 126 106 183 40 256 40 c 0
 293.2 40 325 48 363 82 c 1
 367 82 l 1
 386 61 l 1
 346 10 299 -10 239 -10 c 0
 117 -10 38 78.9 38 218 c 0
 38 354 147 439 251 439 c 0
 301 439 353 427 384 411 c 1
 386 408 l 1
 363 326 l 1
 350 325 l 1
 323.5 370.5 288.5 399 250 399 c 0
EndSplineSet
EndChar

StartChar: d
Encoding: 100 100 282
Width: 530
GlyphClass: 2
Flags: MW
AnchorPoint: "above" 239 645 basechar 0
AnchorPoint: "top_punkt" 240 550 basechar 0
AnchorPoint: "ogonek" 333 20 basechar 0
AnchorPoint: "below" 242 -107 basechar 0
LayerCount: 2
Fore
SplineSet
361 113 m 1
 361 341 l 1
 337 379 313 399 266 399 c 0
 217.6 399 138 371 138 221 c 0
 138 96 184 42 238 42 c 0
 278.5 42 324.5 66.5 361 113 c 1
361 58 m 1
 325 11.5 280 -10 232 -10 c 0
 124 -10 51 90 51 213 c 0
 51 349 146.8 439 277 439 c 0
 297 439 338 430 361 417 c 1
 361 482 l 2
 361 558 359.7 632.3 352 675 c 1
 354 678 l 1
 394.5 681 415.9 688 441 698 c 1
 447.3 698 450 695 450 688 c 0
 445 626.3 441 574 441 500 c 2
 441 192 l 2
 441 117 450 43 458 0 c 1
 456 -3 l 1
 443 -1 424.1 0 411.5 0 c 0
 397 0 390.3 -1.3 377 -3 c 0
 371 -3 368 -2 368 0 c 2
 363 58 l 1
 361 58 l 1
EndSplineSet
EndChar

StartChar: e
Encoding: 101 101 283
Width: 453
GlyphClass: 2
Flags: MW
AnchorPoint: "ogonek" 373 41 basechar 0
AnchorPoint: "above" 238 645 basechar 0
AnchorPoint: "top_punkt" 245 550 basechar 0
AnchorPoint: "below" 237 -108 basechar 0
LayerCount: 2
Fore
SplineSet
125 273 m 1
 309 273 l 2
 319 273 323 278 323 287 c 0
 323 362 278.5 399 239 399 c 0
 207.5 399 142 377 125 273 c 1
392 104 m 1
 412 79 l 1
 374 27 310 -10 238 -10 c 0
 170.6 -10 113.4 14.7 79 56 c 0
 45.5 96.2 34 152.3 34 209 c 0
 34 356 136 439 239 439 c 0
 371 439 412 334 412 250 c 0
 412 239 405 233 394 233 c 2
 122 233 l 1
 122 174.9 128.4 134.1 146 106 c 0
 173.5 62 220.8 49 255 49 c 0
 310 49 357 66 392 104 c 1
EndSplineSet
EndChar

StartChar: f
Encoding: 102 102 284
Width: 314
GlyphClass: 2
Flags: MW
AnchorPoint: "cedilla" 133 10 basechar 0
AnchorPoint: "below" 132 -111 basechar 0
LayerCount: 2
Fore
SplineSet
99 429 m 1
 99 468 l 2
 99 526 116 573 154 621 c 0
 191.7 668.7 255 698 318 698 c 0
 337 698 355 693 363 688 c 1
 364 685 l 1
 353.7 663.7 343 630 336 603 c 1
 325 602 l 1
 314 622 292.7 637 267 637 c 0
 209.7 637 174 599.2 174 544 c 0
 174 526 179 474 179 438 c 2
 179 429 l 1
 222 429 l 2
 245 429 275.2 430.2 292 431 c 1
 297 424 l 1
 291 409.3 288 399 285 383 c 1
 271.7 384.3 237 385 213 385 c 2
 179 385 l 1
 179 199 l 2
 179 124 180.5 57 189 0 c 1
 187 -3 l 1
 175 -1 151 0 139 0 c 0
 127 0 103 -1 91 -3 c 1
 89 0 l 1
 97.5 53.5 99 124 99 199 c 2
 99 385 l 1
 98 385 l 2
 75 385 42 384.3 24 383 c 1
 19 390 l 1
 28.7 405 34.3 414.7 41 431 c 1
 54.2 429.2 77.3 429 99 429 c 1
EndSplineSet
EndChar

StartChar: g
Encoding: 103 103 285
Width: 499
GlyphClass: 2
Flags: MW
AnchorPoint: "below" 225 -88 basechar 0
AnchorPoint: "above" 220 645 basechar 0
AnchorPoint: "top_punkt" 230 570 basechar 0
LayerCount: 2
Fore
SplineSet
101 -104 m 0
 101 -172 167 -194 232 -194 c 0
 318 -194 400 -162 400 -101 c 0
 400 -75 390 -46 361 -29 c 0
 333.6 -12.9 303 -12 255 -12 c 0
 241.2 -12 195.5 -15 166 -15 c 1
 131 -34 101 -70.9 101 -104 c 0
390 285 m 0
 390 206.2 328 136 224 136 c 0
 193.9 136 163 143 150 150 c 1
 128 131 123 114 123 94 c 0
 123 51 153 47 181 47 c 0
 186 47 196 48 210 49 c 0
 233 52 273 54 290 54 c 0
 325 54 393.5 53 431 21 c 0
 459 -2.9 473 -33.9 473 -78 c 0
 473 -171.7 380.1 -237 224 -237 c 0
 118 -237 32 -202.7 32 -124 c 0
 32 -105.3 42.5 -77 55 -58 c 1
 80.9 -38 112 -18.7 139.9 -7.3 c 1
 86 2 62 38 62 79 c 0
 62 113 97 142 126 162 c 1
 98 178 55 212 55 287 c 0
 55 386.1 146 439 225 439 c 0
 246.5 439 268.4 436 286.3 430.4 c 1
 360.9 434.3 396.2 444.9 444 449 c 1
 447 446 l 1
 445 437 444 429 444 420 c 0
 444 411 445 403 447 394 c 1
 444 391 l 1
 402.8 395.2 369.7 399 339.6 401.4 c 1
 363 386 390 354 390 285 c 0
312 284 m 0
 312 355 286 401 221 401 c 0
 163 401 133 358 133 292 c 0
 133 223 155 176 227 176 c 0
 287 176 312 223.3 312 284 c 0
EndSplineSet
EndChar

StartChar: h
Encoding: 104 104 286
Width: 549
GlyphClass: 2
Flags: MW
AnchorPoint: "ogonek" 430 10 basechar 0
AnchorPoint: "top_punkt" 307 550 basechar 0
AnchorPoint: "above" 306 645 basechar 0
AnchorPoint: "below" 266 -111 basechar 0
LayerCount: 2
Fore
SplineSet
170 352 m 1
 172 349 l 1
 236 424 307 439 345 439 c 0
 435 439 469 385 469 281 c 0
 469 249 467 212 467 180 c 0
 467 104 468 57.2 476 0 c 1
 474 -3 l 1
 462 -1 439 0 427 0 c 0
 415 0 392 -1 380 -3 c 1
 378 0 l 1
 386 53.8 387 105 387 180 c 2
 387 278 l 2
 387 359 366 379 315 379 c 0
 279.5 379 221 357 170 297 c 1
 170 180 l 2
 170 104 171.5 57.2 179 0 c 1
 177 -3 l 1
 165 -1 142 0 130 0 c 0
 118 0 95 -1 83 -3 c 1
 81 0 l 1
 88.8 56 90 105.5 90 180 c 2
 90 481 l 2
 90 557 88.7 632.3 81 675 c 1
 83 678 l 1
 123.5 681 144.9 688 170 698 c 1
 176.3 698 179 695 179 688 c 0
 174.2 626.5 170 575 170 501 c 2
 170 352 l 1
EndSplineSet
EndChar

StartChar: k
Encoding: 107 107 289
Width: 503
GlyphClass: 2
Flags: MW
AnchorPoint: "cedilla" 130 9 basechar 0
AnchorPoint: "top_punkt" 281 551 basechar 0
AnchorPoint: "above" 280 646 basechar 0
AnchorPoint: "below" 268 -107 basechar 0
LayerCount: 2
Fore
SplineSet
90 200 m 2
 90 482 l 2
 90 558 88.7 632.3 81 675 c 1
 83 678 l 1
 123.5 681 144.9 688 170 698 c 1
 176.3 698 179 695 179 688 c 0
 174.3 624.7 170 575 170 500 c 2
 170 240.1 l 1
 183 241.2 201.3 245.3 214 255 c 0
 253.6 285.5 328.9 366.5 372 429 c 1
 399 429 454 429 473 432 c 1
 475 429 l 1
 410 373.9 312.4 278.9 273 238 c 1
 368.4 122.8 421.6 78.6 496 0 c 1
 494 -3 l 1
 485 -1.2 450.7 0 434 0 c 0
 417 0 383.3 -1.2 368 -3 c 1
 300 95 276 131 211 199 c 0
 202.4 206.7 178.2 209.8 170 210 c 1
 170 200 l 2
 170 124.8 171.2 57 179 0 c 1
 177 -3 l 1
 165 -1 142 0 130 0 c 0
 118 0 95 -1 83 -3 c 1
 81 0 l 1
 88.5 53.5 90 125.5 90 200 c 2
EndSplineSet
Colour: ff80cc
EndChar

StartChar: uni02E1
Encoding: 737 737 290
Width: 226
GlyphClass: 2
Flags: MW
LayerCount: 2
Fore
SplineSet
81 619 m 2
 81 666.3 79.3 700 76 720 c 1
 77 721 l 1
 96.3 722.3 119 728.3 145 739 c 1
 148.3 739 150 737.3 150 734 c 0
 146.7 705.3 145 671.3 145 632 c 2
 145 471 l 2
 145 423.7 146.7 388 150 364 c 1
 149 362 l 1
 137.7 363.3 125.7 364 113 364 c 0
 100.3 364 88.3 363.3 77 362 c 1
 76 364 l 1
 79.3 386 81 421.7 81 471 c 2
 81 619 l 2
EndSplineSet
Colour: ff00ff
EndChar

StartChar: m
Encoding: 109 109 291
Width: 807
GlyphClass: 2
Flags: MW
AnchorPoint: "cedilla" 122 9 basechar 0
AnchorPoint: "top_punkt" 388 550 basechar 0
AnchorPoint: "above" 387 645 basechar 0
AnchorPoint: "below" 400 -105 basechar 0
LayerCount: 2
Fore
SplineSet
162 352 m 1
 165 349 l 1
 212 399 271 439 333 439 c 0
 389 439 430 408 439 360 c 1
 496 420 554 439 608 439 c 0
 716 439 732 369 732 280 c 2
 732 180 l 2
 732 104 733 57 741 0 c 1
 739 -3 l 1
 727 -1 704 0 692 0 c 0
 680 0 657 -1 645 -3 c 1
 643 0 l 1
 651 54 652 105 652 180 c 2
 652 290 l 2
 652 357 626 379 572 379 c 0
 533 379 493 372 445 319 c 1
 446 307 446 295 446 281 c 2
 446 180 l 2
 446 104 447 57 455 0 c 1
 453 -3 l 1
 441 -1 418 0 406 0 c 0
 394 0 371 -1 359 -3 c 1
 357 0 l 1
 365 54 366 105 366 180 c 2
 366 290 l 2
 366 357 338 379 300 379 c 0
 265 379 209 349 162 301 c 1
 162 180 l 2
 162 104 163 57 171 0 c 1
 169 -3 l 1
 157 -1 134 0 122 0 c 0
 110 0 87 -1 75 -3 c 1
 73 0 l 1
 81 54 82 105 82 180 c 2
 82 235 l 2
 82 310 80 385.7 73 429 c 1
 75 432 l 1
 97.7 429.7 133.5 430.5 156 435 c 0
 160.7 435 162 432.7 162 425 c 2
 162 352 l 1
EndSplineSet
EndChar

StartChar: n
Encoding: 110 110 292
Width: 539
GlyphClass: 2
Flags: MW
AnchorPoint: "above" 252 646 basechar 0
AnchorPoint: "below" 253 -111 basechar 0
AnchorPoint: "top_punkt" 253 550 basechar 0
AnchorPoint: "cedilla" 122 9 basechar 0
AnchorPoint: "ogonek" 408 44 basechar 0
LayerCount: 2
Fore
SplineSet
460 180 m 0
 460 104 461.2 57 469 0 c 1
 467 -3 l 1
 455 -1 432 0 420 0 c 0
 408 0 385 -1 373 -3 c 1
 371 0 l 1
 378.2 53.8 380 105 380 180 c 2
 380 278 l 2
 380 359 359 379 308 379 c 0
 272 379 214 357 163 297 c 1
 163 180 l 2
 163 104 164 57 172 0 c 1
 170 -3 l 1
 158 -1 135 0 123 0 c 0
 111 0 88 -1 76 -3 c 1
 74 0 l 1
 82 54 83 105 83 180 c 2
 83 235 l 2
 83 310 81 385.7 74 429 c 1
 76 432 l 1
 98.7 429.7 134.5 430.5 157 435 c 0
 161.7 435 162.8 432.7 163 425 c 2
 163 352 l 1
 165 349 l 1
 229 424 300 439 338 439 c 0
 428 439 462 385 462 281 c 0
 462 249 460 212 460 180 c 0
EndSplineSet
EndChar

StartChar: o
Encoding: 111 111 293
Width: 500
GlyphClass: 2
Flags: MW
AnchorPoint: "komb_OR" 420 396 basechar 0
AnchorPoint: "middle" 246 215 basechar 0
AnchorPoint: "cedilla" 247.1 -3 basechar 0
AnchorPoint: "ogonek" 386.2 44 basechar 0
AnchorPoint: "below" 247.8 -107 basechar 0
AnchorPoint: "top_punkt" 245.7 550 basechar 0
AnchorPoint: "above" 244.8 645 basechar 0
LayerCount: 2
Fore
SplineSet
38 205 m 0
 38 347 123 439 254 439 c 0
 389 439 462 350 462 214 c 0
 462 83 382 -10 250 -10 c 0
 117 -10 38 85 38 205 c 0
247 399 m 0
 153 399 126 309 126 222 c 0
 126 145 153 30 259 30 c 0
 326 30 374 100.9 374 196 c 0
 374 317 353 399 247 399 c 0
EndSplineSet
EndChar

StartChar: p
Encoding: 112 112 294
Width: 523
GlyphClass: 2
Flags: MW
AnchorPoint: "top_punkt" 279 551 basechar 0
AnchorPoint: "above" 278 646 basechar 0
LayerCount: 2
Fore
SplineSet
162 294 m 1
 162 75 l 1
 197 34 239 30 255 30 c 0
 362 30 385 136 385 218 c 0
 385 331 350 393 282 393 c 0
 243 393 184 347 162 294 c 1
162 352 m 1
 164 349 l 1
 210 419 260 439 299 439 c 0
 411 439 473 337 473 231 c 0
 473 90.1 393 -10 261 -10 c 0
 225 -10 188 -2 162 12 c 1
 162 -32 l 2
 162 -107.2 163.8 -175 171 -232 c 1
 169 -235 l 1
 157 -233 134 -232 122 -232 c 0
 110 -232 87 -233 75 -235 c 1
 73 -232 l 1
 80.2 -178.2 82 -106.5 82 -32 c 2
 82 235 l 2
 82 310 80 385.7 73 429 c 1
 75 432 l 1
 97.7 429.7 133.5 430.5 156 435 c 0
 160.7 435 162 432.7 162 425 c 2
 162 352 l 1
EndSplineSet
EndChar

StartChar: q
Encoding: 113 113 295
Width: 522
GlyphClass: 2
Flags: MW
AnchorPoint: "top_punkt" 249 550 basechar 0
AnchorPoint: "above" 248 645 basechar 0
LayerCount: 2
Fore
SplineSet
357 376 m 1
 335.3 394 306.7 399 263 399 c 0
 189 399 137 331 137 227 c 0
 137 76 208 34 266 34 c 0
 285 34 334 46 360 66 c 1
 360 234 l 2
 360 334 357 376 357 376 c 1
366 432 m 0
 384.3 429 424.3 429.7 447 432 c 1
 449 429 l 1
 442 385.7 440 310 440 235 c 2
 440 -32 l 2
 440 -107.2 440.5 -175 449 -232 c 1
 447 -235 l 1
 447 -235 434.3 -232 400 -232 c 0
 365 -232 353 -235 353 -235 c 1
 351 -232 l 1
 359.5 -178.5 360 -106 360 -32 c 2
 360 23 l 1
 345 10 299 -10 242 -10 c 0
 104 -10 49 111.7 49 216 c 0
 49 348 141 439 257 439 c 0
 291 439 347.9 435 366 432 c 0
EndSplineSet
EndChar

StartChar: r
Encoding: 114 114 296
Width: 355
GlyphClass: 2
Flags: MW
AnchorPoint: "cedilla" 127 7 basechar 0
AnchorPoint: "top_punkt" 185 551 basechar 0
AnchorPoint: "above" 184 646 basechar 0
AnchorPoint: "below" 128 -108 basechar 0
LayerCount: 2
Fore
SplineSet
167 334 m 1
 170 332 l 1
 214 408 243 439 297 439 c 0
 315 439 316 437 333 432 c 1
 337 428 l 1
 317 354 l 1
 309 352 l 1
 296 364 277 366 257 366 c 0
 238 366 215.5 353.3 201 331 c 0
 179.5 298 167 274 167 232 c 2
 167 180 l 2
 167 104 168.5 57 176 0 c 1
 174 -3 l 1
 162 -1 139 0 127 0 c 0
 115 0 92 -1 80 -3 c 1
 78 0 l 1
 85.8 53.8 87 105 87 180 c 2
 87 235 l 2
 87 310 85 385.7 78 429 c 1
 80 432 l 1
 102.7 429.7 138.5 430.5 161 435 c 0
 165.7 435 167 432.7 167 425 c 2
 167 334 l 1
EndSplineSet
EndChar

StartChar: uni02E2
Encoding: 738 738 297
Width: 276
GlyphClass: 2
Flags: MW
LayerCount: 2
Fore
SplineSet
60 435 m 1
 77.3 401.7 99.7 385 127 385 c 0
 157.7 385 173 399.3 173 428 c 0
 173 451.3 155.7 468 121 478 c 0
 71.7 492 47 519.3 47 560 c 0
 47 581.3 57 599.3 77 614 c 0
 97 628.7 121.3 636 150 636 c 0
 181.3 636 206.7 630.7 226 620 c 1
 227 618 l 1
 215 562 l 1
 205 562 l 1
 190.3 592.7 171.3 608 148 608 c 0
 121.3 608 108 596 108 572 c 0
 108 550 121 536 147 530 c 0
 207.7 516 238 486 238 440 c 0
 238 420 228.7 402 210 386 c 0
 188.7 367.3 159.3 358 122 358 c 0
 96 358 68 363.7 38 375 c 1
 48 434 l 1
 60 435 l 1
EndSplineSet
Colour: ff00ff
EndChar

StartChar: t
Encoding: 116 116 298
Width: 340
GlyphClass: 2
Flags: MW
AnchorPoint: "cedilla" 165 -3 basechar 0
AnchorPoint: "ogonek" 237 15 basechar 0
AnchorPoint: "below" 163 -107 basechar 0
LayerCount: 2
Fore
SplineSet
95 429 m 1
 95 487 97 522.3 99 557 c 1
 101 560 l 1
 133.5 564.5 145.9 575 171 585 c 1
 177.3 585 180 582.3 180 575 c 0
 175.5 517 175 503.8 175 429 c 1
 222 429 l 2
 245 429 274 430.3 292 431 c 1
 297 424 l 1
 291 409.3 288 399 285 383 c 1
 271.7 384.3 237 385 213 385 c 2
 175 385 l 1
 175 259 l 2
 175 199 172 156 172 126 c 0
 172 71.9 181.3 47.8 205 44 c 0
 230 40 253 41 283.7 51.7 c 1
 296 27 l 1
 254 0 222 -10 180 -10 c 0
 134 -10 92 21 92 86 c 0
 92 116 95 188 95 248 c 2
 95 385 l 1
 72.2 384.9 41.2 384.3 24 383 c 1
 19 390 l 1
 28.7 405 34.3 414.7 41 431 c 1
 53.4 429.4 74.5 429.1 95 429 c 1
EndSplineSet
EndChar

StartChar: u
Encoding: 117 117 299
Width: 537
GlyphClass: 2
Flags: MW
AnchorPoint: "cedilla" 218 0 basechar 0
AnchorPoint: "ogonek" 298 7 basechar 0
AnchorPoint: "below" 240 -111 basechar 0
AnchorPoint: "top_punkt" 262 550 basechar 0
AnchorPoint: "above" 262 646 basechar 0
LayerCount: 2
Fore
SplineSet
365 92 m 1
 332 41 276 -10 214 -10 c 0
 115 -10 83 60 83 129 c 2
 83 249 l 2
 83 325 82 372 74 429 c 1
 76 432 l 1
 88 430 111 429 123 429 c 0
 135 429 158 430 170 432 c 1
 172 429 l 1
 164 376 163 324 163 249 c 2
 163 150 l 2
 163 57 195.5 46 230 46 c 0
 279 46 336.5 99.5 367 151 c 1
 367 249 l 2
 367 325 365.8 371.8 358 429 c 1
 360 432 l 1
 372 430 395 429 407 429 c 0
 419 429 442 430 454 432 c 1
 456 429 l 1
 448 376 447 324 447 249 c 2
 447 192 l 2
 447 117 456 43 464 0 c 1
 462 -3 l 1
 449 -1 430.1 0 417.5 0 c 0
 403 0 391.3 -1.3 378 -3 c 0
 375.2 -3 374 -2 374 0 c 2
 369 89 l 1
 365 92 l 1
EndSplineSet
EndChar

StartChar: v
Encoding: 118 118 300
Width: 462
GlyphClass: 2
Flags: MW
AnchorPoint: "below" 240 -113 basechar 0
AnchorPoint: "above" 262 646 basechar 0
AnchorPoint: "top_punkt" 263 551 basechar 0
LayerCount: 2
Fore
SplineSet
202 -3 m 1
 146 143 87 285 20 432 c 1
 36 429 62 429 78 429 c 0
 92 429 115 429 128 432 c 1
 164.3 317.3 196.7 204.6 246.8 90.1 c 1
 248.8 90.1 l 1
 294.7 188.1 329.5 318.9 370 432 c 1
 379 429 394 429 404 429 c 0
 414 429 433 429 442 432 c 1
 377 285 315 143 263 -3 c 1
 254 0 243 0 233 0 c 0
 223 0 212 0 202 -3 c 1
EndSplineSet
EndChar

StartChar: w
Encoding: 119 119 301
Width: 722
GlyphClass: 2
Flags: MW
AnchorPoint: "top_punkt" 346 552 basechar 0
AnchorPoint: "above" 345 646 basechar 0
AnchorPoint: "below" 352 -111 basechar 0
LayerCount: 2
Fore
SplineSet
205 -4 m 1
 149 142 87 284 20 431 c 1
 36 428 62 428 78 428 c 0
 92 428 115 428 128 431 c 1
 164.3 316.3 197.7 203.6 247.8 89.1 c 1
 253.8 89.1 l 1
 282.8 151 310 226 336.8 301.3 c 1
 319.6 347 303.7 391 290 432 c 1
 306 429 332 429 348 429 c 0
 362 429 385 429 398 432 c 1
 421 326 452 200 493.8 90.1 c 1
 501.8 90.1 l 1
 543 186 588 314 625 432 c 1
 634 429 649 429 659 429 c 0
 669 429 693 429 702 432 c 1
 645 307 565 115 516 -3 c 1
 507 0 489 0 479 0 c 0
 469 0 463 0 453 -3 c 1
 424.5 74.6 392.6 155.6 362.6 233.7 c 1
 330.4 155.2 301.4 72.9 274 -4 c 1
 265 -1 248 -1 238 -1 c 0
 228 -1 215 -1 205 -4 c 1
EndSplineSet
EndChar

StartChar: uni02E3
Encoding: 739 739 302
Width: 327
GlyphClass: 2
Flags: MW
LayerCount: 2
Fore
SplineSet
20 632 m 1
 26.7 630.7 42.7 630 68 630 c 0
 90.7 630 105.7 630.7 113 632 c 1
 128.3 606.7 147.3 578 170 546 c 1
 197.3 581.3 218.7 610 234 632 c 1
 238.7 630.7 250 630 268 630 c 0
 282.7 630 292 630.7 296 632 c 1
 195 514 l 1
 203 503 l 1
 228.3 466.3 263 419.3 307 362 c 1
 301 363.3 286.7 364 264 364 c 0
 238.7 364 223 363.3 217 362 c 1
 204.3 382.7 182.3 414.7 151 458 c 1
 84 362 l 1
 80 363.3 71 364 57 364 c 0
 38.3 364 26.7 363.3 22 362 c 1
 126 492 l 1
 20 632 l 1
EndSplineSet
Colour: ff00ff
EndChar

StartChar: y
Encoding: 121 121 303
Width: 506
GlyphClass: 2
Flags: MW
AnchorPoint: "above" 285 644 basechar 0
AnchorPoint: "top_punkt" 294 550 basechar 0
LayerCount: 2
Fore
SplineSet
28 432 m 1
 42 429 67 429 80 429 c 0
 94 429 116 429 129 432 c 1
 166.4 317.8 213.5 206.5 262.7 87.6 c 1
 264.7 87.6 l 1
 313.3 191.2 360 319 396 432 c 1
 406 429 425 429 435 429 c 0
 445 429 468 429 478 432 c 1
 445 365 226 -112 188 -237 c 1
 178 -234 149 -232 139 -232 c 0
 129 -232 114 -234 104 -237 c 1
 149.2 -161.7 190 -84.7 222 -10 c 1
 186.6 85.1 67.8 343.2 28 432 c 1
EndSplineSet
EndChar

StartChar: z
Encoding: 122 122 304
Width: 416
GlyphClass: 2
Flags: MW
AnchorPoint: "above" 220 646 basechar 0
AnchorPoint: "top_punkt" 221 551 basechar 0
AnchorPoint: "cedilla" 208 4 basechar 0
AnchorPoint: "below" 207 -111 basechar 0
LayerCount: 2
Fore
SplineSet
135.9 45 m 1
 257.5 45.7 386 56 386 56 c 1
 388 53 l 1
 387 45 386 36 386 27 c 0
 386 18 387 13 388 0 c 1
 386 -3 l 1
 371 -1 350 0 330 0 c 2
 104 0 l 2
 75.5 0 23 -3 23 -3 c 1
 20 1.5 l 1
 28 10.7 34 20 42 32 c 2
 277 383.7 l 1
 162.4 382.1 49 373 49 373 c 1
 47 376 l 1
 48 384 49 393 49 402 c 0
 49 411 48 416 47 429 c 1
 49 432 l 1
 64 430 85 429 105 429 c 2
 309 429 l 2
 338 429 384.7 435.3 389.7 435.3 c 0
 393.7 435.3 395 433 395 429 c 1
 389 422 382 412.4 365 387 c 2
 135.9 45 l 1
EndSplineSet
EndChar

StartChar: braceleft
Encoding: 123 123 305
Width: 277
GlyphClass: 2
Flags: MW
LayerCount: 2
Fore
SplineSet
178 552 m 2
 186 386 l 2
 190.3 297 148.2 268.2 81 249 c 1
 81 245 l 1
 148.8 216.8 190.4 177.3 186 95 c 2
 178 -54 l 2
 173.5 -138 214 -188 258 -188 c 1
 264 -194 264 -206 258 -212 c 1
 157 -212 101 -179 106 -49 c 2
 112 121 l 2
 114 182 87.5 226 14 235 c 1
 6 243 5 250 14 259 c 1
 88 266 112 320 112 370 c 1
 106 554 l 2
 102 667 168 707 258 707 c 1
 264 701 264 689 258 683 c 1
 220 672 173 654.9 178 552 c 2
EndSplineSet
EndChar

StartChar: bar
Encoding: 124 124 306
Width: 210
GlyphClass: 2
Flags: MW
LayerCount: 2
Fore
SplineSet
130 -232 m 1
 81 -232 l 1
 81 698 l 1
 130 698 l 1
 130 -232 l 1
EndSplineSet
EndChar

StartChar: braceright
Encoding: 125 125 307
Width: 277
GlyphClass: 2
Flags: MW
LayerCount: 2
Fore
SplineSet
95 -58 m 2
 87 108 l 2
 82.7 197 124.8 225.8 192 245 c 1
 192 249 l 1
 124.2 277.2 82.6 316.7 87 399 c 2
 95 548 l 2
 99.5 632 59 682 15 682 c 1
 9 688 9 700 15 706 c 1
 116 706 172 673 167 543 c 2
 161 373 l 2
 159 312 185.5 268 259 259 c 1
 267 251 268 244 259 235 c 1
 185 228 161 174 161 124 c 1
 167 -60 l 2
 171 -173 105 -213 15 -213 c 1
 9 -207 9 -195 15 -189 c 1
 53 -178 100 -160.9 95 -58 c 2
EndSplineSet
Colour: ff00ff
EndChar

StartChar: asciitilde
Encoding: 126 126 308
Width: 449
GlyphClass: 2
Flags: MW
LayerCount: 2
Fore
SplineSet
26 209 m 1
 39 274 93 337 154 337 c 0
 177 337 202 321 228 305 c 0
 253 289 279 272 301 272 c 0
 329 272 378 289 400 339 c 1
 417 333 l 1
 386 226 321 213 297 213 c 0
 271 213 246 229 222 246 c 0
 197 263 173 278 148 278 c 0
 113 278 62 250 39 206 c 1
 26 209 l 1
EndSplineSet
EndChar

StartChar: cent
Encoding: 162 162 310
Width: 500
GlyphClass: 2
Flags: MW
LayerCount: 2
Fore
SplineSet
255.5 656.4 m 1
 294.1 656.4 l 1
 294.1 553.1 l 1
 344.8 552.9 397.4 540.7 428.8 524.5 c 1
 430.8 521.4 l 1
 407.3 437.6 l 1
 394 436.6 l 1
 367.4 482.2 332.6 511.1 294.1 512.2 c 1
 294.1 145.4 l 1
 295.4 145.4 296.7 145.4 298 145.4 c 0
 336 145.4 368.5 153.6 407.3 188.3 c 1
 411.4 188.3 l 1
 430.8 166.8 l 1
 393 118.6 349 97.5 294.1 94.6 c 1
 294.1 -13.6 l 1
 255.5 -13.6 l 1
 255.5 95.5 l 1
 145.2 107 75.2 194.9 75.2 327.3 c 0
 75.2 450 162 532.1 255.5 549.6 c 1
 255.5 656.4 l 1
255.5 153.3 m 1
 255.5 505.4 l 1
 204.4 485.7 165.1 424 165.1 332.4 c 0
 165.1 236.7 202.4 174.4 255.5 153.3 c 1
EndSplineSet
Colour: ff80cc
EndChar

StartChar: sterling
Encoding: 163 163 311
Width: 500
GlyphClass: 2
Flags: MW
LayerCount: 2
Fore
SplineSet
236.2 440.6 m 2
 236.2 364.5 l 1
 370.2 364.5 l 2
 375.9 364.5 378.1 362.2 378.1 357.7 c 2
 378.1 333.9 l 2
 378.1 324.8 363.4 320.2 352 320.2 c 2
 236.2 320.2 l 1
 235.1 191.9 194.1 131.7 157.8 97.6 c 1
 158.9 97.6 161.2 97.6 163.5 97.6 c 0
 286.1 97.6 281.7 47.6 353.2 47.6 c 0
 385 47.6 436 55.7 464.4 94.3 c 1
 483.7 82.9 l 1
 457.6 27.3 404.3 -11.4 333.9 -11.4 c 0
 237.4 -11.4 236.2 52.2 141.9 52.2 c 0
 104.4 52.2 96.5 37.5 96.5 26.1 c 0
 96.5 1.1 77.2 -11.4 53.4 -11.4 c 0
 33 -11.4 19.3 1.2 19.3 18.2 c 0
 19.3 38.6 44.3 55.6 73.8 71.5 c 1
 137.4 118.1 149.9 204.4 149.9 302.1 c 2
 149.9 320.2 l 1
 81.8 320.2 l 2
 76.1 320.2 74.9 321.3 74.9 327 c 2
 74.9 341.8 l 2
 74.9 350.9 81.8 364.5 101.1 364.5 c 2
 149.9 364.5 l 1
 149.9 386.1 l 2
 149.9 476.9 168.1 516.7 222.6 571.2 c 0
 279.4 628 348.6 647.3 412.2 647.3 c 0
 431.5 647.3 449.7 642.7 457.6 638.2 c 1
 458.8 634.8 l 1
 447.4 615.5 437.2 580.3 430.4 553 c 1
 419 551.9 l 1
 407.6 571.2 389.5 587.1 361.1 587.1 c 0
 303.2 587.1 236.2 517.8 236.2 440.6 c 2
EndSplineSet
EndChar

StartChar: currency
Encoding: 164 164 312
Width: 500
GlyphClass: 2
Flags: MW
LayerCount: 2
Fore
SplineSet
115.8 328.2 m 0
 115.8 245.3 168.1 176 248.7 176 c 0
 328.2 176 380.4 246.4 380.4 327 c 0
 380.4 412.2 321.4 478.1 251 478.1 c 0
 171.5 478.1 115.8 408.8 115.8 328.2 c 0
248.7 128.3 m 0
 203.3 128.3 162.3 141.9 126 169.2 c 1
 77.2 109 l 1
 30.7 154.4 l 1
 92 203.3 l 1
 62.5 238.5 47.7 280.4 47.7 327 c 0
 47.7 375.8 62.5 417.9 92 452 c 1
 32.9 498.5 l 1
 74.9 543.9 l 1
 127.2 486 l 1
 164.7 513.3 204.4 525.8 248.7 525.8 c 0
 295.3 525.8 336.2 512.1 372.5 483.7 c 1
 424.7 546.2 l 1
 469 499.6 l 1
 406.5 449.7 l 1
 434.9 415.6 449.7 374.7 449.7 327 c 0
 449.7 281.6 435 240.7 407.7 205.5 c 1
 466.7 155.6 l 1
 425.8 112.4 l 1
 373.6 170.3 l 1
 336.1 141.9 295.3 128.3 248.7 128.3 c 0
EndSplineSet
EndChar

StartChar: yen
Encoding: 165 165 313
Width: 500
GlyphClass: 2
Flags: MW
LayerCount: 2
Fore
SplineSet
53.4 260 m 2
 47.7 260 47.7 261.2 47.7 266.9 c 2
 47.7 282.8 l 2
 47.7 291.9 53.4 305.4 72.7 305.4 c 2
 186.3 305.4 l 1
 137.9 394.9 40.8 591.4 4.5 652.9 c 1
 21.5 649.5 45.5 649.5 62.5 649.5 c 0
 79.5 649.5 102.2 649.5 119.2 652.9 c 1
 162.3 541.2 199 452.2 261.7 342.8 c 1
 319.1 433.6 355.1 533.3 404.3 652.9 c 1
 415.7 649.5 432.7 649.5 446.3 649.5 c 0
 458.8 649.5 475.8 649.5 488.3 652.9 c 1
 391.5 483.5 340.5 383.3 300.1 305.4 c 1
 446.3 305.4 l 2
 450.8 305.4 454.2 303.2 454.2 298.7 c 2
 454.2 274.8 l 2
 454.2 264.6 439.5 260 428.1 260 c 2
 291.3 260 l 1
 291.6 237.1 291.9 212.9 292.3 188.5 c 1
 446.3 188.5 l 2
 450.8 188.5 454.2 186.2 454.2 181.7 c 2
 454.2 159 l 2
 454.2 148.8 439.5 144.2 428.1 144.2 c 2
 293.2 144.2 l 1
 294.6 81.4 296.6 23.9 298.7 -3.4 c 1
 282.8 0 261.2 0 246.4 0 c 0
 231.6 0 211.2 0 195.3 -3.4 c 1
 198.6 28.8 200.3 84.2 201.2 144.2 c 1
 53.4 144.2 l 2
 47.7 144.2 47.7 145.3 47.7 151 c 2
 47.7 165.8 l 2
 47.7 174.9 53.4 188.5 72.7 188.5 c 2
 201.7 188.5 l 1
 201.9 212.7 202 236.9 202.1 260 c 1
 53.4 260 l 2
EndSplineSet
EndChar

StartChar: brokenbar
Encoding: 166 166 314
Width: 205
GlyphClass: 2
Flags: MW
LayerCount: 2
Fore
SplineSet
129 674 m 1
 129 312 l 1
 81 312 l 1
 81 674 l 1
 129 674 l 1
129 161 m 1
 129 -201 l 1
 81 -201 l 1
 81 161 l 1
 129 161 l 1
EndSplineSet
EndChar

StartChar: section
Encoding: 167 167 315
Width: 483
GlyphClass: 2
Flags: MW
LayerCount: 2
Fore
SplineSet
147.5 387 m 1
 127.4 367.2 107 335.7 107 305 c 0
 107 211 217 165 293 126 c 0
 309.2 117.6 323.3 108.5 335.5 99 c 1
 355.6 118.8 376 150.3 376 181 c 0
 376 275 266 321 190 360 c 0
 173.8 368.4 159.7 377.5 147.5 387 c 1
125.1 407.3 m 1
 93.3 440.9 81 478.9 81 516 c 0
 81 582 144 658 244 658 c 0
 313 658 356 618 383 595 c 1
 386 590 l 1
 369 517 l 1
 355 515 l 1
 326 565 290 618 235 618 c 0
 188 618 150 584 150 536 c 0
 150 489 179 458 230 437 c 0
 311 404 433 342 433 219 c 0
 433 158.4 399.5 109.7 357.9 78.7 c 1
 389.7 45.1 402 7.1 402 -30 c 0
 402 -96 339 -172 239 -172 c 0
 170 -172 127 -132 100 -109 c 1
 97 -104 l 1
 114 -31 l 1
 128 -29 l 1
 157 -79 193 -132 248 -132 c 0
 295 -132 333 -98 333 -50 c 0
 333 -3 304 28 253 49 c 0
 172 82 50 144 50 267 c 0
 50 327.6 83.5 376.3 125.1 407.3 c 1
EndSplineSet
EndChar

StartChar: copyright
Encoding: 169 169 317
Width: 633
GlyphClass: 2
Flags: MW
LayerCount: 2
Fore
SplineSet
439 216 m 1
 419 185 376 152 321 152 c 0
 232 152 165 222 165 301 c 0
 165 385 235 457 323 457 c 0
 393 457 393 442 422 442 c 1
 436 364 l 1
 416 360 l 1
 399 406 376 434 319 434 c 0
 279 434 227 409 227 311 c 0
 227 238 262 181 330 181 c 0
 381 181 409 215 420 231 c 1
 439 216 l 1
EndSplineSet
Refer: 2164 -1 N 1 0 0 1 0 0 2
Colour: ff80cc
EndChar

StartChar: ordfeminine
Encoding: 170 170 318
Width: 297
GlyphClass: 2
Flags: MW
LayerCount: 2
Fore
SplineSet
189 504 m 1
 138 489 l 2
 90 475 79 455 79 427 c 0
 79 408 95 390 123 390 c 0
 142 390 161 401 178 414 c 0
 183 418 186 422 186 430 c 2
 189 504 l 1
238 411 m 0
 238 399 241 392 248 392 c 0
 257 392 266 401 272 405 c 1
 274 404 l 1
 284 391 l 1
 264 366 249 358 229 358 c 0
 198 358 191 384 190 394 c 1
 186 394 l 1
 153 366 138 358 104 358 c 0
 58 358 26 379 26 425 c 0
 26 467 66 500 129 515 c 2
 185 528 l 2
 187 529 189 531 189 535 c 0
 189 605 154 609 132 609 c 0
 102 609 81 582 64 554 c 1
 56 554 l 1
 45 598 l 1
 47 600 l 1
 63 613 91 637 138 637 c 0
 185 637 240 620 240 536 c 0
 240 529 238 429 238 411 c 0
EndSplineSet
EndChar

StartChar: logicalnot
Encoding: 172 172 320
Width: 560
GlyphClass: 2
Flags: MW
LayerCount: 2
Fore
SplineSet
483 133 m 1
 483 357 l 1
 24 357 l 1
 24 401 l 1
 537 401 l 1
 537 133 l 1
 483 133 l 1
EndSplineSet
EndChar

StartChar: registered
Encoding: 174 174 322
Width: 633
GlyphClass: 2
Flags: MW
LayerCount: 2
Fore
SplineSet
431 370 m 0
 431 331 404 306 373 296 c 1
 421 214 l 2
 432 195.2 448 190 464 193 c 1
 468 176 l 1
 456 171 444 169 432 169 c 0
 412 169 388 175 371 204 c 2
 323 284 l 1
 319 287 291 288 286 288 c 1
 286 216 l 2
 286 203 290 196.1 298 195 c 2
 312 193 l 2
 320 192 323 192 323 187 c 2
 323 171 l 1
 321 169 l 1
 321 169 280 171 262 171 c 0
 242 171 201 169 201 169 c 1
 199 171 l 1
 199 188 l 2
 199 192 202 192 209 193 c 2
 226 195 l 2
 234 196 239 203 239 216 c 2
 239 396 l 2
 239 413 228 421 216 421 c 2
 205 421 l 2
 198 421 197 423 197 426 c 2
 197 443 l 1
 199 445 l 1
 335 445 l 2
 410 445 431 400 431 370 c 0
376 370 m 0
 376 404 360 421 326 421 c 0
 301 421 286 414 286 396 c 2
 286 312 l 1
 318 312 l 2
 348 312 376 319 376 370 c 0
EndSplineSet
Refer: 2164 -1 N 1 0 0 1 0 0 2
Colour: ff80cc
EndChar

StartChar: macron
Encoding: 175 175 323
Width: 397
GlyphClass: 2
Flags: MW
LayerCount: 2
Fore
SplineSet
315 529 m 2
 71 529 l 2
 62 529 59 537 59 544 c 0
 59 556 69 573 81 573 c 2
 325 573 l 2
 335 573 339 565 339 559 c 0
 339 547 328 529 315 529 c 2
EndSplineSet
EndChar

StartChar: degree
Encoding: 176 176 324
Width: 267
GlyphClass: 2
Flags: MW
LayerCount: 2
Fore
SplineSet
200 524 m 0
 200 557 179 597 134 597 c 0
 91 597 67 560 67 524 c 0
 67 489 92 454 134 454 c 0
 175 454 200 490 200 524 c 0
34 525 m 0
 34 581 79 625 134 625 c 0
 189 625 233 581 233 525 c 0
 233 470 189 426 134 426 c 0
 79 426 34 470 34 525 c 0
EndSplineSet
EndChar

StartChar: uni00B2
Encoding: 178 178 326
Width: 311
GlyphClass: 2
Flags: MW
LayerCount: 2
Fore
SplineSet
71 615 m 1
 58 615 l 1
 47 657 l 1
 49 659 l 1
 71 679 102 689 142 689 c 0
 176 689 203 682 223 668 c 0
 245 653.3 256 632.3 256 605 c 0
 256 577.7 238.7 547.7 204 515 c 2
 151 463 l 2
 127.7 439.7 116 424.3 116 417 c 1
 159 417 l 2
 179 417 212 418.7 258 422 c 1
 256 412.7 255 401 255 387 c 0
 255 379.7 256 371.3 258 362 c 1
 222.7 363.3 192 364 166 364 c 0
 146.7 364 104.3 363.3 39 362 c 1
 38 364 l 1
 38 386.7 62.3 423 111 473 c 1
 151 512 l 2
 173 534.7 184 566 184 606 c 0
 184 621.3 178.7 634.3 168 645 c 0
 158.7 655 148.7 660 138 660 c 0
 110 660 87.7 645 71 615 c 1
EndSplineSet
EndChar

StartChar: uni00B3
Encoding: 179 179 327
Width: 313
GlyphClass: 2
Flags: MW
LayerCount: 2
Fore
SplineSet
171 399 m 0
 185.7 411 193 430.7 193 458 c 0
 193 499.3 173.3 520 134 520 c 0
 124.7 520 118 519.7 114 519 c 1
 114 544 l 1
 162.7 546 187 568.7 187 612 c 0
 187 626 183.3 637.7 176 647 c 0
 168 656.3 159 661 149 661 c 0
 131 661 117.3 657 108 649 c 0
 100 643 91.3 631.3 82 614 c 1
 69 614 l 1
 58 656 l 1
 59 659 l 1
 81.7 678.3 113 688 153 688 c 0
 180.3 688 202.7 683 220 673 c 0
 239.3 661 249 643.3 249 620 c 0
 249 576.7 228 549.7 186 539 c 1
 186 537 l 1
 208 535 226 528 240 516 c 0
 256.7 502 265 483.3 265 460 c 0
 265 425.3 251 399 223 381 c 0
 199.7 365.7 170 358 134 358 c 0
 99.3 358 70.7 368 48 388 c 1
 46 390 l 1
 58 432 l 1
 70 433 l 1
 80.7 414.3 88.7 402.7 94 398 c 0
 103.3 390 117 386 135 386 c 0
 149 386 161 390.3 171 399 c 0
EndSplineSet
EndChar

StartChar: mu
Encoding: 181 181 329
Width: 486
GlyphClass: 2
Flags: MW
LayerCount: 2
Fore
SplineSet
101 -234 m 0
 85 -234 47 -210 47 -169 c 0
 47 -118 63 -71 63 -8 c 0
 63 25 54 76 54 134 c 2
 54 322 l 2
 54 350 44 429 44 429 c 1
 67 429 98 436 126 439 c 1
 126 439 129 375 129 343 c 2
 129 147 l 2
 129 82 145 35 198 35 c 0
 252 35 302 66 324 99 c 1
 324 429 l 1
 348 429 374 436 399 439 c 1
 399 124 l 2
 399 61 399 37 425 37 c 0
 438 37 448 52 459 79 c 1
 483 68 l 1
 464 18 444 -10 392 -10 c 0
 354 -10 324 21 324 60 c 1
 284 16 240 -10 179 -10 c 0
 157 -10 133 0 122 13 c 1
 116 13 110 9 110 4 c 0
 110 -61 142 -131 142 -174 c 0
 142 -215 124 -234 101 -234 c 0
EndSplineSet
EndChar

StartChar: paragraph
Encoding: 182 182 330
Width: 602
GlyphClass: 2
Flags: MW
LayerCount: 2
Fore
SplineSet
367 574 m 2
 367 -161 l 2
 367 -188 384 -199 407 -199 c 0
 430 -199 448 -192 448 -161 c 2
 448 574 l 2
 448 605 430 612 407 612 c 0
 384 612 367 601 367 574 c 2
408 645 m 0
 443 645 507 648 507 648 c 1
 508 645 l 1
 500 592 498 520 498 445 c 2
 498 -32 l 2
 498 -107 500 -175 508 -232 c 1
 506 -235 l 1
 506 -235 441 -232 407 -232 c 0
 373 -232 309 -235 309 -235 c 1
 307 -232 l 1
 315 -175 317 -107 317 -32 c 2
 317 285 l 1
 308 283 300 282 285 282 c 0
 139 282 57 347 57 481 c 0
 57 560 115 647 247 647 c 0
 322 647 381 645 408 645 c 0
EndSplineSet
EndChar

StartChar: uni00B9
Encoding: 185 185 333
Width: 384
GlyphClass: 2
Flags: MW
LayerCount: 2
Fore
SplineSet
243 464 m 2
 243 425.3 245.3 392 250 364 c 1
 249 362 l 1
 237 363.3 224.3 364 211 364 c 0
 198.3 364 186.3 363.3 175 362 c 1
 175 364 l 1
 179 388 181 421.3 181 464 c 2
 181 594 l 2
 181 616.7 177.7 628 171 628 c 0
 147.7 628 128.3 627 113 625 c 1
 112 648 l 1
 134 653.3 178.7 666.7 246 688 c 0
 248 688 249 687 249 685 c 0
 245 657.7 243 629 243 599 c 2
 243 464 l 2
EndSplineSet
EndChar

StartChar: ordmasculine
Encoding: 186 186 334
Width: 349
GlyphClass: 2
Flags: MW
LayerCount: 2
Fore
SplineSet
39 484 m 0
 39 569 91 621 177 621 c 0
 275 621 311 557 311 490 c 0
 311 422 266 358 172 358 c 0
 98 358 39 412 39 484 c 0
171 596 m 0
 121 596 97 548 97 494 c 0
 97 445 123 386 183 386 c 0
 210 386 254 402 254 474 c 0
 254 554 221 596 171 596 c 0
EndSplineSet
EndChar

StartChar: onequarter
Encoding: 188 188 336
Width: 660
GlyphClass: 2
Flags: MW
LayerCount: 2
Fore
SplineSet
557 601 m 1
 598 593 l 1
 140 -62 l 1
 98 -54 l 1
 557 601 l 1
EndSplineSet
Refer: 1056 8308 N 1 0 0 1 348 -446 2
Refer: 333 185 N 1 0 0 1 -3 -49 2
LCarets2: 2 215 424
Colour: ff80cc
EndChar

StartChar: onehalf
Encoding: 189 189 337
Width: 660
GlyphClass: 2
Flags: MW
LayerCount: 2
Fore
SplineSet
532 601 m 1
 574 593 l 1
 115 -62 l 1
 74 -54 l 1
 532 601 l 1
EndSplineSet
Refer: 333 185 N 1 0 0 1 -1 -49 2
Refer: 326 178 N 1 0 0 1 358 -443 2
LCarets2: 2 208 414
Colour: ff80cc
EndChar

StartChar: threequarters
Encoding: 190 190 338
Width: 660
GlyphClass: 2
Flags: MW
LayerCount: 2
Fore
SplineSet
562 601 m 1
 603 593 l 1
 145 -62 l 1
 103 -54 l 1
 562 601 l 1
EndSplineSet
Refer: 1056 8308 N 1 0 0 1 352 -444 2
Refer: 327 179 N 1 0 0 1 -2 -51 2
LCarets2: 2 260 447
Colour: ff80cc
EndChar

StartChar: Adieresis.alt
Encoding: 1114112 -1 344
Width: 629
GlyphClass: 2
Flags: MW
LayerCount: 2
Fore
SplineSet
143 709 m 0
 143 734 164 754 189 754 c 0
 214 754 234 734 234 709 c 0
 234 684 214 664 189 664 c 0
 164 664 143 684 143 709 c 0
418 709 m 0
 418 734 439 754 464 754 c 0
 489 754 509 734 509 709 c 0
 509 684 489 664 464 664 c 0
 439 664 418 684 418 709 c 0
EndSplineSet
Refer: 24 65 N 1 0 0 1 0 0 2
Position2: "'cpsp' Versalabstaende 1" dx=5 dy=0 dh=10 dv=0
Colour: ff80cc
EndChar

StartChar: Aring
Encoding: 197 197 345
Width: 629
GlyphClass: 2
Flags: MW
LayerCount: 2
Fore
SplineSet
324 770 m 0
 293 770 274 744 274 714 c 0
 274 686 293 658 324 658 c 0
 355 658 374 686 374 714 c 0
 374 745 354 770 324 770 c 0
237 714 m 0
 237 760 278 797 324 797 c 0
 370 797 411 761 411 714 c 0
 411 677.1 384.7 644.9 348.8 634.5 c 1
 440.1 415.4 564.8 94.5 613 -3 c 1
 596 0 570 0 553 0 c 0
 536 0 520 0 503 -3 c 1
 496.9 19.2 474.3 97.2 425.3 228.3 c 1
 401 230 346 231 308 231 c 0
 273.5 231 204 230 179 228.3 c 1
 143.3 140.8 112.4 58.3 96 -3 c 1
 84 0 62 0 51 0 c 0
 40 0 28 0 16 -3 c 1
 113.4 210.1 208 420.4 300.7 634.2 c 1
 265 644.1 237 676 237 714 c 0
407.3 275.5 m 1
 380.4 345.2 347.1 427.4 306 521.8 c 1
 304 521.8 l 1
 198.6 275.9 l 1
 220.6 274.7 274.1 273 303 273 c 0
 332.7 273 374.3 274 407.3 275.5 c 1
EndSplineSet
Position2: "'cpsp' Versalabstaende 1" dx=5 dy=0 dh=10 dv=0
EndChar

StartChar: AE
Encoding: 198 198 346
Width: 802
GlyphClass: 2
Flags: MW
AnchorPoint: "top_punkt" 322 700 basechar 0
AnchorPoint: "above" 460 805 basechar 0
AnchorPoint: "cedilla" 58 8 basechar 0
AnchorPoint: "below" 270 -108 basechar 0
LayerCount: 2
Fore
SplineSet
222 278.5 m 1
 170.6 171.8 125.5 69.1 98 -3 c 1
 86 0 64 0 53 0 c 0
 42 0 30 0 18 -3 c 1
 124 200 221 410 366 645.7 c 1
 366.2 645.3 l 1
 368 648 l 1
 368 648 385 645 419 645 c 2
 632 645 l 2
 653 645 676 646 692 648 c 1
 694 645 l 1
 693 631 692 622 692 614 c 0
 692 605 693 596 694 588 c 1
 692 584 l 1
 692 584 614.7 594.3 509 594.3 c 0
 433.5 594.3 419.2 585.3 424.4 545.5 c 1
 438.6 475.1 454.6 402.4 470.7 333 c 1
 582.8 333.2 637.5 338.1 695 343 c 1
 698 340 l 1
 696 331 695 321 695 312 c 0
 695 303 696 293 698 284 c 1
 695 281 l 1
 633.7 287.2 535.4 290.3 480.5 290.9 c 1
 502 199.9 523 116.9 539.5 55.8 c 1
 639.3 59.2 752 66 752 66 c 1
 754 62 l 1
 753 54 752 39 752 29 c 0
 752 19 753 14 754 0 c 1
 752 -3 l 1
 736 -1 713 0 692 0 c 2
 555 0 l 1
 553.5 0 l 1
 500 0 l 2
 483 0 467 0 450 -3 c 1
 450 32.7 436.6 117.3 405.9 279.4 c 1
 383.7 279.8 361.3 280 340 280 c 0
 308.7 280 259.3 279.3 222 278.5 c 1
397.2 324.7 m 1
 385.7 384.7 372.2 453.9 356.5 533.5 c 1
 354.5 533.5 l 1
 318.2 469.5 280.5 397.6 245 325.7 c 1
 274.6 325.1 310.2 324 335 324 c 0
 352.9 324 375.1 324.3 397.2 324.7 c 1
EndSplineSet
Position2: "'cpsp' Versalabstaende 1" dx=5 dy=0 dh=10 dv=0
EndChar

StartChar: Ccedilla
Encoding: 199 199 347
Width: 677
GlyphClass: 2
Flags: MW
LayerCount: 2
Fore
SplineSet
367 -100 m 0
 348 -100 338 -101 322 -106 c 1
 316 -100 l 1
 353.6 -9.8 l 1
 147.2 -4 52 145.4 52 315 c 0
 52 512 211 658 380 658 c 0
 502 658 598 608 598 608 c 1
 600 605 l 1
 589 562.5 585.6 545 582 494 c 1
 570 493 l 1
 529 575 456 611 366 611 c 0
 284 611 155 537 155 334 c 0
 155 178 248.2 41 375 41 c 0
 468 41 528 67 599 145 c 1
 606 142 l 1
 609.5 133 611.5 111 612.1 99.5 c 1
 550.6 25.1 472.1 -5.1 388 -9.4 c 1
 365 -71 l 1
 373 -69 382 -68 391 -68 c 0
 431 -68 462 -92 462 -130 c 0
 462 -173 416 -204 355 -204 c 0
 323 -204 306 -198 281 -187 c 1
 281 -175 284 -168 291 -161 c 1
 318 -171 329 -175 349 -175 c 0
 379 -175 400 -161 400 -135 c 0
 400 -114 390 -100 367 -100 c 0
EndSplineSet
Position2: "'cpsp' Versalabstaende 1" dx=5 dy=0 dh=10 dv=0
Colour: ff00ff
EndChar

StartChar: Eth
Encoding: 208 208 356
Width: 710
GlyphClass: 2
Flags: MW
LayerCount: 2
Fore
SplineSet
190 82 m 2
 190 50 201 42 299 42 c 0
 440 42 555 82 555 284 c 0
 555 438 490 604 274 604 c 0
 225 604 190 599 190 564 c 2
 190 326 l 1
 288 326 l 1
 288 287 l 1
 190 287 l 1
 190 82 l 2
147 645 m 0
 211 645 248 648 312 648 c 0
 504 648 658 494 658 308 c 0
 658 62 471 -2 330 -2 c 0
 227 -2 218 0 147 0 c 0
 112 0 95 -3 95 -3 c 1
 94 0 l 1
 102 54 104 125 104 200 c 2
 104 287 l 1
 17 287 l 1
 17 326 l 1
 104 326 l 1
 104 445 l 2
 104 520 102 588 94 645 c 1
 96 648 l 1
 96 648 113 645 147 645 c 0
EndSplineSet
Position2: "'cpsp' Versalabstaende 1" dx=5 dy=0 dh=10 dv=0
Colour: ff80cc
EndChar

StartChar: Odieresis.alt
Encoding: 1114113 -1 362
Width: 741
GlyphClass: 2
Flags: MW
LayerCount: 2
Fore
SplineSet
94 709 m 0
 94 734 115 754 140 754 c 0
 165 754 185 734 185 709 c 0
 185 684 165 664 140 664 c 0
 115 664 94 684 94 709 c 0
557 709 m 0
 557 734 577 754 602 754 c 0
 627 754 647 734 647 709 c 0
 647 684 627 664 602 664 c 0
 577 664 557 684 557 709 c 0
EndSplineSet
Refer: 262 79 N 1 0 0 1 0 0 2
Position2: "'cpsp' Versalabstaende 1" dx=5 dy=0 dh=10 dv=0
Colour: ff80cc
EndChar

StartChar: multiply
Encoding: 215 215 363
Width: 527
GlyphClass: 2
Flags: MW
LayerCount: 2
Fore
SplineSet
298 230 m 1
 421 108 l 1
 386 73 l 1
 264 195 l 1
 142 73 l 1
 106 108 l 1
 229 230 l 1
 106 353 l 1
 142 388 l 1
 264 265 l 1
 386 388 l 1
 421 353 l 1
 298 230 l 1
EndSplineSet
EndChar

StartChar: Oslash
Encoding: 216 216 364
Width: 741
GlyphClass: 2
Flags: MW
AnchorPoint: "below" 371 -113 basechar 0
AnchorPoint: "cedilla" 371 0 basechar 0
LayerCount: 2
Fore
SplineSet
108 -13 m 1
 89 -13 75 4 72 19 c 1
 131 91.6 l 1
 82.1 146 52 220.3 52 310 c 0
 52 506 189 658 368 658 c 0
 435.6 658 497.6 639.5 548.8 606 c 1
 591 658 l 1
 610 658 624.7 642.9 627 628 c 1
 586 577.3 l 1
 649.7 519.5 689 433.6 689 329 c 0
 689 129 560 -10 369 -10 c 0
 292.5 -10 221.4 14.3 166 58.6 c 1
 108 -13 l 1
355 614 m 0
 259 614 155 537 155 327 c 0
 155 262.2 168 207.8 189.8 164.1 c 1
 508.6 556.5 l 1
 469.6 595.3 417.2 614 355 614 c 0
538.5 518.6 m 1
 216.6 121.1 l 1
 260.9 63.5 324.1 34 389 34 c 0
 503 34 586 131 586 310 c 0
 586 400.2 569.1 469.2 538.5 518.6 c 1
EndSplineSet
Position2: "'cpsp' Versalabstaende 1" dx=5 dy=0 dh=10 dv=0
Colour: ff80cc
EndChar

StartChar: Udieresis.alt
Encoding: 1114114 -1 368
Width: 692
GlyphClass: 2
Flags: MW
LayerCount: 2
Fore
SplineSet
240 709 m 0
 240 734 260 754 285 754 c 0
 310 754 330 734 330 709 c 0
 330 684 310 664 285 664 c 0
 260 664 240 684 240 709 c 0
414 709 m 0
 414 734 434 754 459 754 c 0
 484 754 504 734 504 709 c 0
 504 684 484 664 459 664 c 0
 434 664 414 684 414 709 c 0
EndSplineSet
Refer: 268 85 N 1 0 0 1 0 0 2
Position2: "'cpsp' Versalabstaende 1" dx=5 dy=0 dh=10 dv=0
Colour: ff9cb0
EndChar

StartChar: Thorn
Encoding: 222 222 370
Width: 545
GlyphClass: 2
Flags: MW
LayerCount: 2
Fore
SplineSet
104 445 m 2
 104 520 102 588 94 645 c 1
 96 648 l 1
 108 646 135 645 147 645 c 0
 159 645 186 646 198 648 c 1
 200 645 l 1
 194.9 611.1 192.3 569.5 191 524.2 c 1
 225.9 526 259.5 526 278 526 c 0
 463 526 503 414 503 343 c 0
 503 268 442 147 264 147 c 0
 230.7 147 205.6 148.8 190.3 153.3 c 1
 191.1 96.7 193.7 44.9 200 0 c 1
 198 -3 l 1
 186 -1 159 0 147 0 c 0
 135 0 108 -1 96 -3 c 1
 94 0 l 1
 102 54 104 125 104 200 c 2
 104 445 l 2
190 192.4 m 1
 200.3 189.7 223.5 188 259 188 c 0
 331 188 405 214 405 343 c 0
 405 463 336 485 277 485 c 0
 258.6 485 212.1 480.3 190.1 474.6 c 1
 190 464.8 190 454.9 190 445 c 2
 190 200 l 2
 190 197.5 190 194.9 190 192.4 c 1
EndSplineSet
Position2: "'cpsp' Versalabstaende 1" dx=5 dy=0 dh=10 dv=0
EndChar

StartChar: germandbls
Encoding: 223 223 371
Width: 545
GlyphClass: 2
Flags: MW
LayerCount: 2
Fore
SplineSet
345 -10 m 0
 294.5 -10 249 13 241 18 c 1
 240 21 l 1
 251 40 252 52 259 79 c 1
 270 80 l 1
 281 60 316 30 345 30 c 0
 382 30 411 53 411 146 c 0
 411 233 355 332 271 396 c 1
 271 409 l 1
 338 461 361 501 361 574 c 0
 361 628 336 658 283 658 c 0
 179 658 179 550 179 442 c 2
 179 200 l 2
 179 125 179.7 57 188 0 c 1
 186 -3 l 1
 174 -1 151 0 139 0 c 0
 127 0 104 -1 92 -3 c 1
 90 0 l 1
 98 54.3 99 125 99 200 c 2
 99 371 l 2
 99 383 96 385 87 385 c 2
 45 385 l 2
 40 385 35.8 388.7 37 393 c 2
 44 419 l 2
 45.9 426 49.3 429 67 429 c 0
 98 429 99 438.9 99 477 c 0
 99 642 213 698 292 698 c 0
 396 698 440 635 440 587 c 0
 440 510 411 464 341 411 c 1
 341 409 l 1
 420 357 499 272 499 163 c 0
 499 111.6 487.6 70.5 465.7 42 c 0
 438.6 6.7 395.9 -10 345 -10 c 0
EndSplineSet
EndChar

StartChar: ae
Encoding: 230 230 378
Width: 687
GlyphClass: 2
Flags: MW
AnchorPoint: "cedilla" 167 -5 basechar 0
AnchorPoint: "below" 327 -109 basechar 0
AnchorPoint: "ogonek" 604 30 basechar 0
AnchorPoint: "top_punkt" 339 549 basechar 0
AnchorPoint: "above" 340 645 basechar 0
LayerCount: 2
Fore
SplineSet
296 215 m 1
 163 203 121 157 121 106 c 0
 121 61 145 40 192 40 c 0
 228 40 271 61 285 100 c 0
 291.4 117.9 296 165 296 215 c 1
375 258 m 1
 515 266 562 245 562 306 c 0
 562 338 537 394 489 394 c 0
 426 394 383 343 375 258 c 1
202 394 m 0
 157.5 394 115 350 89 305 c 1
 76 306 l 1
 60 373 l 1
 63 377 l 1
 87.5 397.5 138.5 439 211 439 c 0
 235 439 311 436 348 369 c 1
 381 414 433 439 490 439 c 0
 604 439 646 343 646 309 c 0
 646 278.1 640 254 620 237 c 1
 584.3 217.3 509.5 225.4 374 218 c 1
 374 112 423 44 498 44 c 0
 552 44 591 77 621 112 c 1
 641 84 l 1
 612 30 550 -10 484 -10 c 0
 393 -10 360 34 340 59 c 1
 294 15 245 -10 190 -10 c 0
 85 -10 39 33 39 101 c 0
 39 184 126 243 296 255 c 1
 294.8 348.6 274.8 394 202 394 c 0
EndSplineSet
EndChar

StartChar: ccedilla
Encoding: 231 231 379
Width: 429
GlyphClass: 2
Flags: MW
LayerCount: 2
Fore
SplineSet
233 -94 m 0
 214 -94 204 -95 188 -100 c 1
 182 -94 l 1
 217.4 -9 l 1
 107.8 0.9 38 87.3 38 218 c 0
 38 354 147 439 251 439 c 0
 301 439 353 427 384 411 c 1
 386 408 l 1
 363 326 l 1
 350 325 l 1
 323.5 370.5 288.5 399 250 399 c 0
 184 399 126 333 126 223 c 0
 126 106 183 40 256 40 c 0
 293.2 40 325 48 363 82 c 1
 367 82 l 1
 386 61 l 1
 348.9 13.6 305.6 -7 251.6 -9.7 c 1
 231 -65 l 1
 239 -63 248 -62 257 -62 c 0
 297 -62 328 -86 328 -124 c 0
 328 -167 282 -198 221 -198 c 0
 189 -198 172 -192 147 -181 c 1
 147 -169 150 -162 157 -155 c 1
 184 -165 195 -169 215 -169 c 0
 245 -169 266 -155 266 -129 c 0
 266 -108 256 -94 233 -94 c 0
EndSplineSet
Colour: ff00ff
EndChar

StartChar: eth
Encoding: 240 240 388
Width: 495
GlyphClass: 2
Flags: MW
LayerCount: 2
Fore
SplineSet
252 31 m 0
 299 31 368 61 368 223 c 0
 368 269 364 313 352 356 c 1
 329 385 293 398 250 398 c 0
 149 398 124 301 124 225 c 0
 124 111 181 31 252 31 c 0
34 208 m 0
 34 381 170 439 252 439 c 0
 278 439 304 435 329 425 c 1
 307 478 276 526 239 572 c 1
 130 499 l 1
 108 531 l 1
 213 602 l 1
 197 618 l 2
 176 640 150 659 126 676 c 1
 145 698 l 1
 180 679 216 655 251 627 c 1
 357 698 l 1
 379 666 l 1
 282 601 l 1
 300 583 l 2
 389.5 493.5 456 383 456 237 c 0
 456 68 347 -10 235 -10 c 0
 111 -10 34 104 34 208 c 0
EndSplineSet
EndChar

StartChar: oslash
Encoding: 248 248 390
Width: 500
GlyphClass: 2
Flags: MW
AnchorPoint: "below" 247.8 -107 basechar 0
AnchorPoint: "ogonek" 386.2 44 basechar 0
AnchorPoint: "cedilla" 247.1 -3 basechar 0
LayerCount: 2
Fore
SplineSet
424 454 m 1
 455 431 l 1
 409.9 376.1 l 1
 444.2 336.9 462 281.2 462 214 c 0
 462 83 382 -10 250 -10 c 0
 199.5 -10 156.8 3.7 123.3 27.2 c 1
 78 -28 l 1
 48 -2 l 1
 93.5 53.2 l 1
 57.5 91.9 38 145.3 38 205 c 0
 38 347 123 439 254 439 c 0
 305.7 439 348.4 426 381.3 402.2 c 1
 424 454 l 1
247 399 m 0
 153 399 126 309 126 222 c 0
 126 189.3 130.9 149.8 144.6 115.1 c 1
 342.7 355.4 l 1
 323.5 383.2 293.4 399 247 399 c 0
360.9 316.4 m 1
 164.8 77.6 l 1
 185.3 49.4 215.5 30 259 30 c 0
 326 30 374 100.9 374 196 c 0
 374 242.8 370.9 283.8 360.9 316.4 c 1
EndSplineSet
Colour: ff80cc
EndChar

StartChar: thorn
Encoding: 254 254 393
Width: 515
GlyphClass: 2
Flags: MW
AnchorPoint: "above" 278 646 basechar 0
AnchorPoint: "top_punkt" 279 551 basechar 0
LayerCount: 2
Fore
SplineSet
163 306 m 1
 163 72 l 1
 197 31 231 29 248 29 c 0
 354 29 379 121 379 208 c 0
 379 353.7 313 388 269 388 c 0
 234 388 185 359 163 306 c 1
163 -32 m 2
 163 -107.2 164.5 -175 173 -232 c 1
 171 -235 l 1
 171 -235 157.3 -232 123 -232 c 0
 88 -232 74 -235 74 -235 c 1
 73 -232 l 1
 81.5 -178.5 83 -106.5 83 -32 c 2
 83 482 l 2
 83 558 80.7 627.3 73 670 c 1
 75 673 l 1
 115.5 676 138.9 688 164 698 c 1
 170.3 698 173 695 173 688 c 0
 165.3 626.7 163 575 163 500 c 2
 163 392 l 1
 162 359 l 1
 181.3 390.3 225.8 439 295 439 c 0
 392 439 475 340 475 235 c 0
 475 86 368.8 -10 253 -10 c 0
 217 -10 189 -2 163 12 c 1
 163 -32 l 2
EndSplineSet
EndChar

StartChar: Aogonek
Encoding: 260 260 399
Width: 629
GlyphClass: 2
Flags: MW
LayerCount: 2
Fore
SplineSet
545 -163 m 1
 518 -196 480 -219 446 -219 c 0
 397 -219 367 -190 367 -143 c 0
 367 -74.2 433.7 -16 494.9 24.9 c 1
 483.6 62.5 461.8 130.7 425.3 228.3 c 1
 401 230 346 231 308 231 c 0
 273.5 231 204 230 179 228.3 c 1
 143.3 140.8 112.4 58.3 96 -3 c 1
 84 0 62 0 51 0 c 0
 40 0 28 0 16 -3 c 1
 117 218 215 436 311 658 c 1
 339 658 l 1
 431 439 563 98 613 -3 c 1
 596 0 570 0 553 0 c 0
 536.8 0 521.5 -2.6 505.3 -2.6 c 1
 458.9 -49.3 433 -83.6 433 -132 c 0
 433 -153 449 -175 475 -175 c 0
 492 -175 514 -160 528 -145 c 1
 531 -146 l 1
 545 -163 l 1
407.3 275.5 m 1
 380.4 345.2 347.1 427.4 306 521.8 c 1
 304 521.8 l 1
 198.6 275.9 l 1
 220.6 274.7 274.1 273 303 273 c 0
 332.7 273 374.3 274 407.3 275.5 c 1
EndSplineSet
Position2: "'cpsp' Versalabstaende 1" dx=5 dy=0 dh=10 dv=0
Colour: ff80cc
EndChar

StartChar: aogonek
Encoding: 261 261 400
Width: 481
GlyphClass: 2
Flags: MW
LayerCount: 2
Fore
SplineSet
445 -153 m 1
 418 -186 380 -209 346 -209 c 0
 297 -209 267 -180 267 -133 c 0
 267 -82.1 303.5 -37 347.2 -0.4 c 1
 330 8.9 316.8 24.9 310.1 48 c 1
 306 48 l 1
 253 3 225 -10 170 -10 c 0
 96 -10 45 24 45 98 c 0
 45 166 109 220 211 243 c 2
 304 264 l 2
 307 265 311 269 311 276 c 0
 311 389 251 394 215 394 c 0
 167 394 133 354 105 309 c 1
 92 310 l 1
 75 377 l 1
 78 381 l 1
 103 402 149 439 225 439 c 0
 301 439 390 412 390 277 c 0
 390 266 387.2 155 387.2 126 c 0
 387.2 81.5 393.7 57.3 403.9 48 c 0
 410 42.4 423.3 40.5 433.2 40.5 c 0
 440.8 40.5 449.3 41.9 460.2 45.7 c 1
 467.6 21 l 1
 444.2 -3.8 413.6 -9.9 388.5 -10 c 1
 352.7 -48.3 333 -79.8 333 -122 c 0
 333 -143 349 -165 375 -165 c 0
 392 -165 414 -150 428 -135 c 1
 431 -136 l 1
 445 -153 l 1
310 225 m 1
 225 202 l 2
 147 181 126 147 126 102 c 0
 126 71 155 41 200 41 c 0
 230 41 264 59 292 80 c 0
 300 86 306 93 306 106 c 2
 310 225 l 1
EndSplineSet
Colour: ff80cc
EndChar

StartChar: Dcroat
Encoding: 272 272 411
Width: 710
GlyphClass: 2
Flags: MW
LayerCount: 2
Fore
SplineSet
190 82 m 2
 190 50 201 42 299 42 c 0
 440 42 555 82 555 284 c 0
 555 438 490 604 274 604 c 0
 225 604 190 599 190 564 c 2
 190 327 l 1
 344 327 l 1
 344 287 l 1
 190 287 l 1
 190 82 l 2
147 645 m 0
 211 645 248 648 312 648 c 0
 504 648 658 494 658 308 c 0
 658 62 471 -2 330 -2 c 0
 227 -2 218 0 147 0 c 0
 112 0 95 -3 95 -3 c 1
 94 0 l 1
 102 54 104 125 104 200 c 2
 104 287 l 1
 17 287 l 1
 17 327 l 1
 104 327 l 1
 104 445 l 2
 104 520 102 588 94 645 c 1
 96 648 l 1
 96 648 113 645 147 645 c 0
EndSplineSet
Position2: "'cpsp' Versalabstaende 1" dx=5 dy=0 dh=10 dv=0
Colour: ff80cc
EndChar

StartChar: dcroat
Encoding: 273 273 412
Width: 530
GlyphClass: 2
Flags: MW
LayerCount: 2
Fore
SplineSet
537 572 m 1
 538 533 l 1
 441.3 533 l 1
 441.1 522.4 441 511.5 441 500 c 2
 441 192 l 2
 441 117 450 43 458 0 c 1
 456 -3 l 1
 443 -1 424.1 0 411.5 0 c 0
 397 0 390.3 -1.3 377 -3 c 0
 371 -3 368 -2 368 0 c 2
 363 58 l 1
 361 58 l 1
 325 11.5 280 -10 232 -10 c 0
 124 -10 51 90 51 213 c 0
 51 349 146.8 439 277 439 c 0
 297 439 338 430 361 417 c 1
 361 482 l 2
 361 499.2 360.9 516.3 360.7 533 c 1
 241 533 l 1
 241 572 l 1
 360 572 l 1
 358.9 613.3 356.5 649.7 352 675 c 1
 354 678 l 1
 394.5 681 415.9 688 441 698 c 1
 447.3 698 450 695 450 688 c 0
 446.8 648.2 444 612.3 442.4 572 c 1
 537 572 l 1
361 113 m 1
 361 341 l 1
 337 379 313 399 266 399 c 0
 217.6 399 138 371 138 221 c 0
 138 96 184 42 238 42 c 0
 278.5 42 324.5 66.5 361 113 c 1
EndSplineSet
Colour: ff80cc
EndChar

StartChar: dotlessi
Encoding: 305 305 416
Width: 260
GlyphClass: 2
Flags: MW
AnchorPoint: "middle" 131 215 basechar 0
AnchorPoint: "cedilla" 130 10 basechar 0
AnchorPoint: "below" 132 -108 basechar 0
AnchorPoint: "top_punkt" 130 560 basechar 0
AnchorPoint: "above" 124 645 basechar 0
LayerCount: 2
Fore
SplineSet
90 235 m 2
 90 310 87.3 386.2 81 429 c 1
 83 432 l 1
 104.2 430.3 147.3 430.7 170 433 c 0
 177.8 433 179 432 179 423 c 0
 172.5 362 170 326 170 251 c 2
 170 180 l 2
 170 104 171.8 56.8 179 0 c 1
 177 -3 l 1
 165 -1 142 0 130 0 c 0
 118 0 95 -1 83 -3 c 1
 81 0 l 1
 88.2 54 90 105 90 180 c 2
 90 235 l 2
EndSplineSet
EndChar

StartChar: kgreenlandic
Encoding: 312 312 423
Width: 496
GlyphClass: 2
Flags: MW
AnchorPoint: "below" 263 -107 basechar 0
AnchorPoint: "above" 275 646 basechar 0
AnchorPoint: "top_punkt" 276 551 basechar 0
AnchorPoint: "cedilla" 125 9 basechar 0
LayerCount: 2
Fore
SplineSet
164 237 m 1
 179 237 190 240 205 252 c 0
 245.2 281.7 323.9 366.5 367 429 c 1
 394 429 449 429 468 432 c 1
 470 429 l 1
 405 373.9 312.4 274.9 273 234 c 1
 368.4 118.8 419.6 78.6 494 0 c 1
 492 -3 l 1
 483 -1.2 448.7 0 432 0 c 0
 415 0 381.3 -1.2 366 -3 c 1
 295 95.8 251 135 186 203 c 0
 177 211 171 212 164 212 c 1
 164 237 l 1
EndSplineSet
Refer: 416 305 N 1 0 0 1 -8 0 2
Comment: "Ist das so richtig?"
EndChar

StartChar: ldot
Encoding: 320 320 431
Width: 252
GlyphClass: 2
Flags: MW
LayerCount: 2
Fore
SplineSet
213 360 m 0
 213 385 234 409 261 409 c 0
 284 409 308 387 308 360 c 0
 308 335 288 313 261 313 c 0
 231 313 213 336 213 360 c 0
EndSplineSet
Refer: 1993 108 N 1 0 0 1 0 0 2
Colour: ff80cc
EndChar

StartChar: Lslash
Encoding: 321 321 432
Width: 515
GlyphClass: 2
Flags: MW
LayerCount: 2
Fore
SplineSet
310 449 m 1
 328 419 l 1
 191 340.4 l 1
 191 200 l 2
 191 183 192 85 199 61 c 1
 333 61 481 83 481 83 c 1
 483 79 l 1
 482 71 481 54 481 44 c 0
 481 34 482 14 483 0 c 1
 481 -3 l 1
 465 -1 442 0 421 0 c 2
 148 0 l 2
 114 0 96 -3 96 -3 c 1
 95 0 l 1
 103 54 105 125 105 200 c 2
 105 291 l 1
 23 244 l 1
 5 275 l 1
 105 332 l 1
 105 445 l 2
 105 520 103 588 95 645 c 1
 97 648 l 1
 109 646 136 645 148 645 c 0
 160 645 188 646 200 648 c 1
 201 645 l 1
 193 592 191 520 191 445 c 2
 191 381.1 l 1
 310 449 l 1
EndSplineSet
Position2: "'cpsp' Versalabstaende 1" dx=5 dy=0 dh=10 dv=0
Colour: ff80cc
EndChar

StartChar: lslash
Encoding: 322 322 433
Width: 252
GlyphClass: 2
Flags: MW
LayerCount: 2
Fore
SplineSet
243 438 m 1
 260 408 l 1
 170 355.6 l 1
 170 200 l 2
 170 124.8 171.2 57 179 0 c 1
 177 -3 l 1
 165 -1 142 0 130 0 c 0
 118 0 95 -1 83 -3 c 1
 81 0 l 1
 88.5 53.5 90 125.5 90 200 c 2
 90 309 l 1
 23 270 l 1
 6 299 l 1
 90 348.3 l 1
 90 482 l 2
 90 558 88.7 632.3 81 675 c 1
 83 678 l 1
 123.5 681 144.9 688 170 698 c 1
 176.3 698 179 695 179 688 c 0
 174.3 624.7 170 575 170 500 c 2
 170 395.2 l 1
 243 438 l 1
EndSplineSet
Colour: ff80cc
EndChar

StartChar: Eng
Encoding: 330 330 441
Width: 695
GlyphClass: 2
Flags: MW
AnchorPoint: "top_punkt" 345 721 basechar 0
AnchorPoint: "above" 346 804 basechar 0
AnchorPoint: "below" 364 -109 basechar 0
AnchorPoint: "cedilla" 124 -3 basechar 0
LayerCount: 2
Fore
SplineSet
104 445 m 2
 104 520 102 588 94 645 c 1
 96 648 l 1
 108 646 135 645 147 645 c 3
 159 645 186 646 198 648 c 1
 200 645 l 1
 194 607 192 558 191 506 c 1
 258 594 337 655 441 655 c 3
 508 655 614 620 614 449 c 2
 614 117 l 2
 614 3 604 -27 551 -96 c 0
 509 -150 456 -172 393 -172 c 3
 374 -172 356 -168 348 -163 c 1
 347 -160 l 1
 358 -141 368 -105 375 -78 c 1
 386 -77 l 1
 397 -97 415 -112 444 -112 c 3
 523 -112 528 7 528 95 c 2
 528 416 l 2
 528 458 528 589 420 589 c 3
 315 589 255 532 190 441 c 1
 190 200 l 2
 190 125 192 57 200 0 c 1
 198 -3 l 1
 186 -1 159 0 147 0 c 3
 135 0 108 -1 96 -3 c 1
 94 0 l 1
 102 54 104 125 104 200 c 2
 104 445 l 2
EndSplineSet
Position2: "'cpsp' Versalabstaende 1" dx=5 dy=0 dh=10 dv=0
Comment: "Sieht in Times anders aus"
EndChar

StartChar: eng
Encoding: 331 331 442
Width: 530
GlyphClass: 2
Flags: MW
AnchorPoint: "cedilla" 123 9 basechar 0
AnchorPoint: "top_punkt" 283 550 basechar 0
AnchorPoint: "above" 264 646 basechar 0
LayerCount: 2
Fore
SplineSet
163 180 m 2
 163 104 164 57 172 0 c 1
 170 -3 l 1
 158 -1 135 0 123 0 c 0
 111 0 88 -1 76 -3 c 1
 74 0 l 1
 82 54 83 105 83 180 c 2
 83 235 l 2
 83 310 81 385.7 74 429 c 1
 76 432 l 1
 98.7 429.7 134.5 430.5 157 435 c 0
 161.7 435 162.8 432.7 163 425 c 2
 163 352 l 1
 165 349 l 1
 226.7 424.8 294.5 439 347 439 c 0
 437 439 460 370 460 281 c 2
 460 -2 l 2
 460 -75 452 -99 419 -144 c 0
 385 -190 344 -213 286 -213 c 0
 268 -213 251 -209 244 -205 c 1
 243 -202 l 1
 253 -184 252 -153 259 -128 c 1
 269 -127 l 1
 279 -145 286 -159 313 -159 c 0
 366 -159 383 -115 383 -63 c 0
 383 -47 380 -13 380 96 c 2
 380 278 l 2
 380 348 362 379 314 379 c 0
 270 379 214 358 163 298 c 1
 163 180 l 2
EndSplineSet
EndChar

StartChar: OE
Encoding: 338 338 449
Width: 838
GlyphClass: 2
Flags: MW
AnchorPoint: "top_punkt" 292 700 basechar 0
AnchorPoint: "below" 291 -107 basechar 0
AnchorPoint: "cedilla" 291 4 basechar 0
AnchorPoint: "above" 550 805 basechar 0
LayerCount: 2
Fore
SplineSet
348 37 m 2
 361 37 l 2
 401 37 412 49 412 77 c 2
 412 569 l 2
 412 600 399 606 361 606 c 2
 326 606 l 2
 229 606 145 541 145 327 c 0
 145 120 245 37 348 37 c 2
455 0 m 2
 414 -0.2 350 -2 350 -2 c 1
 162 -1 42 138 42 318 c 0
 42 498 153 646 339 646 c 1
 339 646 409.8 645 455 645 c 2
 718 645 l 2
 739 645 762 646 778 648 c 1
 780 645 l 1
 779 631 778 622 778 614 c 0
 778 605 779 596 780 588 c 1
 778 584 l 1
 778 584 640 596 506 596 c 1
 499 572 498 462 498 445 c 2
 498 363 l 1
 616 363 662 368 721 373 c 1
 724 370 l 1
 722 361 721 351 721 342 c 0
 721 333 722 323 724 314 c 1
 721 311 l 1
 652 318 546 321 498 321 c 1
 498 200 l 2
 498 183 499 78 506 54 c 1
 640 54 788 66 788 66 c 1
 790 62 l 1
 789 54 788 39 788 29 c 0
 788 19 789 14 790 0 c 1
 788 -3 l 1
 772 -1 749 0 728 0 c 2
 455 0 l 2
EndSplineSet
Position2: "'cpsp' Versalabstaende 1" dx=5 dy=0 dh=10 dv=0
EndChar

StartChar: oe
Encoding: 339 339 450
Width: 775
GlyphClass: 2
Flags: MW
AnchorPoint: "above" 415 645 basechar 0
AnchorPoint: "ogonek" 366 41 basechar 0
LayerCount: 2
Fore
SplineSet
460 287 m 1
 641 287 l 2
 651 287 655 292 655 301 c 0
 655 376 610 399 574 399 c 0
 551 399 477 391 460 287 c 1
731 105 m 1
 751 79 l 1
 713 27 652 -10 580 -10 c 0
 498.6 -10 439.4 23.2 404.8 74.3 c 1
 369.8 23 332.1 -10 237 -10 c 0
 110 -10 34 83 34 206 c 0
 34 362 137 439 248 439 c 0
 348.8 439 385.9 396.1 413.9 349.2 c 1
 454.7 407.3 517 439 574 439 c 0
 706 439 744 344 744 260 c 0
 744 249 737 243 726 243 c 2
 457 243 l 1
 457 94 544 49 600 49 c 0
 655 49 696 67 731 105 c 1
124 237 m 0
 124 126 160 30 251 30 c 0
 298 30 367 58 367 199 c 0
 367 353 291 400 247 400 c 0
 162 400 124 306 124 237 c 0
EndSplineSet
EndChar

StartChar: uni0162
Encoding: 354 354 465
Width: 540
GlyphClass: 2
Flags: MW
LayerCount: 2
Fore
SplineSet
268 -92 m 0
 249 -92 239 -93 223 -98 c 1
 217 -92 l 1
 255.2 -0.3 l 1
 242.5 -0.7 227.2 -1.6 219 -3 c 1
 217 0 l 1
 225 54 227 125 227 200 c 2
 227 445 l 2
 227 462 226 565 219 589 c 1
 85 589 17 575 17 575 c 1
 15 579 l 1
 17 594 17 617 15 645 c 1
 17 648 l 1
 33 646 56 645 77 645 c 2
 463 645 l 2
 484 645 507 646 523 648 c 1
 525 645 l 1
 523 617 523 594 525 579 c 1
 523 575 l 1
 523 575 455 589 321 589 c 1
 314 565 313 462 313 445 c 2
 313 200 l 2
 313 125 315 57 323 0 c 1
 321 -3 l 1
 313.7 -1.8 300.9 -1 289.3 -0.5 c 1
 266 -63 l 1
 274 -61 283 -60 292 -60 c 0
 332 -60 363 -84 363 -122 c 0
 363 -165 317 -196 256 -196 c 0
 224 -196 207 -190 182 -179 c 1
 182 -167 185 -160 192 -153 c 1
 219 -163 230 -167 250 -167 c 0
 280 -167 301 -153 301 -127 c 0
 301 -106 291 -92 268 -92 c 0
EndSplineSet
Position2: "'cpsp' Versalabstaende 1" dx=5 dy=0 dh=10 dv=0
Colour: ff00ff
EndChar

StartChar: uni0163
Encoding: 355 355 466
Width: 340
GlyphClass: 2
UnlinkRmOvrlpSave: 1
Flags: MW
LayerCount: 2
Fore
SplineSet
168 -106 m 0
 149 -106 139 -107 123 -112 c 1
 117 -106 l 1
 157 -10 l 1
 180 -10 l 2
 134 -10 92 21 92 86 c 0
 92 116 95 188 95 248 c 2
 95 385 l 1
 72.2 384.9 41.2 384.3 24 383 c 1
 19 390 l 1
 28.7 405 34.3 414.7 41 431 c 1
 53.4 429.4 74.5 429.1 95 429 c 1
 95 487 97 522.3 99 557 c 1
 101 560 l 1
 133.5 564.5 145.9 575 171 585 c 1
 177.3 585 180 582.3 180 575 c 0
 175.5 517 175 503.8 175 429 c 1
 222 429 l 2
 245 429 274 430.3 292 431 c 1
 297 424 l 1
 291 409.3 288 399 285 383 c 1
 271.7 384.3 237 385 213 385 c 2
 175 385 l 1
 175 259 l 2
 175 199 172 156 172 126 c 0
 172 71.9 181.3 47.8 205 44 c 0
 230 40 253 41 283.7 51.7 c 1
 296 27 l 1
 254 0 222 -10 180 -10 c 2
 191 -10 l 1
 166 -77 l 1
 174 -75 183 -74 192 -74 c 0
 232 -74 263 -98 263 -136 c 0
 263 -179 217 -210 156 -210 c 0
 124 -210 107 -204 82 -193 c 1
 82 -181 85 -174 92 -167 c 1
 119 -177 130 -181 150 -181 c 0
 180 -181 201 -167 201 -141 c 0
 201 -120 191 -106 168 -106 c 0
EndSplineSet
Colour: ff00ff
EndChar

StartChar: Tbar
Encoding: 358 358 469
Width: 540
GlyphClass: 2
Flags: MW
LayerCount: 2
Fore
SplineSet
101 329 m 1
 101 368 l 1
 227 368 l 1
 227 445 l 2
 227 462 226 565 219 589 c 1
 85 589 17 575 17 575 c 1
 15 579 l 1
 17 594 17 617 15 645 c 1
 17 648 l 1
 33 646 56 645 77 645 c 2
 463 645 l 2
 484 645 507 646 523 648 c 1
 525 645 l 1
 523 617 523 594 525 579 c 1
 523 575 l 1
 523 575 455 589 321 589 c 1
 314 565 313 462 313 445 c 2
 313 368 l 1
 448 368 l 1
 448 329 l 1
 313 329 l 1
 313 200 l 2
 313 125 315 57 323 0 c 1
 321 -3 l 1
 309 -1 282 0 270 0 c 0
 258 0 231 -1 219 -3 c 1
 217 0 l 1
 225 54 227 125 227 200 c 2
 227 329 l 1
 101 329 l 1
EndSplineSet
Position2: "'cpsp' Versalabstaende 1" dx=5 dy=0 dh=10 dv=0
Colour: ff80cc
EndChar

StartChar: tbar
Encoding: 359 359 470
Width: 340
GlyphClass: 2
Flags: MW
LayerCount: 2
Fore
SplineSet
273 284 m 1
 273 245 l 1
 174.9 245 l 1
 174.5 192.2 172 153.6 172 126 c 0
 172 71.9 181.3 47.8 205 44 c 0
 230 40 253 41 283.7 51.7 c 1
 296 27 l 1
 254 0 222 -10 180 -10 c 0
 134 -10 92 21 92 86 c 0
 92 115.5 94.9 185.6 95 245 c 1
 20 245 l 1
 20 284 l 1
 95 284 l 1
 95 385 l 1
 72.2 384.9 41.2 384.3 24 383 c 1
 19 390 l 1
 28.7 405 34.3 414.7 41 431 c 1
 53.4 429.4 74.5 429.1 95 429 c 1
 95 487 97 522.3 99 557 c 1
 101 560 l 1
 133.5 564.5 145.9 575 171 585 c 1
 177.3 585 180 582.3 180 575 c 0
 175.5 517 175 503.8 175 429 c 1
 222 429 l 2
 245 429 274 430.3 292 431 c 1
 297 424 l 1
 291 409.3 288 399 285 383 c 1
 271.7 384.3 237 385 213 385 c 2
 175 385 l 1
 175 284 l 1
 273 284 l 1
EndSplineSet
Colour: ff80cc
EndChar

StartChar: Uogonek
Encoding: 370 370 481
Width: 692
GlyphClass: 2
Flags: MW
LayerCount: 2
Fore
SplineSet
525 -127 m 1
 498 -160 460 -183 426 -183 c 0
 377 -183 347 -154 347 -107 c 0
 347 -70 366.2 -36.1 393.5 -6.3 c 1
 376.1 -8.7 357.3 -10 337 -10 c 0
 247 -10 104 32 104 236 c 2
 104 445 l 2
 104 520 102 588 94 645 c 1
 96 648 l 1
 108 646 135 645 147 645 c 0
 159 645 186 646 198 648 c 1
 200 645 l 1
 192 592 190 520 190 445 c 2
 190 269 l 2
 190 215 190 46 358 46 c 0
 527 46 544 165 544 277 c 2
 544 445 l 2
 544 520 542 588 534 645 c 1
 536 648 l 1
 548 646 559 645 571 645 c 0
 583 645 594 646 606 648 c 1
 608 645 l 1
 600 592 598 520 598 445 c 2
 598 295 l 2
 598 162.3 566.9 57.9 466.1 13.4 c 1
 431.8 -23.8 413 -54.7 413 -96 c 0
 413 -117 429 -139 455 -139 c 0
 472 -139 494 -124 508 -109 c 1
 511 -110 l 1
 525 -127 l 1
EndSplineSet
Position2: "'cpsp' Versalabstaende 1" dx=5 dy=0 dh=10 dv=0
Colour: ff00ff
EndChar

StartChar: uogonek
Encoding: 371 371 482
Width: 537
GlyphClass: 2
Flags: MW
LayerCount: 2
Fore
SplineSet
347 -208 m 0
 293 -208 254 -182 254 -127 c 0
 254 -74.8 302.3 -7.8 372.6 24.4 c 1
 369 89 l 1
 365 92 l 1
 332 41 276 -10 214 -10 c 0
 115 -10 83 60 83 129 c 2
 83 249 l 2
 83 325 82 372 74 429 c 1
 76 432 l 1
 88 430 111 429 123 429 c 0
 135 429 158 430 170 432 c 1
 172 429 l 1
 164 376 163 324 163 249 c 2
 163 150 l 2
 163 57 195.5 46 230 46 c 0
 279 46 336.5 99.5 367 151 c 1
 367 249 l 2
 367 325 365.8 371.8 358 429 c 1
 360 432 l 1
 372 430 395 429 407 429 c 0
 419 429 442 430 454 432 c 1
 456 429 l 1
 448 376 447 324 447 249 c 2
 447 192 l 2
 447 117 456 43 464 0 c 1
 462 -3 l 1
 449 -1 430.1 0 417.5 0 c 0
 403 0 391.3 -1.3 378 -3 c 0
 377.5 -3 377 -3 376.6 -2.9 c 0
 337.8 -29.8 314 -76.3 314 -110 c 0
 314 -143 336 -168 373 -168 c 0
 402 -168 422 -154 442 -134 c 1
 457 -141 l 1
 433 -188 383 -208 347 -208 c 0
EndSplineSet
Colour: ff80cc
EndChar

StartChar: longs
Encoding: 383 383 494
Width: 290
GlyphClass: 2
Flags: MW
AnchorPoint: "cedilla" 130 10 basechar 0
LayerCount: 2
Fore
SplineSet
170 439 m 2
 170 200 l 2
 170 124.8 171.5 57 180 0 c 1
 178 -3 l 1
 178 -3 164.3 0 130 0 c 0
 95 0 81 -3 81 -3 c 1
 80 0 l 1
 88.5 53.5 90 125.5 90 200 c 2
 90 369 l 2
 90 381 88 385 78 385 c 2
 34 385 l 2
 30 385 29 386 29 390 c 2
 29 409 l 2
 29 417 34 429 52 429 c 0
 83 429 90 450 90 477 c 0
 90 555 92 573 128 622 c 0
 164 671 216 698 279 698 c 0
 298 698 316 694 324 689 c 1
 325 686 l 1
 314 667 304 631 297 604 c 1
 286 603 l 1
 275 623 257 638 228 638 c 0
 170.7 638 165 590.2 165 535 c 0
 165 517 170 464.5 170 439 c 2
EndSplineSet
EndChar

StartChar: uni0186
Encoding: 390 390 495
Width: 677
GlyphClass: 2
Flags: MW
LayerCount: 2
Fore
SplineSet
266 -10 m 0
 144 -10 48 40 48 40 c 1
 46 43 l 1
 57 85.5 60.4 103 64 154 c 1
 76 155 l 1
 117 73 190 37 280 37 c 0
 362 37 491 111 491 314 c 0
 491 470 397.8 607 271 607 c 0
 178 607 118 581 47 503 c 1
 40 506 l 1
 36.5 515 34.5 537 33.9 548.5 c 1
 100.7 629.3 187.6 658 280 658 c 0
 495 658 594 506 594 333 c 0
 594 136 435 -10 266 -10 c 0
EndSplineSet
Colour: ff00ff
EndChar

StartChar: uni018E
Encoding: 398 398 497
Width: 560
GlyphClass: 2
Flags: MW
LayerCount: 2
Fore
SplineSet
378 200 m 2
 378 321 l 1
 330 321 224 318 155 311 c 1
 152 314 l 1
 154 323 155 333 155 342 c 0
 155 351 154 361 152 370 c 1
 155 373 l 1
 214 368 260 363 378 363 c 1
 378 445 l 2
 378 462 377 572 370 596 c 1
 236 596 98 584 98 584 c 1
 96 588 l 1
 97 596 98 605 98 614 c 0
 98 622 97 631 96 645 c 1
 98 648 l 1
 114 646 137 645 158 645 c 2
 158 645 391 645 421 645 c 0
 455 645 472 648 472 648 c 1
 474 645 l 1
 466 588 464 520 464 445 c 2
 464 200 l 2
 464 125 466 54 474 0 c 1
 473 -3 l 1
 473 -3 456 0 421 0 c 2
 148 0 l 2
 127 0 104 -1 88 -3 c 1
 86 0 l 1
 87 14 88 19 88 29 c 0
 88 39 87 54 86 62 c 1
 88 66 l 1
 88 66 236 54 370 54 c 1
 377 78 378 183 378 200 c 2
EndSplineSet
EndChar

StartChar: florin
Encoding: 402 402 499
Width: 450
GlyphClass: 2
Flags: MW
LayerCount: 2
Fore
SplineSet
326 698 m 0
 406 698 432 659 432 630 c 0
 432 610 420 593 400 593 c 0
 380 593 364.5 599 361 618 c 0
 358 634.3 348.5 669 325 669 c 0
 307 669 279 647 264 541 c 1
 250 430 l 1
 355 430 l 1
 350 391 l 1
 244 391 l 1
 242 374 l 1
 197 -25 179 -232 59 -232 c 0
 3 -232 -15 -194 -15 -176 c 0
 -15 -161 -3 -143 16 -143 c 0
 33 -143 43 -151 49 -164 c 1
 56 -176 49 -195 70 -195 c 0
 154 -195 142 96 161 278 c 2
 173 391 l 1
 90 391 l 1
 96 430 l 1
 132 430 l 2
 168 430 183 454 187 483 c 0
 206 631 268 698 326 698 c 0
EndSplineSet
EndChar

StartChar: uni019E
Encoding: 414 414 500
Width: 523
GlyphClass: 2
Flags: MW
AnchorPoint: "above" 264 646 basechar 0
AnchorPoint: "below" 265 -111 basechar 0
AnchorPoint: "top_punkt" 265 550 basechar 0
AnchorPoint: "cedilla" 128 10 basechar 0
LayerCount: 2
Fore
SplineSet
166 439 m 2
 163 350 l 1
 166 350 l 1
 230 425 278 439 329 439 c 0
 419 439 439 370 439 281 c 2
 439 -160 l 2
 439 -189 449.7 -199.7 481 -203 c 2
 500 -205 l 2
 505 -205.5 509 -208 509 -213 c 2
 509 -232 l 1
 507 -234 l 1
 507 -234 441.1 -232 399 -232 c 0
 360.8 -232 301 -234 301 -234 c 1
 299 -232 l 1
 299 -213 l 2
 299 -208 302 -205.7 307 -205 c 2
 321 -203 l 2
 353 -198.4 364 -189 364 -160 c 2
 364 288 l 2
 364 358 352 391 299 391 c 0
 255 391 217 374 166 314 c 1
 166 72 l 2
 166 43 176.2 33.7 209 29 c 2
 223 27 l 2
 227.9 26.3 231 24 231 19 c 2
 231 0 l 1
 229 -2 l 1
 229 -2 166.8 0 127 0 c 0
 86.4 0 23 -2 23 -2 c 1
 21 0 l 1
 21 19 l 2
 21 24 24 26.5 29 27 c 2
 48 29 l 2
 81.1 32.5 91 43 91 72 c 2
 91 321 l 2
 91 371 83.4 381.3 69 383 c 2
 26 387 l 1
 24 411 l 1
 94.5 422 133.5 431 162 442 c 0
 164.4 442 166 441.4 166 439 c 2
EndSplineSet
EndChar

StartChar: uni019F
Encoding: 415 415 501
Width: 741
GlyphClass: 2
Flags: MW
LayerCount: 2
Fore
SplineSet
689 329 m 0
 689 129 560 -10 369 -10 c 0
 197 -10 52 113 52 310 c 0
 52 506 189 658 368 658 c 0
 548 658 689 527 689 329 c 0
584.9 348 m 1
 574.4 529.7 487.1 614 355 614 c 0
 262.3 614 162.1 542.2 155.4 348 c 1
 584.9 348 l 1
586 309 m 1
 155.3 309 l 1
 162.2 128.7 272.8 34 389 34 c 0
 502.8 34 585.7 130.6 586 309 c 1
EndSplineSet
Colour: ff80cc
EndChar

StartChar: Ohorn
Encoding: 416 416 502
Width: 741
GlyphClass: 2
Flags: MW
AnchorPoint: "below" 371 -113 basechar 0
AnchorPoint: "cedilla" 371 0 basechar 0
LayerCount: 2
Fore
SplineSet
355 614 m 0
 259 614 155 537 155 327 c 0
 155 135 269 34 389 34 c 0
 503 34 586 131 586 310 c 0
 586 518 496 614 355 614 c 0
689 329 m 0
 689 129 560 -10 369 -10 c 0
 197 -10 52 113 52 310 c 0
 52 506 189 658 368 658 c 0
 427.6 658 482.9 643.7 530.2 617.3 c 1
 533.7 617.1 537.2 617 541 617 c 0
 552 617 596 625 596 659 c 0
 596 672 579 683 565 684 c 0
 531 688 518 711 518 731 c 0
 518 755 534 770 564 770 c 0
 602 770 633 727 633 679 c 0
 633 633.3 614.3 599.7 570.3 590.5 c 1
 643.1 533 689 441.9 689 329 c 0
EndSplineSet
Colour: ff80cc
EndChar

StartChar: ohorn
Encoding: 417 417 503
Width: 500
GlyphClass: 2
Flags: MW
AnchorPoint: "below" 247.8 -107 basechar 0
AnchorPoint: "ogonek" 386.2 44 basechar 0
AnchorPoint: "cedilla" 247.1 -3 basechar 0
LayerCount: 2
Fore
SplineSet
38 205 m 0
 38 347 123 439 254 439 c 0
 293.7 439 328.1 431.3 356.8 417 c 1
 367.5 414.8 376.8 414 388 414 c 0
 399 414 441 420 441 454 c 0
 441 467 427 475 413 477 c 0
 379 480 365 502 365 522 c 0
 365 546 382 561 411 561 c 0
 449 561 475 520 475 473 c 0
 475 422.8 447.5 390.2 401.7 384.8 c 1
 441.3 345.4 462 286.3 462 214 c 0
 462 83 382 -10 250 -10 c 0
 117 -10 38 85 38 205 c 0
247 399 m 0
 153 399 126 309 126 222 c 0
 126 145 153 30 259 30 c 0
 326 30 374 100.9 374 196 c 0
 374 317 353 399 247 399 c 0
EndSplineSet
Colour: ff80cc
EndChar

StartChar: uni01A7
Encoding: 423 423 504
Width: 479
GlyphClass: 2
Flags: MW
LayerCount: 2
Fore
SplineSet
97 631 m 1
 152 639 150 658 243 658 c 0
 330 658 431 591 431 485 c 0
 431 368 308 318 236 291 c 1
 175 267 125 240 125 149 c 0
 125 68 183 24 259 24 c 0
 348 24 395 87 415 178 c 1
 445 175 l 1
 435 99 428 51 426 0 c 1
 409 0 400 5 380 5 c 0
 356 5 340 -12 242 -12 c 0
 127 -12 44 82 44 184 c 0
 44 305 137 346 221 376 c 0
 263 391 362 429 362 512 c 0
 362 573 318 624 252 624 c 0
 153 624 125 540 106 474 c 1
 76 479 l 1
 85 528 93 578 97 631 c 1
EndSplineSet
EndChar

StartChar: uni01A8
Encoding: 424 424 505
Width: 371
GlyphClass: 2
Flags: MW
LayerCount: 2
Fore
SplineSet
328 140 m 1
 321 0 l 1
 312 2 303 2 298 2 c 0
 291 2 286 2 279 0 c 0
 253 -7 224 -10 189 -10 c 0
 142 -10 37 17 37 116 c 0
 37 196 103 232 184 262 c 0
 238 282 257 302 257 342 c 0
 257 397 218 409 180 409 c 0
 159 409 98 393 77 311 c 1
 53 312 l 1
 54 348 58 382 63 414 c 1
 95 430 130 439 180 439 c 0
 259 439 318 394 318 327 c 0
 318 252 280 231 208 199 c 1
 128 165 104 136 104 93 c 0
 104 44 156 18 191 18 c 0
 229 18 258 36 269 47 c 0
 294 73 303 119 305 141 c 1
 328 140 l 1
EndSplineSet
EndChar

StartChar: Uhorn
Encoding: 431 431 507
Width: 702
GlyphClass: 2
Flags: MW
AnchorPoint: "top_punkt" 353 722 basechar 0
AnchorPoint: "above" 354 805 basechar 0
AnchorPoint: "below" 344 -109 basechar 0
AnchorPoint: "cedilla" 344 4 basechar 0
LayerCount: 2
Fore
SplineSet
544 445 m 2
 544 520 542 588 534 645 c 1
 536 648 l 1
 548 646 559 645 571 645 c 0
 634 645 677 655.5 677 671 c 0
 677 685 666 690 647 690 c 0
 612 690 600 711 600 731 c 0
 600 755 620 770 649 770 c 0
 687 770 715 733 715 686 c 0
 715 643 687 618 644 618 c 0
 618.8 618 604.9 605.9 601.7 584.4 c 1
 598.8 542.3 598 494.3 598 445 c 2
 598 295 l 2
 598 117 542 -10 337 -10 c 0
 247 -10 104 32 104 236 c 2
 104 445 l 2
 104 520 102 588 94 645 c 1
 96 648 l 1
 108 646 135 645 147 645 c 0
 159 645 186 646 198 648 c 1
 200 645 l 1
 192 592 190 520 190 445 c 2
 190 269 l 2
 190 215 190 46 358 46 c 0
 527 46 544 165 544 277 c 2
 544 445 l 2
EndSplineSet
EndChar

StartChar: uhorn
Encoding: 432 432 508
Width: 537
GlyphClass: 2
Flags: MW
LayerCount: 2
Fore
SplineSet
365 92 m 1
 332 41 276 -10 214 -10 c 0
 115 -10 83 60 83 129 c 2
 83 249 l 2
 83 325 82 372 74 429 c 1
 76 432 l 1
 88 430 111 429 123 429 c 0
 135 429 158 430 170 432 c 1
 172 429 l 1
 164 376 163 324 163 249 c 2
 163 150 l 2
 163 57 195.5 46 230 46 c 0
 279 46 336.5 99.5 367 151 c 1
 367 249 l 2
 367 325 365.8 371.8 358 429 c 1
 360 432 l 1
 372 430 395 429 407 429 c 0
 415 429 427.8 429.4 439 430.3 c 1
 462.8 435.1 471 448.2 471 458 c 0
 471 469 463 478 444 479 c 0
 410 480 396 502 396 522 c 0
 396 546 413 561 442 561 c 0
 480 561 505 520 505 473 c 0
 505 443.5 489.5 415 452.7 404.2 c 1
 447.7 359.2 447 312.3 447 249 c 2
 447 192 l 2
 447 117 456 43 464 0 c 1
 462 -3 l 1
 449 -1 430.1 0 417.5 0 c 0
 403 0 391.3 -1.3 378 -3 c 0
 375.2 -3 374 -2 374 0 c 2
 369 89 l 1
 365 92 l 1
EndSplineSet
Colour: ff80cc
EndChar

StartChar: uni01B5
Encoding: 437 437 509
Width: 622
GlyphClass: 2
Flags: MW
LayerCount: 2
Fore
SplineSet
187 54 m 1
 318 54 567 75 567 75 c 1
 569 72 l 1
 568 64 567 49 567 39 c 0
 567 29 568 14 569 0 c 1
 567 -3 l 1
 551 -1 531.8 0 496 0 c 2
 133 0 l 2
 103 0 46 -3 46 -3 c 1
 43 1 l 1
 54 15 63 30 69 38 c 2
 253.2 308 l 1
 105 308 l 1
 105 342 l 1
 276.3 342 l 1
 438 579 l 2
 443.2 586.6 440 591 435 591 c 0
 334.5 591 216.5 581.5 80 570 c 1
 78 573 l 1
 79 581 80 596 80 606 c 0
 80 616 79 631 78 645 c 1
 80 648 l 1
 96 646 119 645 141 645 c 2
 445 645 l 2
 476 645 554.5 648.8 571 651 c 0
 575.5 651 577 649 577 645 c 0
 577 634 567 619 547 591 c 2
 376.7 342 l 1
 528 342 l 1
 528 308 l 1
 353.4 308 l 1
 192 72 l 2
 187.3 65.1 187 59 187 54 c 1
EndSplineSet
Colour: ff80cc
EndChar

StartChar: uni01B6
Encoding: 438 438 510
Width: 416
GlyphClass: 2
Flags: MW
LayerCount: 2
Fore
SplineSet
135.9 45 m 1
 257.5 45.7 386 56 386 56 c 1
 388 53 l 1
 387 45 386 36 386 27 c 0
 386 18 387 13 388 0 c 1
 386 -3 l 1
 371 -1 350 0 330 0 c 2
 104 0 l 2
 75.5 0 23 -3 23 -3 c 1
 20 1.5 l 1
 28 10.7 34 20 42 32 c 2
 154.2 200 l 1
 69 200 l 1
 69 234 l 1
 176.9 234 l 1
 277 383.7 l 1
 162.4 382.1 49 373 49 373 c 1
 47 376 l 1
 48 384 49 393 49 402 c 0
 49 411 48 416 47 429 c 1
 49 432 l 1
 64 430 85 429 105 429 c 2
 309 429 l 2
 338 429 384.7 435.3 389.7 435.3 c 0
 393.7 435.3 395 433 395 429 c 1
 389 422 382 412.4 365 387 c 2
 262.5 234 l 1
 344 234 l 1
 344 200 l 1
 239.7 200 l 1
 135.9 45 l 1
EndSplineSet
Colour: ff80cc
EndChar

StartChar: uni01B8
Encoding: 440 440 512
Width: 608
GlyphClass: 2
Flags: MW
LayerCount: 2
Fore
SplineSet
443 645 m 2
 468 645 502 662 526 667 c 1
 547 479 l 1
 521 476 l 1
 517 521 488 604 414 605 c 1
 165 605 l 1
 360 252 l 1
 346 255 334 255 319 255 c 0
 250 255 136 201 136 42 c 0
 136 -53 232 -174 320 -174 c 0
 375 -174 425 -144 457 -95 c 0
 470 -74 498 -60 524 -60 c 0
 559 -60 569 -87 569 -110 c 0
 569 -176 419 -211 339 -211 c 0
 179 -211 46 -88 46 51 c 0
 46 162 109 261 244 288 c 1
 77 590 l 2
 69 604 61 621 61 631 c 0
 61 639 68 645 88 645 c 2
 443 645 l 2
EndSplineSet
EndChar

StartChar: uni01B9
Encoding: 441 441 513
Width: 448
GlyphClass: 2
Flags: MW
LayerCount: 2
Fore
SplineSet
317 429 m 2
 329 429 338 431 338 447 c 1
 360 451 l 1
 392 299 l 1
 365 294 l 1
 347 378 317 390 287 390 c 2
 145 390 l 1
 302 106 l 1
 280 111 261 113 243 113 c 0
 165 113 98 50 98 -35 c 0
 98 -153 186 -200 235 -200 c 0
 276 -200 304 -177 316 -154 c 1
 329 -133 345 -126 368 -126 c 0
 389 -126 397 -141 397 -157 c 0
 397 -189 335 -229 244 -229 c 0
 100 -229 23 -130 23 -34 c 0
 23 72 86 142 204 152 c 1
 73 387 l 1
 67 400 63 410 63 416 c 0
 63 425 69 429 87 429 c 2
 317 429 l 2
EndSplineSet
EndChar

StartChar: uni01C0
Encoding: 448 448 514
Width: 185
GlyphClass: 2
Flags: MW
LayerCount: 2
Fore
SplineSet
112 -10 m 1
 73 -10 l 1
 73 698 l 1
 112 698 l 1
 112 -10 l 1
EndSplineSet
EndChar

StartChar: uni01C2
Encoding: 450 450 516
Width: 332
GlyphClass: 2
Flags: MW
LayerCount: 2
Fore
SplineSet
291 323 m 1
 291 289 l 1
 175 289 l 1
 175 -10 l 1
 136 -10 l 1
 136 289 l 1
 25 289 l 1
 25 323 l 1
 136 323 l 1
 136 395 l 1
 25 395 l 1
 25 429 l 1
 136 429 l 1
 136 698 l 1
 175 698 l 1
 175 429 l 1
 291 429 l 1
 291 395 l 1
 175 395 l 1
 175 323 l 1
 291 323 l 1
EndSplineSet
Colour: ff80cc
EndChar

StartChar: uni01C3
Encoding: 451 451 517
Width: 228
GlyphClass: 2
Flags: MW
LayerCount: 2
Fore
SplineSet
113 658 m 0
 140 658 169 635 169 585 c 0
 169 520 153 478 143 392 c 0
 130 284 129 224 127 210 c 0
 126 199 123 190 113 190 c 0
 102 190 100 197 99 203 c 0
 97 224 92 314 84 392 c 0
 75 480 59 515 59 585 c 0
 59 639 91 658 113 658 c 0
EndSplineSet
Refer: 1592 8228 N 1 0 0 1 3 0 2
Colour: ff00ff
EndChar

StartChar: uni01D7
Encoding: 471 471 537
Width: 692
GlyphClass: 2
Flags: MW
LayerCount: 2
Fore
SplineSet
434.1 869.9 m 1
 456.2 858.2 472.1 842.9 481.9 824.1 c 1
 371 773 l 2
 354.8 765.1 345.5 762.5 338.6 762.5 c 0
 331.7 762.5 327.1 768.7 327.1 775.7 c 0
 327.1 781.9 328.6 786.3 338.6 794.2 c 2
 434.1 869.9 l 1
EndSplineSet
Refer: 368 -1 N 1 0 0 1 0 0 2
Colour: ff00ff
EndChar

StartChar: uni01D8
Encoding: 472 472 538
Width: 537
GlyphClass: 2
Flags: MW
LayerCount: 2
Fore
SplineSet
322.4 747.2 m 1
 324.8 748.1 329.6 749 333.6 749 c 0
 338.7 749 359.2 748.1 377.6 728.3 c 1
 380 718.4 l 1
 288 620.3 l 2
 276 606.8 269.6 603.2 264 603.2 c 0
 258.4 603.2 252.8 608.6 252.8 614.9 c 0
 252.8 625 255.5 628.6 262 640.1 c 2
 322.4 747.2 l 1
EndSplineSet
Refer: 391 252 N 1 0 0 1 0 0 2
Colour: ff00ff
EndChar

StartChar: uni01D9
Encoding: 473 473 539
Width: 692
GlyphClass: 2
Flags: MW
LayerCount: 2
Fore
SplineSet
322.2 737.1 m 1
 299.1 769.7 272.1 796.1 244.4 820.7 c 1
 256.7 838.3 l 1
 286.7 823.3 312.9 806.6 338.3 784.6 c 1
 366.8 807.5 391.4 824.2 420.7 838.3 c 1
 432.3 820.7 l 1
 403 795.2 378.4 767 355.3 737.1 c 1
 322.2 737.1 l 1
EndSplineSet
Refer: 368 -1 N 1 0 0 1 0 0 2
Colour: ff00ff
EndChar

StartChar: uni01DA
Encoding: 474 474 540
Width: 537
GlyphClass: 2
Flags: MW
LayerCount: 2
Fore
SplineSet
240.2 644.2 m 1
 217 686.5 187.4 727 159.4 761.2 c 1
 175.4 772.9 l 1
 206.6 746.8 233 724.3 260.2 691.9 c 1
 289.8 726.1 317 748.6 346.6 772.9 c 1
 361.8 761.2 l 1
 333.8 726.1 303.4 685.6 280.2 644.2 c 1
 240.2 644.2 l 1
EndSplineSet
Refer: 391 252 N 1 0 0 1 0 0 2
Colour: ff00ff
EndChar

StartChar: uni01DB
Encoding: 475 475 541
Width: 692
GlyphClass: 2
Flags: MW
LayerCount: 2
Fore
SplineSet
264.9 849.1 m 1
 358.1 775.2 l 2
 366.6 768.2 369.6 762.9 369.6 756.7 c 0
 369.6 749.7 364.3 743.5 358.1 743.5 c 0
 351.9 743.5 341.2 746.1 325 754 c 2
 206.4 809.5 l 1
 220.5 825.1 238.6 838.9 264.9 849.1 c 1
EndSplineSet
Refer: 368 -1 N 1 0 0 1 0 0 2
Colour: ff00ff
EndChar

StartChar: uni01DC
Encoding: 476 476 542
Width: 537
GlyphClass: 2
Flags: MW
LayerCount: 2
Fore
SplineSet
214.2 760.2 m 1
 270.2 646.8 l 2
 274.2 637.8 275 631.5 275 625.2 c 0
 275 620.7 269.4 615.3 263 615.3 c 0
 258.2 615.3 252.6 619.8 239.8 633.3 c 2
 148.6 731.4 l 1
 150.2 741.3 l 1
 156.6 746.7 175 762 202.2 762 c 0
 206.2 762 211 761.1 214.2 760.2 c 1
EndSplineSet
Refer: 391 252 N 1 0 0 1 0 0 2
Colour: ff00ff
EndChar

StartChar: uni01E0
Encoding: 480 480 546
Width: 629
GlyphClass: 2
Flags: MW
LayerCount: 2
Fore
SplineSet
413 777 m 1
 497 777 l 2
 507 777 511 769 511 762 c 0
 511 750 500 733 488 733 c 2
 405 733 l 1
 413 777 l 1
246 733 m 1
 161 733 l 2
 152 733 149 741 149 748 c 0
 149 759 159 777 171 777 c 2
 255 777 l 1
 246 733 l 1
EndSplineSet
Refer: 610 550 N 1 0 0 1 0 0 2
Colour: ff80cc
EndChar

StartChar: uni01E4
Encoding: 484 484 550
Width: 717
GlyphClass: 2
Flags: MW
LayerCount: 2
Fore
SplineSet
632.8 203 m 1
 681 203 l 1
 681 164 l 1
 632.1 164 l 1
 632 155.5 632 146.5 632 137 c 2
 632 131 l 2
 632 120 633.3 93.7 642 83 c 1
 642 80 l 1
 574.5 23.4 492.5 -10 376 -10 c 0
 175 -10 52 144 52 317 c 0
 52 537 229 658 401 658 c 0
 523 658 629 608 629 608 c 1
 631 605 l 1
 620.3 567 614.6 540 611 489 c 1
 599 488 l 1
 554 564 477 614 387 614 c 0
 252 614 155 502 155 327 c 0
 155 195 221 34 399 34 c 0
 453 34 512 40 546 72 c 1
 546 117 l 2
 546 133.4 545.9 149 545.7 164 c 1
 398 164 l 1
 398 203 l 1
 544.7 203 l 1
 543.3 240.1 540.7 273.7 536 307 c 1
 538 310 l 1
 538 310 555 307 589 307 c 0
 624 307 641 310 641 310 c 1
 642 307 l 1
 636.7 271.8 634 241.4 632.8 203 c 1
EndSplineSet
Colour: ff80cc
EndChar

StartChar: uni01E5
Encoding: 485 485 551
Width: 499
GlyphClass: 2
Flags: MW
LayerCount: 2
Fore
SplineSet
390 285 m 0
 390 206.2 328 136 224 136 c 0
 193.9 136 163 143 150 150 c 1
 128 131 123 114 123 94 c 0
 123 51 153 47 181 47 c 0
 186 47 196 48 210 49 c 0
 233 52 273 54 290 54 c 0
 325 54 393.5 53 431 21 c 0
 459 -2.9 473 -33.9 473 -78 c 0
 473 -82.1 472.8 -86.1 472.5 -90 c 1
 485 -90 l 1
 485 -127 l 1
 463.6 -127 l 1
 436.4 -193.7 351.1 -237 224 -237 c 0
 119.4 -237 34.2 -203.6 32 -127 c 1
 -1 -127 l 1
 -1 -90 l 1
 39.2 -90 l 1
 43.3 -78.6 48.9 -67.2 55 -58 c 1
 80.9 -38 112 -18.7 139.9 -7.3 c 1
 86 2 62 38 62 79 c 0
 62 113 97 142 126 162 c 1
 98 178 55 212 55 287 c 0
 55 386.1 146 439 225 439 c 0
 246.5 439 268.4 436 286.3 430.4 c 1
 360.9 434.3 396.2 444.9 444 449 c 1
 447 446 l 1
 445 437 444 429 444 420 c 0
 444 411 445 403 447 394 c 1
 444 391 l 1
 402.8 395.2 369.7 399 339.6 401.4 c 1
 363 386 390 354 390 285 c 0
312 284 m 0
 312 355 286 401 221 401 c 0
 163 401 133 358 133 292 c 0
 133 223 155 176 227 176 c 0
 287 176 312 223.3 312 284 c 0
102.7 -90 m 1
 399.4 -90 l 1
 396.9 -67.2 386 -43.6 361 -29 c 0
 333.6 -12.9 303 -12 255 -12 c 0
 241.2 -12 195.5 -15 166 -15 c 1
 135.9 -31.4 109.5 -61 102.7 -90 c 1
394.5 -127 m 1
 103.9 -127 l 1
 117.2 -177.1 175 -194 232 -194 c 0
 304.8 -194 374.8 -171.1 394.5 -127 c 1
EndSplineSet
Colour: ff80cc
EndChar

StartChar: uni01EA
Encoding: 490 490 556
Width: 741
GlyphClass: 2
Flags: MW
LayerCount: 2
Fore
SplineSet
562 -142 m 1
 533 -187 497 -209 456 -209 c 0
 402 -209 360 -180 360 -125 c 0
 360 -82.4 389.6 -40.3 427.6 -5.4 c 1
 408.8 -8.4 389.3 -10 369 -10 c 0
 197 -10 52 113 52 310 c 0
 52 506 189 658 368 658 c 0
 548 658 689 527 689 329 c 0
 689 177.7 615.1 61.3 496.5 13.6 c 1
 449.9 -24.3 419 -63 419 -119 c 0
 419 -145 443 -171 479 -171 c 0
 509 -171 525 -157 547 -135 c 1
 562 -142 l 1
355 614 m 0
 259 614 155 537 155 327 c 0
 155 135 269 34 389 34 c 0
 503 34 586 131 586 310 c 0
 586 518 496 614 355 614 c 0
EndSplineSet
Colour: ff80cc
EndChar

StartChar: uni01EB
Encoding: 491 491 557
Width: 500
GlyphClass: 2
Flags: MW
LayerCount: 2
Fore
SplineSet
411 -130 m 1
 384 -163 346 -186 312 -186 c 0
 263 -186 233 -157 233 -110 c 0
 233 -72.6 252.7 -38.4 280.5 -8.3 c 1
 270.7 -9.5 260.5 -10 250 -10 c 0
 117 -10 38 85 38 205 c 0
 38 347 123 439 254 439 c 0
 389 439 462 350 462 214 c 0
 462 123.2 423.6 50.7 356.1 14.7 c 1
 319.3 -24.4 299 -56.1 299 -99 c 0
 299 -120 315 -142 341 -142 c 0
 358 -142 380 -127 394 -112 c 1
 397 -113 l 1
 411 -130 l 1
247 399 m 0
 153 399 126 309 126 222 c 0
 126 145 153 30 259 30 c 0
 326 30 374 100.9 374 196 c 0
 374 317 353 399 247 399 c 0
EndSplineSet
Colour: ff00ff
EndChar

StartChar: uni01F6
Encoding: 502 502 568
Width: 900
GlyphClass: 2
Flags: MW
LayerCount: 2
Fore
SplineSet
514 133 m 2
 514 324 l 1
 187 324 l 1
 187 72 l 2
 187 41 202 27 242 27 c 2
 268 27 l 2
 272 27 276 24 276 19 c 2
 276 0 l 1
 274 -2 l 1
 274 -2 188 0 148 0 c 0
 113 0 20 -2 20 -2 c 1
 18 0 l 1
 18 19 l 2
 18 24 21 27 25 27 c 2
 52 27 l 2
 93 27 106 44 106 72 c 2
 106 574 l 2
 106 604 91 618 52 618 c 2
 25 618 l 2
 21 618 17 621 17 626 c 2
 17 645 l 1
 19 646 l 1
 19 646 106 645 145 645 c 0
 181 645 274 646 274 646 c 1
 276 645 l 1
 276 626 l 2
 276 621 273 618 268 618 c 2
 242 618 l 2
 201 618 187 602 187 574 c 2
 187 363 l 1
 514 363 l 1
 514 574 l 2
 514 604 499 618 459 618 c 2
 433 618 l 2
 428 618 424 621 424 626 c 2
 424 645 l 1
 426 646 l 1
 426 646 513 645 552 645 c 0
 588 645 681 646 681 646 c 1
 683 645 l 1
 683 626 l 2
 683 621 680 618 675 618 c 2
 649 618 l 2
 608 618 594 602 594 574 c 2
 594 130 l 2
 594 64 633 35 680 35 c 0
 755 35 816 139 816 237 c 0
 816 333 784 363 755 368 c 0
 744 369 713 374 713 405 c 0
 713 423 727 442 754 442 c 0
 823 442 853 369 853 249 c 0
 853 66 760 -12 680 -12 c 0
 576 -12 514 41 514 133 c 2
EndSplineSet
EndChar

StartChar: uni01F7
Encoding: 503 503 569
Width: 540
GlyphClass: 2
Flags: MW
LayerCount: 2
Fore
SplineSet
322 609 m 0
 277 609 234 578 160 504 c 1
 160 66 l 1
 284 170 414 285 414 417 c 0
 414 542 391 609 322 609 c 0
160 547 m 1
 217 602 281 658 345 658 c 0
 466 658 504 566 504 457 c 0
 504 297 336 156 160 21 c 1
 160 -189 l 1
 21 -226 l 1
 14 -201 l 2
 13 -196 14 -193 19 -192 c 2
 39 -186 l 2
 69 -177 79 -159 79 -126 c 2
 79 523 l 2
 79 588 69 601 49 601 c 1
 17 603 l 2
 13.8 603.2 11 605 11 608 c 2
 9 632 l 1
 49.5 635 124.9 648 150 658 c 1
 159 658 163 655 163 648 c 2
 163 648 160 612 160 547 c 1
EndSplineSet
EndChar

StartChar: aringacute
Encoding: 507 507 573
Width: 481
GlyphClass: 2
Flags: MW
LayerCount: 2
Fore
SplineSet
230.4 830.2 m 1
 232.8 831.1 237.6 832 241.6 832 c 0
 246.7 832 267.2 831.1 285.6 811.3 c 1
 288 801.4 l 1
 196 703.3 l 2
 184 689.8 177.6 686.2 172 686.2 c 0
 166.4 686.2 160.8 691.6 160.8 697.9 c 0
 160.8 708 163.5 711.6 170 723.1 c 2
 230.4 830.2 l 1
EndSplineSet
Refer: 377 229 N 1 0 0 1 0 0 2
Colour: ff00ff
EndChar

StartChar: uni020B
Encoding: 523 523 589
Width: 260
GlyphClass: 2
Flags: MW
LayerCount: 2
Fore
SplineSet
236 498 m 1
 226.1 551 187.4 588 138.8 588 c 0
 92 588 50.6 556 41.6 498 c 1
 17.3 510 l 1
 28.1 596 85.7 645 138.8 645 c 0
 201.8 645 247.7 595 260.3 510 c 1
 236 498 l 1
EndSplineSet
Refer: 416 305 N 1 0 0 1 0 0 2
Colour: ff00ff
EndChar

StartChar: uni0222
Encoding: 546 546 608
Width: 554
GlyphClass: 2
Flags: MW
LayerCount: 2
Fore
SplineSet
117 150 m 0
 117 46 227 22 271 22 c 0
 404 22 424 94 424 143 c 0
 424 232 333 274 248 312 c 1
 195 277 117 222 117 150 c 0
402 532 m 0
 402 608 341 666 274 666 c 1
 274 691 l 1
 438 691 476 589 476 536 c 0
 476 420 342 364 330 360 c 1
 398 330 506 279 506 169 c 0
 506 85 441 -12 266 -12 c 0
 166 -12 47 25 47 154 c 0
 47 261 172 321 211 332 c 1
 136 371 62 417 62 499 c 0
 62 591 145 658 248 658 c 1
 248 632 l 1
 188 632 143 572 143 519 c 0
 143 461 221 416 296 381 c 1
 368 431 402 458 402 532 c 0
EndSplineSet
EndChar

StartChar: uni0223
Encoding: 547 547 609
Width: 468
GlyphClass: 2
Flags: MW
LayerCount: 2
Fore
SplineSet
233 14 m 0
 334 14 360 77 360 141 c 0
 360 208 297 256 213 319 c 1
 173 281 l 2
 127 236 105 193 105 154 c 0
 105 74 156 14 233 14 c 0
336 530 m 0
 336 542 335 588 297 625 c 1
 313 652 l 1
 348 638 396 604 396 530 c 0
 396 431 298 374 282 368 c 1
 345 325 428 267 428 175 c 0
 428 58 354 -12 231 -12 c 0
 68 -12 41 97 41 145 c 0
 41 226 118 309 183 338 c 1
 131 381 59 428 59 517 c 0
 59 596 114 634 148 649 c 1
 169 624 l 1
 128 591 126 553 126 538 c 0
 126 471 253 389 253 389 c 1
 260 393 336 451 336 530 c 0
EndSplineSet
EndChar

StartChar: uni0228
Encoding: 552 552 612
Width: 538
GlyphClass: 2
Flags: MW
LayerCount: 2
Fore
SplineSet
275 -96 m 0
 256 -96 246 -97 230 -102 c 1
 224 -96 l 1
 264 0 l 1
 147 0 l 2
 112 0 95 -3 95 -3 c 1
 94 0 l 1
 102 54 104 125 104 200 c 2
 104 445 l 2
 104 520 102 588 94 645 c 1
 96 648 l 1
 96 648 113 645 147 645 c 2
 410 645 l 2
 431 645 454 646 470 648 c 1
 472 645 l 1
 471 631 470 615 470 607 c 0
 470 598 471 589 472 581 c 1
 470 577 l 1
 470 577 332 589 198 589 c 1
 191 565 190 462 190 445 c 2
 190 367 l 1
 308 367 354 372 413 377 c 1
 416 374 l 1
 414 365 413 351 413 342 c 0
 413 333 414 319 416 310 c 1
 413 307 l 1
 344 314 238 317 190 317 c 1
 190 200 l 2
 190 183 191 80 198 56 c 1
 332 56 480 68 480 68 c 1
 482 64 l 1
 481 56 480 41 480 31 c 0
 480 21 481 14 482 0 c 1
 480 -3 l 1
 464 -1 441 0 420 0 c 2
 298 0 l 1
 273 -67 l 1
 281 -65 290 -64 299 -64 c 0
 339 -64 370 -88 370 -126 c 0
 370 -169 324 -200 263 -200 c 0
 231 -200 214 -194 189 -183 c 1
 189 -171 192 -164 199 -157 c 1
 226 -167 237 -171 257 -171 c 0
 287 -171 308 -157 308 -131 c 0
 308 -110 298 -96 275 -96 c 0
EndSplineSet
Colour: ff00ff
EndChar

StartChar: uni0229
Encoding: 553 553 613
Width: 453
GlyphClass: 2
Flags: MW
LayerCount: 2
Fore
SplineSet
229 -101 m 0
 210 -101 200 -102 184 -107 c 1
 178 -101 l 1
 216.3 -9.1 l 1
 158.4 -4.4 109.6 19.2 79 56 c 0
 45.5 96.2 34 152.3 34 209 c 0
 34 356 136 439 239 439 c 0
 371 439 412 334 412 250 c 0
 412 239 405 233 394 233 c 2
 122 233 l 1
 122 174.9 128.4 134.1 146 106 c 0
 173.5 62 220.8 49 255 49 c 0
 310 49 357 66 392 104 c 1
 412 79 l 1
 376.2 30 317.3 -5.7 250.3 -9.6 c 1
 227 -72 l 1
 235 -70 244 -69 253 -69 c 0
 293 -69 324 -93 324 -131 c 0
 324 -174 278 -205 217 -205 c 0
 185 -205 168 -199 143 -188 c 1
 143 -176 146 -169 153 -162 c 1
 180 -172 191 -176 211 -176 c 0
 241 -176 262 -162 262 -136 c 0
 262 -115 252 -101 229 -101 c 0
125 273 m 1
 309 273 l 2
 319 273 323 278 323 287 c 0
 323 362 278.5 399 239 399 c 0
 207.5 399 142 377 125 273 c 1
EndSplineSet
Colour: ff00ff
EndChar

StartChar: uni022A
Encoding: 554 554 614
Width: 741
GlyphClass: 2
Flags: MW
AnchorPoint: "below" 371 -113 basechar 0
AnchorPoint: "cedilla" 371 0 basechar 0
LayerCount: 2
Fore
SplineSet
453.8 733 m 2
 246.5 733 l 2
 238.8 733 235.4 741 235.4 748 c 0
 235.4 760 244.8 777 254.1 777 c 2
 462.3 777 l 2
 470.8 777 474.2 769 474.2 763 c 0
 474.2 751 464.9 733 453.8 733 c 2
EndSplineSet
Refer: 362 -1 N 1 0 0 1 0 0 2
Colour: ff00ff
EndChar

StartChar: uni022C
Encoding: 556 556 616
Width: 741
GlyphClass: 2
Flags: MW
AnchorPoint: "below" 371 -113 basechar 0
AnchorPoint: "cedilla" 371 0 basechar 0
LayerCount: 2
Fore
SplineSet
521 776 m 1
 582 776 l 2
 592 776 595 768 595 761 c 0
 595 750 585 732 572 732 c 2
 512 732 l 1
 521 776 l 1
191 732 m 1
 129 732 l 2
 120 732 116 740 116 747 c 0
 116 758 126 776 138 776 c 2
 199 776 l 1
 191 732 l 1
405.7 741.8 m 0
 424.4 741.8 436.3 752.8 448.2 799 c 1
 468.5 792.4 l 1
 458.3 726.4 433.7 693.4 394.6 693.4 c 0
 375.9 693.4 358 706.6 340.2 722 c 0
 324.9 734.1 308.8 746.2 294.3 746.2 c 0
 272.2 746.2 261.2 729.7 252.7 693.4 c 1
 232.2 698.9 l 1
 244.1 763.8 263.7 796.8 300.2 796.8 c 0
 325.7 796.8 344.5 781.4 361.5 766 c 0
 375.1 752.8 389.5 741.8 405.7 741.8 c 0
EndSplineSet
Refer: 262 79 N 1 0 0 1 0 0 2
Colour: ff80cc
EndChar

StartChar: uni0230
Encoding: 560 560 620
Width: 741
GlyphClass: 2
Flags: MW
AnchorPoint: "below" 371 -113 basechar 0
AnchorPoint: "cedilla" 371 0 basechar 0
LayerCount: 2
Fore
SplineSet
441 771 m 1
 523 771 l 2
 532 771 536 763 536 756 c 0
 536 745 526 728 513 728 c 2
 432 728 l 1
 441 771 l 1
245 728 m 1
 160 728 l 2
 151 728 148 735 148 742 c 0
 148 753 158 771 170 771 c 2
 254 771 l 1
 245 728 l 1
EndSplineSet
Refer: 618 558 N 1 0 0 1 0 0 2
Colour: ff80cc
EndChar

StartChar: uni0250
Encoding: 592 592 624
Width: 456
GlyphClass: 2
Flags: MW
AnchorPoint: "above" 231.5 645 basechar 0
AnchorPoint: "top_punkt" 232.6 550 basechar 0
AnchorPoint: "cedilla" 237 -5 basechar 0
AnchorPoint: "below" 229 -114 basechar 0
LayerCount: 2
Fore
SplineSet
152 205 m 1
 237 228 l 2
 315 249 336 283 336 328 c 0
 336 359 307 389 262 389 c 0
 232 389 198 371 170 350 c 0
 162 344 156 337 156 324 c 2
 152 205 l 1
151.9 382 m 1
 156 382 l 1
 209 427 237 440 292 440 c 0
 366 440 417 406 417 332 c 0
 417 264 353 210 251 187 c 2
 158 166 l 2
 155 165 151 161 151 154 c 0
 151 41 211 36 247 36 c 0
 295 36 329 76 357 121 c 1
 370 120 l 1
 387 53 l 1
 384 49 l 1
 359 28 313 -9 237 -9 c 0
 161 -9 72 18 72 153 c 0
 72 164 74.8 275 74.8 304 c 0
 74.8 348.5 68.3 372.7 58.1 382 c 0
 52 387.6 38.7 389.5 28.8 389.5 c 0
 21.2 389.5 12.7 388.1 1.8 384.3 c 1
 -5.6 409 l 1
 18 434 48.8 440 74 440 c 0
 110.6 440 140.5 421.1 151.9 382 c 1
EndSplineSet
Comment: "Anfang{IPA Extensions}"
Colour: ff00ff
EndChar

StartChar: uni0251
Encoding: 593 593 625
Width: 508
GlyphClass: 2
Flags: MW
AnchorPoint: "above" 241.5 645 basechar 0
AnchorPoint: "top_punkt" 242.6 550 basechar 0
AnchorPoint: "cedilla" 197 -5 basechar 0
AnchorPoint: "below" 212 -114 basechar 0
LayerCount: 2
Fore
SplineSet
251 30 m 0
 287 30 322 55 341 75 c 1
 341 345 l 1
 329 366 299 407 235 407 c 0
 186 407 112 366 112 231 c 0
 112 91 184 30 251 30 c 0
342 42 m 1
 330 28 280 -12 218 -12 c 0
 129 -12 34 82 34 209 c 0
 34 370 150 442 241 442 c 0
 280 442 314 430 341 412 c 1
 394 442 l 1
 416 442 l 1
 416 123 l 2
 416 62 417 36 440 36 c 0
 465 36 471 72 471 96 c 1
 494 96 l 1
 494 11 460 -12 406 -12 c 0
 368 -12 347 18 342 42 c 1
EndSplineSet
Colour: ff0000
EndChar

StartChar: uni0252
Encoding: 594 594 626
Width: 508
GlyphClass: 2
Flags: MW
AnchorPoint: "above" 291.5 645 basechar 0
AnchorPoint: "top_punkt" 292.6 550 basechar 0
AnchorPoint: "cedilla" 247 -5 basechar 0
AnchorPoint: "below" 243 -114 basechar 0
LayerCount: 2
Fore
SplineSet
252 400 m 0
 216 400 181 375 162 355 c 1
 162 85 l 1
 174 64 204 23 268 23 c 0
 317 23 391 64 391 199 c 0
 391 339 319 400 252 400 c 0
161 388 m 1
 173 402 223 442 285 442 c 0
 374 442 469 348 469 221 c 0
 469 60 353 -12 262 -12 c 0
 223 -12 189 0 162 18 c 1
 109 -12 l 1
 87 -12 l 1
 87 307 l 2
 87 368 86 394 63 394 c 0
 38 394 32 358 32 334 c 1
 9 334 l 1
 9 419 43 442 97 442 c 0
 135 442 156 412 161 388 c 1
EndSplineSet
Colour: ff00ff
EndChar

StartChar: uni0254
Encoding: 596 596 627
Width: 429
GlyphClass: 2
Flags: MW
AnchorPoint: "below" 172 -114 basechar 0
LayerCount: 2
Fore
SplineSet
161 31 m 0
 227 31 285 97 285 207 c 0
 285 324 228 390 155 390 c 0
 117.8 390 86 382 48 348 c 1
 44 348 l 1
 25 369 l 1
 65 420 112 440 172 440 c 0
 294 440 373 351.1 373 212 c 0
 373 76 264 -9 160 -9 c 0
 110 -9 58 3 27 19 c 1
 25 22 l 1
 48 104 l 1
 61 105 l 1
 87.5 59.5 122.5 31 161 31 c 0
EndSplineSet
Colour: ff00ff
EndChar

StartChar: uni0258
Encoding: 600 600 628
Width: 428
GlyphClass: 2
Flags: MW
AnchorPoint: "below" 212 -114 basechar 0
LayerCount: 2
Fore
SplineSet
318 277 m 1
 301 399 227 408 204 408 c 0
 167 408 120 384 120 291 c 0
 120 282 125 277 134 277 c 2
 318 277 l 1
54 93 m 1
 89 55 124 37 179 37 c 0
 251 37 322 116 322 218 c 0
 322 226 322 232 321 238 c 1
 58 238 l 2
 47 238 40 244 40 255 c 0
 40 339 71 442 203 442 c 0
 298 442 398 351 398 199 c 0
 398 90 340 -12 203 -12 c 0
 131 -12 72 25 34 77 c 1
 54 93 l 1
EndSplineSet
Colour: ff0000
EndChar

StartChar: uni025C
Encoding: 604 604 631
Width: 410
GlyphClass: 2
Flags: MW
LayerCount: 2
Fore
SplineSet
126 366 m 0
 108 350.7 91.7 330.3 77 305 c 1
 64 306 l 1
 48 373 l 1
 61 386 l 1
 74 396 l 1
 85.3 403.3 96.7 410 108 416 c 0
 138 431.3 168.7 439 200 439 c 0
 240.7 439 275 432 303 418 c 0
 339.7 399.3 358 370.7 358 332 c 0
 358 284.7 331.3 253.3 278 238 c 1
 286 237.3 294.7 234.7 304 230 c 0
 315.3 225.3 325.7 219 335 211 c 0
 359.7 189 372 160 372 124 c 0
 372 89.3 359 60 333 36 c 0
 300.3 5.3 251.3 -10 186 -10 c 0
 142 -10 106.3 0 79 20 c 0
 53 39.3 40 63 40 91 c 0
 40 110.3 50 120 70 120 c 0
 73.3 120 76.7 119.7 80 119 c 0
 84 117.7 88 116 92 114 c 0
 100.7 108 106 97.7 108 83 c 0
 113.3 45.7 141.3 27 192 27 c 0
 216 27 236.7 32.7 254 44 c 0
 278.7 60 291 85.7 291 121 c 0
 291 145.7 284.7 166.7 272 184 c 0
 258 202.7 239.3 212 216 212 c 2
 152 212 l 2
 142 212 137 218.7 137 232 c 0
 137 236.7 138.7 241.3 142 246 c 0
 145.3 250.7 148.7 253 152 253 c 2
 192 253 l 2
 225.3 253 250.3 262.7 267 282 c 0
 279.7 296 286 312 286 330 c 0
 286 354 275 371.3 253 382 c 0
 236.3 390 215.3 394 190 394 c 0
 169.3 394 148 384.7 126 366 c 0
EndSplineSet
Colour: ff0000
EndChar

StartChar: uni0265
Encoding: 613 613 632
Width: 539
GlyphClass: 2
Flags: MW
LayerCount: 2
Fore
SplineSet
162 145 m 2
 162 107 169.3 80.7 184 66 c 0
 196 53.3 216 47 244 47 c 0
 260.7 47 281 57 305 77 c 0
 326.3 94.3 347.7 117.3 369 146 c 1
 369 250 l 2
 369 325.3 365.7 385.3 359 430 c 1
 361 433 l 1
 387 430 l 1
 431 430 l 1
 458 433 l 1
 459 430 l 1
 455 404.7 452.3 377.3 451 348 c 0
 449.7 323.3 449 290.7 449 250 c 2
 449 -51 l 2
 449 -92.3 449.7 -128 451 -158 c 0
 453 -192.7 455.7 -220 459 -240 c 1
 457 -243 l 1
 439.7 -244.3 423 -247.7 407 -253 c 2
 368 -268 l 1
 362 -268 359 -264.7 359 -258 c 0
 365.7 -204.7 369 -142.3 369 -71 c 2
 369 83 l 1
 365 86 l 1
 315 22.7 261.3 -9 204 -9 c 0
 122.7 -9 82 42.7 82 146 c 2
 82 250 l 2
 82 325.3 78.7 385.3 72 430 c 1
 74 433 l 1
 100 430 l 1
 144 430 l 1
 171 433 l 1
 172 430 l 1
 168 404.7 165.3 377.3 164 348 c 0
 162.7 323.3 162 290.7 162 250 c 2
 162 145 l 2
EndSplineSet
Colour: ff0000
EndChar

StartChar: uni026A
Encoding: 618 618 633
Width: 270
GlyphClass: 2
Flags: MW
AnchorPoint: "above" 128 645 basechar 0
AnchorPoint: "top_punkt" 136 550 basechar 0
AnchorPoint: "below" 139 -114 basechar 0
LayerCount: 2
Fore
SplineSet
95 250 m 2
 95 321 94 375 85 429 c 1
 87 432 l 1
 99 430 123 429 135 429 c 0
 147 429 171 430 183 432 c 1
 185 429 l 1
 176 372 176 325 175 250 c 1
 175 179 l 2
 175 104 176 57 185 0 c 1
 183 -3 l 1
 171 -1 147 0 135 0 c 0
 123 0 99 -1 87 -3 c 1
 85 0 l 1
 94 54 95 105 95 179 c 2
 95 250 l 2
EndSplineSet
Colour: ff0000
EndChar

StartChar: uni026F
Encoding: 623 623 634
Width: 807
GlyphClass: 2
Flags: MW
AnchorPoint: "above" 429 645 basechar 0
AnchorPoint: "top_punkt" 430 550 basechar 0
AnchorPoint: "below" 432 -114 basechar 0
LayerCount: 2
Fore
SplineSet
652 78 m 1
 649 81 l 1
 602 31 543 -9 481 -9 c 0
 425 -9 384 22 375 70 c 1
 318 10 260 -9 206 -9 c 0
 98 -9 82 61 82 150 c 2
 82 250 l 2
 82 326 81 373 73 430 c 1
 75 433 l 1
 87 431 110 430 122 430 c 0
 134 430 157 431 169 433 c 1
 171 430 l 1
 163 376 162 325 162 250 c 2
 162 140 l 2
 162 73 188 51 242 51 c 0
 281 51 321 58 369 111 c 1
 368 123 368 135 368 149 c 2
 368 250 l 2
 368 326 367 373 359 430 c 1
 361 433 l 1
 373 431 396 430 408 430 c 0
 420 430 443 431 455 433 c 1
 457 430 l 1
 449 376 448 325 448 250 c 2
 448 140 l 2
 448 73 476 51 514 51 c 0
 549 51 605 81 652 129 c 1
 652 250 l 2
 652 326 651 373 643 430 c 1
 645 433 l 1
 657 431 680 430 692 430 c 0
 704 430 727 431 739 433 c 1
 741 430 l 1
 733 376 732 325 732 250 c 2
 732 195 l 2
 732 120 734 44 741 1 c 1
 739 -2 l 1
 716 0 680 -1 658 -5 c 0
 653 -5 652 -3 652 5 c 2
 652 78 l 1
EndSplineSet
Colour: ff00ff
EndChar

StartChar: uni0270
Encoding: 624 624 635
Width: 774
GlyphClass: 2
Flags: MW
LayerCount: 2
Fore
SplineSet
617 86 m 1
 602.3 70 590.7 58 582 50 c 0
 569.3 38 557.3 28 546 20 c 0
 519.3 0.700001 492 -9 464 -9 c 0
 401.3 -9 366 17.3 358 70 c 1
 308 17.3 257.3 -9 206 -9 c 0
 156.7 -9 122.7 6.3 104 37 c 0
 89.3 60.3 82 98 82 150 c 2
 82 250 l 2
 82 325.3 78.7 385.3 72 430 c 1
 74 433 l 1
 100 430 l 1
 144 430 l 1
 171 433 l 1
 172 430 l 1
 168 404.7 165.3 377.3 164 348 c 0
 162.7 323.3 162 290.7 162 250 c 2
 162 138 l 2
 162 77.3 188.7 47 242 47 c 0
 276.7 47 313.3 68.3 352 111 c 1
 351.3 119 351 131.7 351 149 c 2
 351 250 l 2
 351 325.3 347.7 385.3 341 430 c 1
 343 433 l 1
 369 430 l 1
 413 430 l 1
 440 433 l 1
 441 430 l 1
 437 404.7 434.3 377.3 433 348 c 0
 431.7 323.3 431 290.7 431 250 c 2
 431 140 l 2
 431 78 454 47 500 47 c 0
 516 47 534.3 55.7 555 73 c 0
 563.7 79.7 574 89 586 101 c 2
 619 135 l 1
 619 250 l 2
 619 325.3 615.7 385.3 609 430 c 1
 611 433 l 1
 637 430 l 1
 681 430 l 1
 708 433 l 1
 709 430 l 1
 705 404.7 702.3 377.3 701 348 c 0
 699.7 324 699 291.3 699 250 c 2
 699 180 l 2
 699 -45.3 702.3 -181.7 709 -229 c 1
 707 -232 l 1
 681 -229 l 1
 637 -229 l 1
 610 -232 l 1
 609 -229 l 1
 614.3 -189 617 -84 617 86 c 1
EndSplineSet
Colour: ff0000
EndChar

StartChar: uni0271
Encoding: 625 625 636
Width: 812
GlyphClass: 2
Flags: MW
LayerCount: 2
Fore
SplineSet
652 290 m 2
 652 357 626 379 572 379 c 0
 533 379 493 372 445 319 c 1
 446 307 446 295 446 281 c 2
 446 180 l 2
 446 104 447 57 455 0 c 1
 453 -3 l 1
 441 -1 418 0 406 0 c 0
 394 0 371 -1 359 -3 c 1
 357 0 l 1
 365 54 366 105 366 180 c 2
 366 290 l 2
 366 357 338 379 300 379 c 0
 265 379 209 349 162 301 c 1
 162 180 l 2
 162 104 163 57 171 0 c 1
 169 -3 l 1
 157 -1 134 0 122 0 c 0
 110 0 87 -1 75 -3 c 1
 73 0 l 1
 81 54 82 105 82 180 c 2
 82 235 l 2
 82 310 80 385.7 73 429 c 1
 75 432 l 1
 97.7 429.7 133.5 430.5 156 435 c 0
 160.7 435 162 432.7 162 425 c 2
 162 352 l 1
 165 349 l 1
 212 399 271 439 333 439 c 0
 389 439 430 408 439 360 c 1
 496 420 554 439 608 439 c 0
 716 439 731 369 731 280 c 2
 731 -2 l 2
 731 -59.3 717.3 -106.7 690 -144 c 0
 656 -190 612.7 -213 558 -213 c 0
 539.3 -213 525.3 -210.3 516 -205 c 1
 515 -202 l 1
 519 -195.3 522 -184 524 -168 c 2
 531 -128 l 1
 541 -127 l 1
 553 -148.3 567.7 -159 585 -159 c 0
 609.7 -159 628 -149.3 640 -130 c 0
 650 -114 655 -91.7 655 -63 c 2
 652 27 l 1
 652 290 l 2
EndSplineSet
Colour: ff0000
EndChar

StartChar: uni0272
Encoding: 626 626 637
Width: 588
GlyphClass: 2
Flags: MW
LayerCount: 2
Fore
SplineSet
195 297 m 1
 195 -2 l 2
 195 -59.3 181.3 -106.7 154 -144 c 0
 120 -190 75.7 -213 21 -213 c 0
 2.3 -213 -11.7 -210.3 -21 -205 c 1
 -22 -202 l 1
 -18 -195.3 -15 -184 -13 -168 c 2
 -6 -128 l 1
 4 -127 l 1
 16 -148.3 30.7 -159 48 -159 c 0
 72.7 -159 91 -149.3 103 -130 c 0
 113 -114 118 -91.7 118 -63 c 2
 115 27 l 1
 115 235 l 2
 115 310 113 385.7 106 429 c 1
 108 432 l 1
 130.7 429.7 166.5 430.5 189 435 c 0
 193.7 435 194.8 432.7 195 425 c 2
 195 352 l 1
 197 349 l 1
 261 424 332 439 370 439 c 0
 460 439 494 385 494 281 c 0
 494 249 492 212 492 180 c 0
 492 104 493.2 57 501 0 c 1
 499 -3 l 1
 487 -1 464 0 452 0 c 0
 440 0 417 -1 405 -3 c 1
 403 0 l 1
 410.2 53.8 412 105 412 180 c 2
 412 278 l 2
 412 359 391 379 340 379 c 0
 304 379 246 357 195 297 c 1
EndSplineSet
Colour: ff0000
EndChar

StartChar: uni0273
Encoding: 627 627 638
Width: 535
GlyphClass: 2
Flags: MW
LayerCount: 2
Fore
SplineSet
460 180 m 2
 460 27 l 1
 457 -63 l 2
 457 -91.7 462 -114 472 -130 c 0
 484 -149.3 502.3 -159 527 -159 c 0
 544.3 -159 559 -148.3 571 -127 c 1
 581 -128 l 1
 588 -168 l 2
 590 -184 593 -195.3 597 -202 c 1
 596 -205 l 1
 586.7 -210.3 572.7 -213 554 -213 c 0
 499.3 -213 455 -190 421 -144 c 0
 393.7 -106.7 380 -59.3 380 -2 c 2
 380 278 l 2
 380 359 359 379 308 379 c 0
 272 379 214 357 163 297 c 1
 163 180 l 2
 163 104 164 57 172 0 c 1
 170 -3 l 1
 158 -1 135 0 123 0 c 0
 111 0 88 -1 76 -3 c 1
 74 0 l 1
 82 54 83 105 83 180 c 2
 83 235 l 2
 83 310 81 385.7 74 429 c 1
 76 432 l 1
 98.7 429.7 134.5 430.5 157 435 c 0
 161.7 435 162.8 432.7 163 425 c 2
 163 352 l 1
 165 349 l 1
 229 424 300 439 338 439 c 0
 428 439 462 385 462 281 c 0
 462 249 460 212 460 180 c 2
EndSplineSet
Colour: ff0000
EndChar

StartChar: uni0279
Encoding: 633 633 639
Width: 355
GlyphClass: 2
Flags: MW
AnchorPoint: "below" 190 -114 basechar 0
LayerCount: 2
Fore
SplineSet
190 96 m 1
 187 98 l 1
 143 22 114 -9 60 -9 c 0
 42 -9 41 -7 24 -2 c 1
 20 2 l 1
 40 76 l 1
 48 78 l 1
 61 66 80 64 100 64 c 0
 119 64 141.5 76.7 156 99 c 0
 177.5 132 190 156 190 198 c 2
 190 250 l 2
 190 326 188.5 373 181 430 c 1
 183 433 l 1
 195 431 218 430 230 430 c 0
 242 430 265 431 277 433 c 1
 279 430 l 1
 271.2 376.2 270 325 270 250 c 2
 270 195 l 2
 270 120 272 44.3 279 1 c 1
 277 -2 l 1
 254.3 0.3 218.5 -0.5 196 -5 c 0
 191.3 -5 190 -2.7 190 5 c 2
 190 96 l 1
EndSplineSet
Colour: ff00ff
EndChar

StartChar: uni027A
Encoding: 634 634 640
Width: 359
GlyphClass: 2
Flags: MW
LayerCount: 2
Fore
SplineSet
192 95 m 1
 189 97 l 1
 145 21 116 -10 62 -10 c 0
 44 -10 43 -8 26 -3 c 1
 22 1 l 1
 42 75 l 1
 50 77 l 1
 63 65 82 63 102 63 c 0
 121 63 143.5 75.7 158 98 c 0
 179.5 131 192 155 192 197 c 2
 192 479 l 2
 192 555 190.5 602 183 659 c 1
 185 662 l 1
 197 660 220 659 232 659 c 0
 244 659 267 660 279 662 c 1
 281 659 l 1
 273.2 605.2 272 554 272 479 c 2
 272 194 l 2
 272 119 274 43.3 281 0 c 1
 279 -3 l 1
 256.3 -0.7 220.5 -1.5 198 -6 c 0
 193.3 -6 192 -3.7 192 4 c 2
 192 95 l 1
EndSplineSet
Colour: ff00ff
EndChar

StartChar: uni027C
Encoding: 636 636 641
Width: 359
GlyphClass: 2
Flags: MW
LayerCount: 2
Fore
SplineSet
167 334 m 1
 170 332 l 1
 214 408 243 439 297 439 c 0
 315 439 316 437 333 432 c 1
 337 428 l 1
 317 354 l 1
 309 352 l 1
 296 364 277 366 257 366 c 0
 238 366 215.5 353.3 201 331 c 0
 179.5 298 167 274 167 232 c 2
 167 -52 l 2
 167 -128 168.5 -175 176 -232 c 1
 174 -235 l 1
 162 -233 139 -232 127 -232 c 0
 115 -232 92 -233 80 -235 c 1
 78 -232 l 1
 85.8 -178.2 87 -127 87 -52 c 2
 87 235 l 2
 87 310 85 385.7 78 429 c 1
 80 432 l 1
 102.7 429.7 138.5 430.5 161 435 c 0
 165.7 435 167 432.7 167 425 c 2
 167 334 l 1
EndSplineSet
Colour: ff0000
EndChar

StartChar: uni0283
Encoding: 643 643 642
Width: 292
GlyphClass: 2
Flags: MW
LayerCount: 2
Fore
SplineSet
195 -2 m 2
 195 -59.3 181.3 -106.7 154 -144 c 0
 120 -190 75.7 -213 21 -213 c 0
 2.3 -213 -11.7 -210.3 -21 -205 c 1
 -22 -202 l 1
 -18 -195.3 -15 -184 -13 -168 c 2
 -6 -128 l 1
 4 -127 l 1
 16 -148.3 30.7 -159 48 -159 c 0
 72.7 -159 91 -149.3 103 -130 c 0
 113 -114 118 -91.7 118 -63 c 2
 115 27 l 1
 115 487 l 2
 115 544.3 128.7 591.7 156 629 c 0
 190 675 234.3 698 289 698 c 0
 307.7 698 321.7 695.3 331 690 c 1
 332 687 l 1
 328 680.3 325 669 323 653 c 2
 316 613 l 1
 306 612 l 1
 294 633.3 279.3 644 262 644 c 0
 237.3 644 219 634.7 207 616 c 0
 197 599.3 192 576.7 192 548 c 2
 195 458 l 1
 195 -2 l 2
EndSplineSet
Colour: ff0000
EndChar

StartChar: uni0285
Encoding: 645 645 643
Width: 292
GlyphClass: 2
Flags: MW
LayerCount: 2
Fore
SplineSet
177 27 m 1
 174 -63 l 2
 174 -91.7 179 -114 189 -130 c 0
 201 -149.3 219.3 -159 244 -159 c 0
 261.3 -159 276 -148.3 288 -127 c 1
 298 -128 l 1
 305 -168 l 2
 307 -184 310 -195.3 314 -202 c 1
 313 -205 l 1
 303.7 -210.3 289.7 -213 271 -213 c 0
 216.3 -213 172 -190 138 -144 c 0
 110.7 -106.7 97 -59.3 97 -2 c 2
 97 309 l 1
 100 399 l 2
 100 427.7 95 450.3 85 467 c 0
 73 485.7 54.7 495 30 495 c 0
 12.7 495 -2 484.3 -14 463 c 1
 -24 464 l 1
 -31 504 l 2
 -33 520 -36 531.3 -40 538 c 1
 -39 541 l 1
 -29.7 546.3 -15.7 549 3 549 c 0
 57.7 549 102 526 136 480 c 0
 163.3 442.7 177 395.3 177 338 c 2
 177 27 l 1
EndSplineSet
Colour: ff0000
EndChar

StartChar: uni0287
Encoding: 647 647 644
Width: 340
GlyphClass: 2
Flags: MW
LayerCount: 2
Fore
SplineSet
218 1 m 1
 218 -57 216 -92.3 214 -127 c 1
 212 -130 l 1
 179.5 -134.5 167.1 -145 142 -155 c 1
 135.7 -155 133 -152.3 133 -145 c 0
 137.5 -87 138 -73.8 138 1 c 1
 91 1 l 2
 68 1 39 -0.3 21 -1 c 1
 16 6 l 1
 22 20.7 25 31 28 47 c 1
 41.3 45.7 76 45 100 45 c 2
 138 45 l 1
 138 171 l 2
 138 231 141 274 141 304 c 0
 141 358.1 131.7 382.2 108 386 c 0
 83 390 60 389 29.3 378.3 c 1
 17 403 l 1
 59 430 91 440 133 440 c 0
 179 440 221 409 221 344 c 0
 221 314 218 242 218 182 c 2
 218 45 l 1
 240.8 45.1 271.8 45.7 289 47 c 1
 294 40 l 1
 284.3 25 278.7 15.3 272 -1 c 1
 259.6 0.6 238.5 0.9 218 1 c 1
EndSplineSet
Colour: ff00ff
EndChar

StartChar: uni028C
Encoding: 652 652 645
Width: 462
GlyphClass: 2
Flags: MW
LayerCount: 2
Fore
SplineSet
291 433 m 1
 347 287 406 145 473 -2 c 1
 457 1 431 1 415 1 c 0
 401 1 378 1 365 -2 c 1
 328.7 112.7 296.3 225.4 246.2 339.9 c 1
 244.2 339.9 l 1
 198.3 241.9 163.5 111.1 123 -2 c 1
 114 1 99 1 89 1 c 0
 79 1 60 1 51 -2 c 1
 116 145 178 287 230 433 c 1
 239 430 250 430 260 430 c 0
 270 430 281 430 291 433 c 1
EndSplineSet
Colour: ff00ff
EndChar

StartChar: uni028D
Encoding: 653 653 646
Width: 722
GlyphClass: 2
Flags: MW
LayerCount: 2
Fore
SplineSet
535 434 m 1
 591 288 653 146 720 -1 c 1
 704 2 678 2 662 2 c 0
 648 2 625 2 612 -1 c 1
 575.7 113.7 542.3 226.4 492.2 340.9 c 1
 486.2 340.9 l 1
 457.2 279 430 204 403.2 128.7 c 1
 420.4 83 436.3 39 450 -2 c 1
 434 1 408 1 392 1 c 0
 378 1 355 1 342 -2 c 1
 319 104 288 230 246.2 339.9 c 1
 238.2 339.9 l 1
 197 244 152 116 115 -2 c 1
 106 1 91 1 81 1 c 0
 71 1 47 1 38 -2 c 1
 95 123 175 315 224 433 c 1
 233 430 251 430 261 430 c 0
 271 430 277 430 287 433 c 1
 315.5 355.4 347.4 274.4 377.4 196.3 c 1
 409.6 274.8 438.6 357.1 466 434 c 1
 475 431 492 431 502 431 c 0
 512 431 525 431 535 434 c 1
EndSplineSet
Colour: ff00ff
EndChar

StartChar: uni028E
Encoding: 654 654 647
Width: 496
GlyphClass: 2
Flags: MW
LayerCount: 2
Fore
SplineSet
479 -2 m 1
 465 1 440 1 427 1 c 0
 413 1 391 1 378 -2 c 1
 340.6 112.2 293.5 223.5 244.3 342.4 c 1
 242.3 342.4 l 1
 193.7 238.8 147 111 111 -2 c 1
 101 1 82 1 72 1 c 0
 62 1 39 1 29 -2 c 1
 62 65 281 542 319 667 c 1
 329 664 358 662 368 662 c 0
 378 662 393 664 403 667 c 1
 357.8 591.7 317 514.7 285 440 c 1
 320.4 344.9 439.2 86.8 479 -2 c 1
EndSplineSet
Colour: ff00ff
EndChar

StartChar: uni028F
Encoding: 655 655 648
Width: 398
GlyphClass: 2
Flags: MW
LayerCount: 2
Fore
SplineSet
243 81 m 2
 244.3 39.7 245.7 11.7 247 -3 c 1
 236.3 -1 219 0 203 0 c 0
 187 0 169.3 -1 158 -3 c 1
 160 13.7 161.3 41 162 79 c 0
 162.7 94.3 163 111.7 163 131 c 2
 163 183 l 1
 87 308 l 1
 10 432 l 1
 22 430 40.7 429 58 429 c 0
 76 429 90.7 430 102 432 c 1
 116 404 133.7 371.3 155 334 c 2
 213 236 l 1
 233.7 269.3 252.7 301 270 331 c 0
 290.7 367.7 308.3 401.3 323 432 c 1
 331.7 430 343 429 357 429 c 0
 371 429 382 430 390 432 c 1
 336 350 l 2
 317.3 320.7 303.3 299 294 285 c 0
 268 244.3 253 212.7 241 190 c 1
 243 81 l 2
EndSplineSet
Colour: ff0000
EndChar

StartChar: uni029E
Encoding: 670 670 650
Width: 485
GlyphClass: 2
Flags: MW
LayerCount: 2
Fore
SplineSet
403 -52 m 2
 403 -93.3 403.7 -128.7 405 -158 c 0
 407 -192.7 409.7 -220 413 -240 c 1
 411 -243 l 1
 393.7 -244.3 377 -247.7 361 -253 c 2
 322 -268 l 1
 316 -268 313 -264.7 313 -258 c 0
 319.7 -204.7 323 -142 323 -70 c 2
 323 193 l 1
 314.3 193 303.7 188 291 178 c 0
 271.7 163.3 246.3 138 215 102 c 0
 184.3 66.7 158 33 136 1 c 1
 83 1 l 2
 59 0.3 43 -0.7 35 -2 c 1
 33 1 l 1
 47.7 13.7 64.7 29.3 84 48 c 0
 99.3 63.3 116.7 81.3 136 102 c 2
 220 192 l 1
 139.3 289.3 70 368.7 12 430 c 1
 14 433 l 1
 18 432.3 27 431.7 41 431 c 0
 53.7 430.3 64.7 430 74 430 c 0
 83.3 430 94.7 430.3 108 431 c 2
 140 433 l 1
 220 318 l 2
 243.3 285.3 268.3 255 295 227 c 0
 299 223.7 304 221.3 310 220 c 0
 314 218.7 318.3 218 323 218 c 1
 323 230 l 2
 323 273.3 322.3 309 321 337 c 0
 319.7 373 317 404 313 430 c 1
 315 433 l 1
 341 430 l 1
 385 430 l 1
 412 433 l 1
 413 430 l 1
 409 405.3 406.3 374.7 405 338 c 0
 403.7 309.3 403 273.3 403 230 c 2
 403 -52 l 2
EndSplineSet
Colour: ff0000
EndChar

StartChar: uni02BB
Encoding: 699 699 651
Width: 168
GlyphClass: 2
Flags: MW
LayerCount: 2
Fore
SplineSet
89 471 m 0
 51 471 29 508 29 544 c 0
 29 580 61 642 131 650 c 1
 136 633 l 1
 94 624 73 587 73 564 c 0
 73 551 79 543 87 543 c 0
 128 543 133 521 133 505 c 0
 133 489 119 471 89 471 c 0
EndSplineSet
Colour: ff00ff
EndChar

StartChar: uni02BC
Encoding: 700 700 652
Width: 175
GlyphClass: 2
Flags: MW
LayerCount: 2
Fore
SplineSet
79 652 m 0
 117 652 139 615 139 579 c 0
 139 543 107 481 37 473 c 1
 32 490 l 1
 74 499 95 536 95 559 c 0
 95 572 89 580 81 580 c 0
 40 580 35 602 35 618 c 0
 35 634 49 652 79 652 c 0
EndSplineSet
Colour: ff00ff
EndChar

StartChar: uni02C8
Encoding: 712 712 655
Width: 130
GlyphClass: 2
Flags: MW
LayerCount: 2
Fore
SplineSet
90 715 m 1
 89 698 89 663 89 640 c 0
 89 617 89 577 90 548 c 1
 81 541 67 538 61 538 c 0
 54 538 47 540 40 544 c 1
 41 564 41 599 41 620 c 0
 41 644 41 685 40 711 c 1
 50 717 63 722 69 722 c 0
 76 722 82 720 90 715 c 1
EndSplineSet
Colour: ff00ff
EndChar

StartChar: uni02D0
Encoding: 720 720 658
Width: 209
GlyphClass: 2
Flags: MW
LayerCount: 2
Fore
SplineSet
36 37 m 1
 105 158 l 1
 175 37 l 1
 36 37 l 1
EndSplineSet
Refer: 659 721 N 1 0 0 1 0 1 2
Colour: ff00ff
EndChar

StartChar: uni02D1
Encoding: 721 721 659
Width: 204
GlyphClass: 2
Flags: MW
LayerCount: 2
Fore
SplineSet
36 404 m 1
 175 404 l 1
 105 283 l 1
 36 404 l 1
EndSplineSet
Colour: ff00ff
EndChar

StartChar: gravecomb
Encoding: 768 768 666
Width: 0
GlyphClass: 4
Flags: MW
AnchorPoint: "above" -142 713 mark 0
LayerCount: 2
Fore
SplineSet
-156 708 m 1
 -86 582 l 2
 -81 572 -80 565 -80 558 c 0
 -80 553 -87 547 -95 547 c 0
 -101 547 -108 552 -124 567 c 2
 -238 676 l 1
 -236 687 l 1
 -228 693 -205 710 -171 710 c 0
 -166 710 -160 709 -156 708 c 1
EndSplineSet
EndChar

StartChar: acutecomb
Encoding: 769 769 667
Width: 0
GlyphClass: 4
Flags: MW
AnchorPoint: "above" -191 708 mark 0
LayerCount: 2
Fore
SplineSet
-152 708 m 1
 -149 709 -143 710 -138 710 c 0
 -131.6 710 -106 709 -83 687 c 1
 -80 676 l 1
 -195 567 l 2
 -210 552 -218 548 -225 548 c 0
 -232 548 -239 554 -239 561 c 0
 -239 572.2 -235.7 576.2 -227.6 589 c 2
 -152 708 l 1
EndSplineSet
EndChar

StartChar: uni0302
Encoding: 770 770 668
Width: 0
GlyphClass: 4
Flags: MW
AnchorPoint: "above" -139 697 mark 0
LayerCount: 2
Fore
SplineSet
-114 697 m 1
 -85 650 -49 608 -13 568 c 1
 -34 554 l 1
 -73 583 -106 608 -140 644 c 1
 -177 606 -209 581 -247 554 c 1
 -267 568 l 1
 -231 608 -193 651 -164 697 c 1
 -114 697 l 1
EndSplineSet
EndChar

StartChar: tildecomb
Encoding: 771 771 669
Width: 0
GlyphClass: 4
Flags: MW
AnchorPoint: "top_punkt" -147 610 mark 0
LayerCount: 2
Fore
SplineSet
-84 618 m 0
 -62 618 -48 628 -34 670 c 1
 -10 664 l 1
 -22 604 -51 574 -97 574 c 0
 -119 574 -140 586 -161 600 c 0
 -179 611 -198 622 -215 622 c 0
 -241 622 -254 607 -264 574 c 1
 -288 579 l 1
 -274 638 -251 668 -208 668 c 0
 -178 668 -156 654 -136 640 c 0
 -120 628 -103 618 -84 618 c 0
EndSplineSet
EndChar

StartChar: uni0307
Encoding: 775 775 670
Width: 0
GlyphClass: 4
Flags: MW
AnchorPoint: "top_punkt" -181.1 573.9 mark 0
LayerCount: 2
Fore
SplineSet
-231 575 m 0
 -231 602 -207 626 -180 626 c 0
 -153 626 -129 602 -129 575 c 0
 -129 548 -153 524 -180 524 c 0
 -207 524 -231 548 -231 575 c 0
EndSplineSet
EndChar

StartChar: uni0308
Encoding: 776 776 671
Width: 0
GlyphClass: 4
Flags: MW
AnchorPoint: "top_punkt" -211 557 mark 0
LayerCount: 2
Fore
SplineSet
-341 574 m 0
 -341 600 -320 622 -294 622 c 0
 -268 622 -247 600 -247 574 c 0
 -247 548 -268 527 -294 527 c 0
 -320 527 -341 548 -341 574 c 0
-172 574 m 0
 -172 600 -151 622 -125 622 c 0
 -99 622 -78 600 -78 574 c 0
 -78 548 -99 527 -125 527 c 0
 -151 527 -172 548 -172 574 c 0
EndSplineSet
Colour: ff00ff
EndChar

StartChar: hookabovecomb
Encoding: 777 777 672
Width: 0
GlyphClass: 4
Flags: MW
AnchorPoint: "top_punkt" -175 681 mark 0
LayerCount: 2
Fore
SplineSet
-88 723 m 0
 -88 703 -103 687 -119 671 c 0
 -136 655 -146 638 -148 612 c 1
 -176 612 l 1
 -175 646 -162 668 -151 685 c 0
 -143 697 -138 709 -138 721 c 0
 -138 744 -146 754 -167 754 c 0
 -186 754 -189 748 -189 743 c 0
 -189 739 -188 737 -187 735 c 0
 -186 732 -183 726 -183 718 c 0
 -183 707 -196 697 -205 697 c 0
 -224 697 -232 712 -232 724 c 0
 -232 746 -201 781 -159 781 c 0
 -104 781 -88 740 -88 723 c 0
EndSplineSet
EndChar

StartChar: uni030C
Encoding: 780 780 673
Width: 0
GlyphClass: 4
Flags: MW
AnchorPoint: "above" -205 676 mark 0
LayerCount: 2
Fore
SplineSet
-229 533 m 1
 -258 580 -295 625 -330 663 c 1
 -310 676 l 1
 -271 647 -238 622 -204 586 c 1
 -167 624 -133 649 -96 676 c 1
 -77 663 l 1
 -112 624 -150 579 -179 533 c 1
 -229 533 l 1
EndSplineSet
EndChar

StartChar: uni030F
Encoding: 783 783 674
Width: 0
GlyphClass: 4
Flags: MW
AnchorPoint: "above" -140 758 mark 0
LayerCount: 2
Fore
SplineSet
-260 751 m 0
 -248 751 -241 749 -236 740 c 2
 -158 601 l 2
 -157 600 -157 598 -157 597 c 0
 -157 587.3 -167.4 583 -170 583 c 0
 -173 583 -175 584 -177 586 c 2
 -291 696 l 2
 -296 702 -298 709 -298 715 c 0
 -298 732.9 -283.4 751 -260 751 c 0
-124 757 m 0
 -113 757 -105 752 -101 743 c 2
 -38.3 600 l 2
 -37 597 -37 595 -37 594 c 0
 -37 591.4 -39.8 581 -51 581 c 0
 -54 581 -56 582 -58 584 c 2
 -160 705 l 2
 -165 710 -166 716 -166 721 c 0
 -166 734.8 -155.5 757 -124 757 c 0
EndSplineSet
EndChar

StartChar: uni031B
Encoding: 795 795 675
Width: 0
GlyphClass: 4
Flags: MW
AnchorPoint: "komb_OR" -145 346.7 mark 0
LayerCount: 2
Fore
SplineSet
-90 415 m 0
 -90 364 -122 332 -177 332 c 2
 -201 332 l 1
 -201 358 l 1
 -177 358 l 2
 -166 358 -125 362 -125 396 c 0
 -125 409 -138 417 -152 418 c 0
 -187 422 -200 444 -200 464 c 0
 -200 488 -182 503 -154 503 c 0
 -116 503 -90 462 -90 415 c 0
EndSplineSet
EndChar

StartChar: dotbelowcomb
Encoding: 803 803 676
Width: 0
GlyphClass: 4
Flags: MW
AnchorPoint: "below" -216 -113 mark 0
LayerCount: 2
Fore
SplineSet
-270 -159 m 0
 -270 -128 -247 -105 -216 -105 c 0
 -185 -105 -162 -128 -162 -159 c 0
 -162 -190 -185 -213 -216 -213 c 0
 -247 -213 -270 -190 -270 -159 c 0
EndSplineSet
EndChar

StartChar: uni0326
Encoding: 806 806 677
Width: 0
GlyphClass: 4
Flags: MW
AnchorPoint: "below" -255 -82 mark 0
LayerCount: 2
Fore
SplineSet
-250 -41 m 0
 -212 -41 -188 -75 -188 -127 c 0
 -188 -187 -237 -217 -294 -226 c 1
 -300 -220 -302 -211 -302 -202 c 1
 -253 -191 -227 -167 -227 -149 c 0
 -227 -129 -240 -125 -258 -123 c 1
 -275 -120 -300 -111 -300 -84 c 0
 -300 -60 -279 -41 -250 -41 c 0
EndSplineSet
EndChar

StartChar: uni0327
Encoding: 807 807 678
Width: 0
GlyphClass: 4
Flags: MW
AnchorPoint: "cedilla" -182 -3 mark 0
LayerCount: 2
Fore
SplineSet
-186 -96 m 0
 -205 -96 -215 -97 -231 -102 c 1
 -237 -96 l 1
 -197 0 l 1
 -163 0 l 1
 -188 -67 l 1
 -180 -65 -171 -64 -162 -64 c 0
 -122 -64 -91 -88 -91 -126 c 0
 -91 -169 -137 -200 -198 -200 c 0
 -230 -200 -247 -194 -272 -183 c 1
 -272 -171 -269 -164 -262 -157 c 1
 -235 -167 -224 -171 -204 -171 c 0
 -174 -171 -153 -157 -153 -131 c 0
 -153 -110 -163 -96 -186 -96 c 0
EndSplineSet
EndChar

StartChar: tonos
Encoding: 900 900 679
Width: 219
GlyphClass: 2
Flags: MW
LayerCount: 2
Fore
SplineSet
125 731 m 0
 145 731 167 716 167 696 c 0
 167 691 165 683 161 678 c 2
 69 556 l 2
 66 552 61 548 57 548 c 0
 49 548 43 554 43 561 c 0
 43 564 44 568 45 571 c 2
 97 714 l 2
 101 725 112 731 125 731 c 0
EndSplineSet
EndChar

StartChar: Gamma
Encoding: 915 915 687
Width: 481
GlyphClass: 2
Flags: MW
LayerCount: 2
Fore
SplineSet
185 445 m 2
 185 200 l 2
 185 125 187 53 195 0 c 1
 194 -3 l 1
 194 -3 177 0 142 0 c 0
 108 0 90 -3 90 -3 c 1
 88 0 l 1
 96 57 99 125 99 200 c 2
 99 445 l 2
 99 520 97 591 89 645 c 1
 90 648 l 1
 90 648 108 645 142 645 c 2
 415 645 l 2
 436 645 459 646 475 648 c 1
 477 645 l 1
 476 631 475 626 475 616 c 0
 475 606 476 591 477 583 c 1
 475 579 l 1
 475 579 327 591 193 591 c 1
 186 567 185 462 185 445 c 2
EndSplineSet
EndChar

StartChar: uni0394
Encoding: 916 916 688
Width: 636
GlyphClass: 2
Flags: MW
LayerCount: 2
Fore
SplineSet
300 547 m 1
 105 44 l 1
 492 44 l 1
 302 547 l 1
 300 547 l 1
352 658 m 1
 596 20 l 2
 599 11 600 8 600 6 c 0
 600 2 596 0 579 0 c 2
 51 0 l 2
 38 0 30 1 30 7 c 0
 30 10 31 10 35 20 c 2
 290 658 l 1
 352 658 l 1
EndSplineSet
EndChar

StartChar: Theta
Encoding: 920 920 692
Width: 741
GlyphClass: 2
Flags: MW
AnchorPoint: "above" -128 316 basechar 0
LayerCount: 2
Fore
SplineSet
221 284 m 1
 218 286 l 1
 218 286 221 302 221 317 c 0
 221 332 218 359 218 359 c 1
 221 360 l 1
 270.9 352.5 310.5 349.9 362.3 349.9 c 0
 449 349.9 481 357.1 502 360 c 1
 505 358 l 1
 505 358 502 332 502 317 c 0
 502 302 505 285 505 285 c 1
 502 284 l 1
 489.6 285.8 457.8 294 365.6 294 c 0
 314.4 294 274.2 291.5 221 284 c 1
EndSplineSet
Refer: 262 79 N 1 0 0 1 0 0 2
Colour: ff80cc
EndChar

StartChar: Lambda
Encoding: 923 923 695
Width: 625
GlyphClass: 2
Flags: MW
LayerCount: 2
Fore
SplineSet
299 512.7 m 1
 227.3 346.7 129.4 125.6 95 -3 c 1
 83.6 -1 61 0 50 0 c 0
 41 0 22 -1 10 -3 c 1
 111 218 209 433 305 655 c 1
 333 655 l 1
 425 436 557 98 607 -3 c 1
 590.2 -1.2 563 0 547 0 c 0
 531.6 0 508.6 -1.2 492 -3 c 1
 482.1 31.6 432.2 208.9 301 512.7 c 1
 299 512.7 l 1
EndSplineSet
Colour: ff00ff
EndChar

StartChar: Xi
Encoding: 926 926 698
Width: 648
GlyphClass: 2
Flags: MW
LayerCount: 2
Fore
SplineSet
151 284 m 1
 148 286 l 1
 148 286 151 302 151 317 c 0
 151 332 148 359 148 359 c 1
 151 360 l 1
 200.9 352.5 270.5 349.9 322.3 349.9 c 0
 409 349.9 481 357.1 502 360 c 1
 505 358 l 1
 505 358 502 332 502 317 c 0
 502 302 505 285 505 285 c 1
 502 284 l 1
 489.6 285.8 417.8 294 325.6 294 c 0
 274.4 294 204.2 291.5 151 284 c 1
400 576 m 2
 248 576 l 2
 173 576 105 573 48 565 c 1
 45 567 l 1
 45 567 48 575 48 609 c 0
 48 644 45 654 45 654 c 1
 48 655 l 1
 101 647 173 645 248 645 c 2
 400 645 l 2
 475 645 547 647 600 655 c 1
 603 654 l 1
 603 654 600 644 600 609 c 0
 600 575 603 567 603 567 c 1
 600 565 l 1
 543 573 475 576 400 576 c 2
400 0 m 2
 248 0 l 2
 173 0 105 -3 48 -11 c 1
 45 -9 l 1
 45 -9 48 -1 48 33 c 0
 48 68 45 78 45 78 c 1
 48 79 l 1
 101 71 173 69 248 69 c 2
 400 69 l 2
 475 69 547 71 600 79 c 1
 603 78 l 1
 603 78 600 68 600 33 c 0
 600 -1 603 -9 603 -9 c 1
 600 -11 l 1
 543 -3 475 0 400 0 c 2
EndSplineSet
EndChar

StartChar: Pi
Encoding: 928 928 700
Width: 708
GlyphClass: 2
Flags: MW
LayerCount: 2
Fore
SplineSet
564 645 m 2
 598 645 616 648 616 648 c 1
 617 645 l 1
 609 591 607 520 607 445 c 2
 607 200 l 2
 607 125 610 57 618 0 c 1
 616 -3 l 1
 616 -3 598 0 564 0 c 0
 529 0 512 -3 512 -3 c 1
 511 0 l 1
 519 53 521 125 521 200 c 2
 521 445 l 2
 521 462 520 564 513 588 c 1
 506 597 502 601 487 601 c 2
 221 601 l 2
 206 601 202 597 195 588 c 1
 188 564 187 462 187 445 c 2
 187 200 l 2
 187 125 189 53 197 0 c 1
 196 -3 l 1
 196 -3 179 0 144 0 c 0
 110 0 92 -3 92 -3 c 1
 90 0 l 1
 98 57 101 125 101 200 c 2
 101 445 l 2
 101 520 99 591 91 645 c 1
 92 648 l 1
 92 648 110 645 144 645 c 2
 564 645 l 2
EndSplineSet
EndChar

StartChar: Sigma
Encoding: 931 931 702
Width: 594
GlyphClass: 2
Flags: MW
LayerCount: 2
Fore
SplineSet
123 645 m 1
 460 645 l 2
 481 645 504 646 520 648 c 1
 522 645 l 1
 521 631 520 626 520 616 c 0
 520 606 521 591 522 583 c 1
 520 579 l 1
 520 579 348 587.8 238 591 c 0
 208.3 591.9 161.7 589.5 161.7 589.5 c 1
 342 331 l 1
 115 48 l 1
 115 48 201.6 51.6 257 54 c 0
 367 58.7 539 66 539 66 c 1
 541 62 l 1
 540 54 539 39 539 29 c 0
 539 19 540 14 541 0 c 1
 539 -3 l 1
 523 -1 500 0 479 0 c 2
 92 0 l 2
 64 0 22 -2 22 -2 c 1
 20 0 l 1
 20 24 l 1
 22 27 l 1
 31.5 36.5 32.1 37 41 48 c 2
 252 309 l 1
 254 310 l 1
 69 576 l 2
 48.6 605.3 50 604 33 618 c 1
 31 620 l 1
 31 645 l 1
 33 646 l 1
 123 645 l 1
EndSplineSet
EndChar

StartChar: Phi
Encoding: 934 934 705
Width: 677
GlyphClass: 2
Flags: MW
LayerCount: 2
Fore
SplineSet
292.7 110.5 m 1
 61.5 128.6 36 271.5 36 324 c 0
 36 402.1 106.4 518.3 292.6 536.4 c 1
 291.2 575.7 288.6 612.2 284 645 c 1
 286 648 l 1
 298 646 325 645 337 645 c 0
 349 645 376 646 388 648 c 1
 390 645 l 1
 385.4 614.6 382.8 577.8 381.4 537.9 c 1
 537.6 526.5 641 437.7 641 331 c 0
 641 230.3 540.5 124.6 381.3 110.1 c 1
 382.7 70.2 385.3 33.2 390 0 c 1
 388 -3 l 1
 376 -1 349 0 337 0 c 0
 325 0 298 -1 286 -3 c 1
 284 0 l 1
 288.7 31.8 291.3 69.6 292.7 110.5 c 1
293.6 147.7 m 1
 293.9 164.8 294 182.3 294 200 c 2
 294 445 l 2
 294 463.6 293.9 481.9 293.6 499.6 c 1
 209.4 492.7 126 461.2 126 331 c 0
 126 208.3 200.1 159.9 293.6 147.7 c 1
380.4 147 m 1
 540 162.1 551 254.1 551 324 c 0
 551 451.8 478.2 488.9 380.4 499 c 1
 380.1 481.3 380 463.2 380 445 c 2
 380 200 l 2
 380 181.9 380.1 164.2 380.4 147 c 1
EndSplineSet
EndChar

StartChar: Psi
Encoding: 936 936 707
Width: 694
GlyphClass: 2
Flags: MW
LayerCount: 2
Fore
SplineSet
303 445 m 2
 303 520 301 588 293 645 c 1
 295 648 l 1
 307 646 334 645 346 645 c 0
 358 645 385 646 397 648 c 1
 399 645 l 1
 391 592 389 520 389 445 c 2
 389 235.2 l 1
 521 263.9 523 439.1 523 477 c 0
 523 555 541 616 614 616 c 2
 650 616 l 2
 662 616 672 609 672 599 c 0
 672 592 665.9 590.2 658 588 c 0
 633 581 598 575 598 473 c 0
 598 280.6 491.7 214.4 389 202.1 c 1
 389 200 l 2
 389 125 391 57 399 0 c 1
 397 -3 l 1
 385 -1 358 0 346 0 c 0
 334 0 307 -1 295 -3 c 1
 293 0 l 1
 301 54 303 125 303 200 c 2
 303 203.6 l 1
 202.5 217 97 278.8 97 450 c 0
 97 578 57 584 35 590 c 0
 27 592 22 594 22 599 c 0
 22 610 31 616 42 616 c 2
 80 616 l 2
 141 616 172 564 172 466 c 0
 172 311.1 239.4 255.9 303 237.4 c 1
 303 445 l 2
EndSplineSet
EndChar

StartChar: uni03A9
Encoding: 937 937 708
Width: 700
GlyphClass: 2
Flags: MW
LayerCount: 2
Fore
SplineSet
111 0 m 2
 90 0 67 -1 51 -3 c 1
 49 0 l 1
 51 28 51 52 49 67 c 1
 51 71 l 1
 51 71 119 59 253 59 c 1
 247 117 l 1
 139 154 50 249 50 377 c 0
 50 509 156 658 353 658 c 0
 552 658 656 525 656 377 c 0
 656 257 570 154 459 117 c 1
 456 59 l 1
 590 59 658 71 658 71 c 1
 660 67 l 1
 658 52 658 28 660 0 c 1
 658 -3 l 1
 642 -1 619 0 598 0 c 2
 440 0 l 2
 428 0 418 5 418 14 c 2
 426 143 l 1
 518 196 559 269 559 377 c 0
 559 518 483 619 353 619 c 0
 214 619 147 506 147 378 c 0
 147 266 188 205 280 143 c 1
 288 15 l 2
 288 6 277 0 266 0 c 2
 111 0 l 2
EndSplineSet
EndChar

StartChar: upsilondieresistonos
Encoding: 944 944 715
Width: 492
GlyphClass: 2
Flags: MW
LayerCount: 2
Fore
SplineSet
174 251 m 2
 174 189 l 2
 174 97.2 183 34 276 34 c 0
 364 34 407 139 407 237 c 0
 407 333 376 347 349 363 c 0
 337.4 369.8 324.5 377.5 300 388.5 c 1
 300 388.5 299.6 396.9 299.5 397 c 0
 307.9 415.4 333.4 452 349 452 c 0
 371.8 452 393.5 437 407.5 422.5 c 0
 437.8 391.2 449 323.4 449 249 c 0
 449 75 357 -10 267 -10 c 0
 126 -10 94 66 94 173 c 2
 94 235 l 2
 94 310 92 393 84 436 c 1
 86 439 l 1
 115 434.5 150 429 175 439 c 1
 181 439 184 436 184 429 c 0
 176 368 174 326 174 251 c 2
EndSplineSet
Refer: 2308 836 N 1 0 0 1 73 -2 2
Colour: ff00ff
EndChar

